SplineFontDB: 3.2
FontName: Sorazora-Regular
FullName: Sorazora
FamilyName: Sorazora
Weight: Regular
Copyright: SIL Open Font License (OFL)
UComments: "Created for Xymyric 9. Drawn in Inkscape and compiled using FontForge."
FontLog: "Sorazora is a serif font designed for the 9th Edition of the Xymyric alphabet. It includes two styles (Roman, Italic) for one weight (Regular). The design of the serifs is inspired by Han characters and is descended from Xymyric 8. The most noticeable feature compared to V8 is the thin headline and shallow pen angle. This font can be regarded as a transitional style. The direction of the serifs is flipped to reflect the pen angle, which is opposite that of V8.+AAoACgAA-Xymyric 9 specification: https://docs.google.com/document/d/10HuhhSWbcs7u7IWC0UuAK0fY2e_X8Z23sTPiJAIG3fo/edit?usp+AD0A-sharing+AAoACgAA-This font:+AAoA    sorazora_serif_w4.otf+AAoACgAA-Designer:+AAoA    Kegfeng"
Version: 0.2.8
DefaultBaseFilename: sorazora_serif_w4
ItalicAngle: 0
UnderlinePosition: -79
UnderlineWidth: 39
Ascent: 735
Descent: 265
InvalidEm: 0
LayerCount: 2
Layer: 0 0 "Back" 1
Layer: 1 0 "Fore" 0
XUID: [1021 177 139733406 4461]
FSType: 0
OS2Version: 0
OS2_WeightWidthSlopeOnly: 0
OS2_UseTypoMetrics: 1
CreationTime: 1673642421
ModificationTime: 1673907375
PfmFamily: 17
TTFWeight: 400
TTFWidth: 5
LineGap: 72
VLineGap: 0
OS2TypoAscent: 0
OS2TypoAOffset: 1
OS2TypoDescent: 0
OS2TypoDOffset: 1
OS2TypoLinegap: 72
OS2WinAscent: 0
OS2WinAOffset: 1
OS2WinDescent: 0
OS2WinDOffset: 1
HheadAscent: 0
HheadAOffset: 1
HheadDescent: 0
HheadDOffset: 1
OS2Vendor: 'PfEd'
MarkAttachClasses: 1
DEI: 91125
LangName: 1033
GaspTable: 3 9 10 16 5 65535 15 1
Encoding: ISO8859-1
UnicodeInterp: none
NameList: AGL For New Fonts
DisplaySize: -96
AntiAlias: 1
FitToEm: 0
WinInfo: 250 10 7
BeginPrivate: 8
BlueValues 23 [-23 0 400 415 432 433]
BlueScale 8 0.039625
BlueShift 1 7
StdHW 4 [17]
StdVW 4 [17]
StemSnapH 12 [8 17 35 77]
StemSnapV 10 [10 17 81]
LanguageGroup 1 0
EndPrivate

StartChar: a
Encoding: 97 97 26
Width: 815
Flags: W
HStem: -21.2556 45.2498<366.183 507.065> 366.661 35.892<186.136 237.954 319.215 541.368 622.63 765.485> 494.231 106.453<403.613 488.918>
VStem: 237.954 81.2607<73.005 366.661> 393.038 106.454<504.806 590.11> 541.368 81.2617<55.2939 366.66>
LayerCount: 2
Fore
SplineSet
499.4921875 547.458007812 m 0
 499.4921875 518.061523438 475.661132812 494.231445312 446.264648438 494.231445312 c 0
 416.869140625 494.231445312 393.038085938 518.061523438 393.038085938 547.458007812 c 0
 393.038085938 576.854492188 416.869140625 600.684570312 446.264648438 600.684570312 c 0
 475.661132812 600.684570312 499.4921875 576.854492188 499.4921875 547.458007812 c 0
131.006835938 468.166015625 m 1
 186.135742188 402.552734375 l 1
 677.66015625 402.552734375 l 2
 701.104492188 402.552734375 768.673828125 407.662109375 784.731445312 408.877929688 c 1
 766.45703125 355.955078125 l 1
 746.15625 361.459960938 698.256835938 366.66015625 677.173828125 366.66015625 c 6
 622.629882812 366.660238889 l 5
 622.629882812 55.2939453125 l 1
 656.471679688 9.521484375 l 1
 630.872070312 -3.103515625 592.397460938 -13.9580078125 559.095703125 -19.515625 c 1
 548.265840017 15.4378730244 l 1
 528.158893495 7.78676591063 494.498446369 -4.41174344222 476.719726562 -9.17578125 c 0
 446.400756822 -17.2997121563 418.311685894 -21.2556266998 392.847693429 -21.2556266998 c 0
 296.680632959 -21.2556266998 237.954101562 35.1661281386 237.954101562 136.584960938 c 2
 237.954101562 366.66082171 l 1
 32.619140625 366.661132812 l 2
 18.849609375 366.661132812 16.5498046875 370.600585938 25.794921875 379.229492188 c 0
 52.2666015625 403.93359375 99.060546875 443.180664062 131.006835938 468.166015625 c 1
541.368164062 62.6753944667 m 1
 541.368164062 366.660362009 l 1
 319.21484375 366.660698592 l 1
 319.21484375 160.139648438 l 2
 319.21484375 77.6669921875 357.21875 23.994140625 440.641601562 23.994140625 c 0
 473.682336572 23.994140625 498.83301228 27.2689346533 541.368164062 62.6753944667 c 1
EndSplineSet
Validated: 1
EndChar

StartChar: b
Encoding: 98 98 27
Width: 548
Flags: W
HStem: -10.7051 21G<488.02 505.078> -9.75608e-15 35.8926<135.582 497.199> 194.574 35.8916<135.582 456.598> 366.66 35.8926<141.082 489.777>
VStem: 54.3203 81.2617<-37.1408 -7.10543e-15 35.8926 194.574 230.466 355.891>
LayerCount: 2
Fore
SplineSet
475.84765625 236.791992188 m 1x78
 457.569335938 183.869140625 l 1
 437.266601562 189.374023438 389.368164062 194.57421875 368.286132812 194.57421875 c 2
 135.58203125 194.57421875 l 1
 135.58203125 35.892578125 l 1
 409.374023438 35.892578125 l 2
 432.817382812 35.892578125 500.391601562 41.001953125 516.44921875 42.2177734375 c 1
 498.170898438 -10.705078125 l 1xb8
 477.868164062 -5.2001953125 429.970703125 0 408.887695312 0 c 2
 135.58203125 -9.75608482889e-15 l 1
 135.58203125 -33.8505859375 l 1
 113.84765625 -45.5830078125 81.40625 -57.1298828125 54.3203125 -62.8876953125 c 1
 54.3203125 355.890625 l 1
 12.5927734375 400.651367188 l 1
 35.5771484375 413.584960938 86.126953125 438.50390625 113.322265625 448.458007812 c 1
 141.08203125 402.552734375 l 1
 401.953125 402.552734375 l 2
 425.396484375 402.552734375 492.969726562 407.662109375 509.028320312 408.87890625 c 1
 490.749023438 355.955078125 l 1
 470.448242188 361.4609375 422.549804688 366.66015625 401.466796875 366.66015625 c 2
 135.58203125 366.66015625 l 1
 135.58203125 230.465820312 l 1
 368.772460938 230.465820312 l 2
 392.215820312 230.465820312 459.7890625 235.575195312 475.84765625 236.791992188 c 1x78
EndSplineSet
Validated: 1
EndChar

StartChar: c
Encoding: 99 99 28
Width: 472
Flags: W
HStem: -14.04 21G<297.642 354.427> 58.5 19.4648<198.72 249.817> 366.66 35.8926<139.836 335.826> 412.692 20G<403.677 420.764>
VStem: 54.3242 81.2607<-207.307 353.826> 336.406 81.2607<73.1897 366.432>
LayerCount: 2
Fore
SplineSet
113.330078125 446.389648438 m 1
 139.8359375 402.552734375 l 1
 319.20703125 402.555664062 l 1
 355.548828125 415.455078125 385.557617188 424.41796875 421.795898438 432.692382812 c 1
 419.731445312 415.487304688 417.666992188 369.19140625 417.666992188 331.71484375 c 2
 417.666992188 78.619140625 l 2
 417.666992188 19.587890625 403.77734375 -3.4482421875 305.076171875 -14.0400390625 c 1
 290.208007812 39.845703125 269.818359375 49.8857421875 198.719726562 58.5 c 1
 198.719726562 77.96484375 l 1
 217.064166069 77.1533532342 235.740876869 75.9659652378 252.953270058 74.8716724964 c 0
 276.049752959 73.4032936768 296.509634503 72.1025390625 309.9921875 72.1025390625 c 0
 329.43359375 72.1025390625 336.40625 77.7861328125 336.40625 94.087890625 c 2
 336.40625 366.6640625 l 1
 334.5703125 366.6640625 l 1
 135.584960938 366.66015625 l 1
 135.584960938 -204.016601562 l 1
 113.850585938 -215.75 81.41015625 -227.295898438 54.32421875 -233.053710938 c 1
 54.32421875 353.826171875 l 1
 12.5966796875 398.586914062 l 1
 35.5810546875 411.520507812 86.134765625 436.435546875 113.330078125 446.389648438 c 1
EndSplineSet
Validated: 1
EndChar

StartChar: d
Encoding: 100 100 29
Width: 552
Flags: W
HStem: -10.6455 39.9248<208.825 354.919> 376.557 34.6523<194.513 346.366>
VStem: 34.0566 82.8096<121.19 287.212> 428.578 90.2979<122.314 305.552>
LayerCount: 2
Fore
SplineSet
245.309570312 376.556640625 m 0
 172.473632812 376.556640625 116.866210938 293.08203125 116.866210938 213.665039062 c 0
 116.866210938 75.037109375 224.669921875 29.279296875 284.595703125 29.279296875 c 0
 359.724609375 29.279296875 428.578125 83.166015625 428.578125 213.994140625 c 0
 428.578125 350.482421875 334.955078125 376.556640625 245.309570312 376.556640625 c 0
124.388671875 454.708007812 m 1
 173.366210938 430.1484375 244.943359375 411.208984375 312.025390625 411.208984375 c 2
 346.33984375 411.208984375 l 2
 432.93359375 411.208984375 518.875976562 348.71875 518.875976562 234.783203125 c 0
 518.875976562 114.795898438 460.512695312 41.197265625 375.30859375 11.3916015625 c 0
 340.100585938 -0.923828125 284.150390625 -10.6455078125 248.719726562 -10.6455078125 c 0
 123.497070312 -10.6455078125 34.056640625 74.3837890625 34.056640625 183.323242188 c 0
 34.056640625 281.903320312 78.3779296875 349.833984375 159.40625 379.59375 c 1
 123.967773438 382.74609375 70.408203125 397.11328125 38.5732421875 409.737304688 c 1
 38.5732421875 425.313476562 l 1
 124.388671875 454.708007812 l 1
EndSplineSet
Validated: 1
EndChar

StartChar: e
Encoding: 101 101 30
Width: 599
Flags: W
HStem: 155.644 35.8916<201.913 285.216 366.477 555.184> 366.66 35.8926<225.274 284.636> 412.688 20G<352.486 369.573>
VStem: 285.216 81.2607<-207.307 155.644 191.535 366.429>
LayerCount: 2
Fore
SplineSet
170.145507812 468.166015625 m 1
 225.274414062 402.552734375 l 1
 268.016601562 402.552734375 l 1
 304.359375 415.452148438 334.366210938 424.4140625 370.60546875 432.688476562 c 1
 368.541015625 415.484375 366.4765625 369.188476562 366.4765625 331.711914062 c 2
 366.4765625 191.53515625 l 1
 467.358398438 191.53515625 l 2
 490.802734375 191.53515625 558.375976562 196.64453125 574.43359375 197.861328125 c 1
 556.155273438 144.9375 l 1
 535.852539062 150.443359375 487.955078125 155.643554688 466.872070312 155.643554688 c 2
 366.4765625 155.643554688 l 1
 366.4765625 -204.016601562 l 1
 344.7421875 -215.749023438 312.302734375 -227.295898438 285.215820312 -233.053710938 c 1
 285.215820312 155.643554688 l 1
 48.396484375 155.643554688 l 2
 34.626953125 155.643554688 32.3271484375 159.583007812 41.572265625 168.211914062 c 0
 68.04296875 192.916992188 114.838867188 232.163085938 146.784179688 257.1484375 c 1
 201.913085938 191.53515625 l 1
 285.215820312 191.53515625 l 1
 285.215820312 366.66015625 l 1
 71.7578125 366.66015625 l 2
 57.98828125 366.66015625 55.6884765625 370.600585938 64.93359375 379.229492188 c 0
 91.404296875 403.93359375 138.200195312 443.180664062 170.145507812 468.166015625 c 1
EndSplineSet
Validated: 1
EndChar

StartChar: f
Encoding: 102 102 31
Width: 530
Flags: W
HStem: -20.79 21G<54.3193 85.8052> 370.873 42.7896<241.164 384.698>
VStem: 54.3193 81.2607<37.9395 321.603 358.646 548.572> 417.396 84.1846<196.833 339.387>
LayerCount: 2
Fore
SplineSet
301.584960938 370.873046875 m 0
 241.453125 370.873046875 159.646484375 329.224609375 135.580078125 305.354492188 c 1
 135.580078125 37.939453125 l 1
 266.973632812 42.638671875 417.396484375 131.451171875 417.396484375 272.389648438 c 0
 417.396484375 351.904296875 364.359375 370.873046875 301.584960938 370.873046875 c 0
135.580078125 615.809570312 m 1
 135.580078125 358.646484375 l 1
 221.341796875 388.108398438 287.282226562 406.296875 313.267578125 412.763671875 c 1
 322.61189378 413.361460348 331.671867401 413.662629343 340.432742708 413.662629343 c 0
 440.528858894 413.662629343 501.581054688 374.348404692 501.581054688 288.934570312 c 0
 501.581054688 157.54296875 387.307617188 77.0380859375 290.940429688 39.044921875 c 0
 217.883789062 10.2421875 117.291015625 -13.09375 54.3193359375 -20.7900390625 c 1
 54.3193359375 548.572265625 l 1
 18.3056640625 588.875 l 1
 49.4814453125 598.60546875 102.51171875 611.29296875 135.580078125 615.809570312 c 1
EndSplineSet
Validated: 1
EndChar

StartChar: g
Encoding: 103 103 32
Width: 472
Flags: W
HStem: -14.0391 21G<297.643 354.427> 58.501 19.4648<198.721 249.817> 366.661 35.8916<139.836 335.827> 412.692 20G<403.677 420.765> 494.231 106.453<200.21 285.515>
VStem: 54.3242 81.2617<-207.306 353.826> 189.636 106.453<504.806 590.11> 336.406 81.2607<73.1898 366.433>
LayerCount: 2
Fore
SplineSet
113.330078125 446.389648438 m 1
 139.8359375 402.552734375 l 1
 319.208007812 402.556640625 l 1
 355.548828125 415.456054688 385.557617188 424.41796875 421.796875 432.692382812 c 1
 419.732421875 415.48828125 417.666992188 369.192382812 417.666992188 331.715820312 c 2
 417.666992188 78.619140625 l 2
 417.666992188 19.5888671875 403.77734375 -3.4482421875 305.077148438 -14.0390625 c 1
 290.208007812 39.8466796875 269.818359375 49.8857421875 198.720703125 58.5009765625 c 1
 198.720703125 77.9658203125 l 1
 217.057509179 77.1542321928 235.726503076 75.9673981387 252.933139438 74.8735297651 c 0
 276.03775578 73.4047122362 296.50568178 72.103515625 309.9921875 72.103515625 c 0
 329.43359375 72.103515625 336.40625 77.787109375 336.40625 94.0888671875 c 2
 336.40625 366.665039062 l 1
 334.5703125 366.665039062 l 1
 135.5859375 366.661132812 l 1
 135.5859375 -204.015625 l 1
 113.850585938 -215.749023438 81.41015625 -227.295898438 54.32421875 -233.053710938 c 1
 54.32421875 353.826171875 l 1
 12.5966796875 398.587890625 l 1
 35.5810546875 411.521484375 86.134765625 436.435546875 113.330078125 446.389648438 c 1
296.088867188 547.458007812 m 0
 296.088867188 518.061523438 272.258789062 494.231445312 242.862304688 494.231445312 c 0
 213.465820312 494.231445312 189.635742188 518.061523438 189.635742188 547.458007812 c 0
 189.635742188 576.854492188 213.465820312 600.684570312 242.862304688 600.684570312 c 0
 272.258789062 600.684570312 296.088867188 576.854492188 296.088867188 547.458007812 c 0
EndSplineSet
Validated: 1
EndChar

StartChar: h
Encoding: 104 104 33
Width: 530
Flags: W
HStem: -218.401 106.453<209.625 294.929> -20.79 21G<54.3193 85.8047> 370.873 42.7896<241.164 384.698>
VStem: 54.3193 81.2607<37.9395 321.603 358.646 548.572> 199.051 106.453<-207.827 -122.523> 417.396 84.1846<196.833 339.387>
LayerCount: 2
Fore
SplineSet
301.584960938 370.873046875 m 0
 241.452148438 370.873046875 159.646484375 329.224609375 135.580078125 305.354492188 c 1
 135.580078125 37.939453125 l 1
 266.973632812 42.638671875 417.396484375 131.450195312 417.396484375 272.389648438 c 0
 417.396484375 351.904296875 364.359375 370.873046875 301.584960938 370.873046875 c 0
135.580078125 615.809570312 m 1
 135.580078125 358.646484375 l 1
 221.340820312 388.108398438 287.282226562 406.296875 313.267578125 412.763671875 c 1
 322.61189378 413.361460348 331.671867401 413.662629343 340.432742708 413.662629343 c 0
 440.528858894 413.662629343 501.581054688 374.348404692 501.581054688 288.934570312 c 0
 501.581054688 157.54296875 387.306640625 77.0380859375 290.940429688 39.044921875 c 0
 217.883789062 10.2421875 117.290039062 -13.09375 54.3193359375 -20.7900390625 c 1
 54.3193359375 548.572265625 l 1
 18.3046875 588.875 l 1
 49.4814453125 598.60546875 102.51171875 611.29296875 135.580078125 615.809570312 c 1
305.50390625 -165.174804688 m 0
 305.50390625 -194.571289062 281.672851562 -218.401367188 252.27734375 -218.401367188 c 0
 222.880859375 -218.401367188 199.05078125 -194.571289062 199.05078125 -165.174804688 c 0
 199.05078125 -135.779296875 222.880859375 -111.948242188 252.27734375 -111.948242188 c 0
 281.672851562 -111.948242188 305.50390625 -135.779296875 305.50390625 -165.174804688 c 0
EndSplineSet
Validated: 1
EndChar

StartChar: i
Encoding: 105 105 34
Width: 366
Flags: W
HStem: -153.296 19.4639<54.1514 122.208> -12.1865 21G<106.304 116.246> 366.666 35.8877<156.631 230.184> 412.693 20G<298.035 315.121>
VStem: 106.304 59.6553<5.91434 244.021> 230.765 81.2549<-138.607 366.434>
LayerCount: 2
Fore
SplineSet
165.958984375 293.379882812 m 1
 165.958984375 9.1298828125 l 1
 150.001953125 0.5166015625 126.188476562 -7.9599609375 106.303710938 -12.1865234375 c 1
 106.303710938 244.021484375 l 1
 79.86328125 273.606445312 l 1
 102.756835938 280.75 141.681640625 290.063476562 165.958984375 293.379882812 c 1
114.586914062 452.595703125 m 1
 156.630859375 402.553710938 l 1
 213.564453125 402.557617188 l 1
 249.907226562 415.45703125 279.915039062 424.419921875 316.154296875 432.693359375 c 1
 314.086914062 415.489257812 312.01953125 369.193359375 312.01953125 331.716796875 c 2
 312.01953125 -133.177734375 l 2
 312.01953125 -192.208984375 298.129882812 -215.245117188 199.432617188 -225.836914062 c 1
 199.292986423 -225.330859156 199.154704605 -224.829309725 199.017650342 -224.332212645 c 0
 184.560891557 -171.897414875 183.76246021 -169.001496999 54.1513671875 -153.295898438 c 1
 54.1513671875 -133.83203125 l 1
 57.6132472862 -133.985186016 61.3644948064 -134.151730256 65.3463117227 -134.328511092 c 0
 110.772082688 -136.34528031 186.206313138 -139.694335938 204.346679688 -139.694335938 c 0
 223.790039062 -139.694335938 230.764648438 -134.006835938 230.764648438 -117.705078125 c 2
 230.764648438 366.666015625 l 1
 38.1279296875 366.662109375 l 2
 25.8349609375 366.662109375 23.783203125 371.94921875 31.3017578125 379.23046875 c 0
 56.939453125 404.052734375 86.6533203125 430.1015625 114.586914062 452.595703125 c 1
EndSplineSet
Validated: 1
EndChar

StartChar: j
Encoding: 106 106 35
Width: 599
Flags: W
HStem: 366.66 35.8926<201.916 285.215 366.477 555.187>
VStem: 285.215 81.2617<-207.308 366.66>
LayerCount: 2
Fore
SplineSet
146.788085938 468.166015625 m 1
 201.916015625 402.552734375 l 1
 467.362304688 402.552734375 l 2
 490.805664062 402.552734375 558.37890625 407.662109375 574.4375 408.87890625 c 1
 556.159179688 355.955078125 l 1
 535.856445312 361.4609375 487.958984375 366.66015625 466.875976562 366.66015625 c 2
 366.4765625 366.66015625 l 1
 366.4765625 -204.017578125 l 1
 344.743164062 -215.750976562 312.301757812 -227.296875 285.21484375 -233.0546875 c 1
 285.21484375 366.66015625 l 1
 48.3994140625 366.66015625 l 2
 34.6298828125 366.66015625 32.330078125 370.600585938 41.5751953125 379.229492188 c 0
 68.046875 403.93359375 114.841796875 443.180664062 146.788085938 468.166015625 c 1
EndSplineSet
Validated: 1
EndChar

StartChar: k
Encoding: 107 107 36
Width: 190
Flags: W
HStem: -20.7891 21G<54.3174 67.8613> 412.689 20G<119.046 135.58> 494.263 106.39<0.0219756 77.2885 112.608 189.876>
VStem: -9.55566 96.4238<503.348 591.567> 54.3174 81.2627<4.95759 365.452> 103.03 96.4238<503.348 591.567>
LayerCount: 2
Fore
SplineSet
135.580078125 432.689453125 m 1xe8
 135.580078125 8.248046875 l 1
 113.84765625 -3.4853515625 81.4052734375 -15.03125 54.3173828125 -20.7890625 c 1
 54.3173828125 365.452148438 l 1
 18.3056640625 405.75390625 l 1
 49.484375 415.484375 102.51171875 428.171875 135.580078125 432.689453125 c 1xe8
199.454101562 547.458007812 m 0xe4
 199.454101562 518.079101562 177.870117188 494.263671875 151.241210938 494.263671875 c 0
 124.616210938 494.263671875 103.030273438 518.079101562 103.030273438 547.458007812 c 0
 103.030273438 576.8359375 124.616210938 600.65234375 151.241210938 600.65234375 c 0
 177.870117188 600.65234375 199.454101562 576.8359375 199.454101562 547.458007812 c 0xe4
86.8681640625 547.458007812 m 0xf0
 86.8681640625 518.079101562 65.27734375 494.262695312 38.65625 494.262695312 c 0
 12.0283203125 494.262695312 -9.5556640625 518.079101562 -9.5556640625 547.458007812 c 0
 -9.5556640625 576.8359375 12.0283203125 600.65234375 38.65625 600.65234375 c 0
 65.27734375 600.65234375 86.8681640625 576.8359375 86.8681640625 547.458007812 c 0xf0
EndSplineSet
Validated: 1
EndChar

StartChar: l
Encoding: 108 108 37
Width: 190
Flags: W
HStem: -20.7891 21G<54.3164 67.8604> 412.689 20G<119.045 135.579>
VStem: 54.3164 81.2627<4.95759 365.452>
LayerCount: 2
Fore
SplineSet
94.9375 -253.331054688 m 0
 93.5078125 -253.331054688 92 -252.171875 90.6484375 -249.456054688 c 0
 73.521484375 -215.03125 43.09375 -150.5234375 24.8681640625 -108.059570312 c 1
 37.0751953125 -108.059570312 l 1
 94.9375 -137.096679688 l 1
 152.798828125 -108.059570312 l 1
 165.005859375 -108.059570312 l 1
 146.780273438 -150.5234375 116.353515625 -215.03125 99.2255859375 -249.456054688 c 0
 97.8779296875 -252.165039062 96.3662109375 -253.331054688 94.9375 -253.331054688 c 0
135.579101562 432.689453125 m 1
 135.579101562 8.248046875 l 1
 113.84765625 -3.4853515625 81.404296875 -15.03125 54.31640625 -20.7890625 c 1
 54.31640625 365.452148438 l 1
 18.3056640625 405.75390625 l 1
 49.4833984375 415.485351562 102.510742188 428.172851562 135.579101562 432.689453125 c 1
EndSplineSet
Validated: 1
EndChar

StartChar: m
Encoding: 109 109 38
Width: 190
Flags: W
HStem: -218.401 106.453<57.1565 142.462> -20.7891 21G<54.3174 67.8613> 412.689 20G<119.046 135.58>
VStem: 46.582 106.454<-207.827 -122.523> 54.3174 81.2627<4.95759 365.452>
LayerCount: 2
Fore
SplineSet
153.036132812 -165.174804688 m 0xf0
 153.036132812 -194.571289062 129.205078125 -218.401367188 99.8095703125 -218.401367188 c 0
 70.4130859375 -218.401367188 46.58203125 -194.571289062 46.58203125 -165.174804688 c 0
 46.58203125 -135.779296875 70.4130859375 -111.948242188 99.8095703125 -111.948242188 c 0
 129.205078125 -111.948242188 153.036132812 -135.779296875 153.036132812 -165.174804688 c 0xf0
135.580078125 432.689453125 m 1xe8
 135.580078125 8.248046875 l 1
 113.84765625 -3.4853515625 81.4052734375 -15.03125 54.3173828125 -20.7890625 c 1
 54.3173828125 365.452148438 l 1
 18.3056640625 405.75390625 l 1
 49.484375 415.485351562 102.51171875 428.172851562 135.580078125 432.689453125 c 1xe8
EndSplineSet
Validated: 1
EndChar

StartChar: n
Encoding: 110 110 39
Width: 191
Flags: W
HStem: 412.688 20G<119.048 135.582>
VStem: 54.3213 81.2607<-207.309 365.451>
LayerCount: 2
Fore
SplineSet
135.58203125 432.688476562 m 1
 135.58203125 -204.018554688 l 1
 113.84765625 -215.751953125 81.408203125 -227.298828125 54.3212890625 -233.055664062 c 1
 54.3212890625 365.451171875 l 1
 18.3076171875 405.75390625 l 1
 49.484375 415.483398438 102.513671875 428.171875 135.58203125 432.688476562 c 1
EndSplineSet
Validated: 1
EndChar

StartChar: o
Encoding: 111 111 40
Width: 463
Flags: W
HStem: -20.793 21G<327.693 341.237> 164.932 106.453<141.87 227.175> 366.66 35.8926<180.539 327.116> 412.688 20G<394.965 412.051>
VStem: 131.296 106.454<175.506 260.811> 327.693 81.2617<4.95368 366.428>
LayerCount: 2
Fore
SplineSet
237.75 218.158203125 m 0
 237.75 188.76171875 213.918945312 164.931640625 184.522460938 164.931640625 c 0
 155.126953125 164.931640625 131.295898438 188.76171875 131.295898438 218.158203125 c 0
 131.295898438 247.5546875 155.126953125 271.384765625 184.522460938 271.384765625 c 0
 213.918945312 271.384765625 237.75 247.5546875 237.75 218.158203125 c 0
125.411132812 468.166015625 m 1
 180.5390625 402.552734375 l 1
 310.496891925 402.552734375 l 1
 346.837452128 415.451624241 376.846617592 424.414271309 413.083007812 432.688476562 c 1
 411.01953125 415.483398438 408.955078125 369.1875 408.955078125 331.7109375 c 2
 408.955078125 8.244140625 l 1
 387.220703125 -3.4892578125 354.780273438 -15.03515625 327.693359375 -20.79296875 c 1
 327.693359375 366.66015625 l 1
 27.0224609375 366.66015625 l 2
 13.2529296875 366.66015625 10.953125 370.600585938 20.1982421875 379.229492188 c 0
 46.6689453125 403.93359375 93.46484375 443.180664062 125.411132812 468.166015625 c 1
EndSplineSet
Validated: 1
EndChar

StartChar: p
Encoding: 112 112 41
Width: 423
Flags: W
HStem: -20.793 21G<54.3232 67.8667> 366.661 35.8916<141.084 286.867> 412.688 20G<354.716 371.802>
VStem: 54.3232 81.2607<4.95368 355.891> 287.444 81.2617<-207.308 366.428>
LayerCount: 2
Fore
SplineSet
135.583984375 366.661132812 m 1
 135.583984375 8.244140625 l 1
 113.849609375 -3.4892578125 81.41015625 -15.03515625 54.3232421875 -20.79296875 c 1
 54.3232421875 355.890625 l 1
 12.595703125 400.651367188 l 1
 35.580078125 413.584960938 86.130859375 438.50390625 113.325195312 448.458007812 c 1
 141.08376021 402.552734375 l 1
 270.247868487 402.552734375 l 1
 306.58842869 415.451624241 336.597594154 424.414271309 372.833984375 432.688476562 c 1
 370.770507812 415.483398438 368.706054688 369.1875 368.706054688 331.7109375 c 2
 368.706054688 -204.017578125 l 1
 346.971679688 -215.750976562 314.53125 -227.297851562 287.444335938 -233.055664062 c 1
 287.444335938 366.66015625 l 1
 287.44386797 366.661132812 l 1
 135.583984375 366.661132812 l 1
EndSplineSet
Validated: 1
EndChar

StartChar: q
Encoding: 113 113 42
Width: 815
Flags: W
HStem: -21.2556 45.2498<366.186 507.068> 366.66 35.8926<186.138 237.956 319.218 541.371 622.632 765.489> 496.435 35.8926<369.046 611.114>
VStem: 237.956 81.2617<73.0046 366.66> 541.371 81.2607<55.2939 366.66>
LayerCount: 2
Fore
SplineSet
131.009765625 468.166015625 m 1
 186.137695312 402.552734375 l 1
 677.665039062 402.551757812 l 2
 701.109375 402.551757812 768.677734375 407.661132812 784.735351562 408.877929688 c 1
 766.4609375 355.955078125 l 1
 746.16015625 361.459960938 698.260742188 366.66015625 677.177734375 366.66015625 c 2
 622.631835938 366.66015625 l 1
 622.631835938 55.2939453125 l 1
 656.474609375 9.521484375 l 1
 630.875 -3.103515625 592.400390625 -13.9580078125 559.09765625 -19.515625 c 1
 548.2681967 15.4378994674 l 1
 528.161900738 7.78679401685 494.501396538 -4.41173795388 476.72265625 -9.17578125 c 0
 446.403447723 -17.2997213573 418.314185861 -21.2556356606 392.850042698 -21.2556356606 c 0
 296.682550861 -21.2556356606 237.956054688 35.1659541058 237.956054688 136.583984375 c 2
 237.956054688 366.66015625 l 1
 32.62109375 366.66015625 l 2
 18.8515625 366.66015625 16.5517578125 370.600585938 25.796875 379.228515625 c 0
 52.267578125 403.93359375 99.0634765625 443.180664062 131.009765625 468.166015625 c 1
313.91796875 597.940429688 m 1
 369.045898438 532.327148438 l 1
 523.2890625 532.327148438 l 2
 546.732421875 532.327148438 614.305664062 537.436523438 630.364257812 538.653320312 c 1
 612.0859375 485.729492188 l 1
 591.784179688 491.234375 543.885742188 496.434570312 522.802734375 496.434570312 c 2
 215.529296875 496.434570312 l 2
 201.759765625 496.434570312 199.459960938 500.375 208.705078125 509.00390625 c 0
 235.176757812 533.708007812 281.971679688 572.955078125 313.91796875 597.940429688 c 1
541.37109375 62.6760841942 m 1
 541.37109375 366.66015625 l 1
 319.217773438 366.66015625 l 1
 319.217773438 160.139648438 l 2
 319.217773438 77.666015625 357.221679688 23.994140625 440.64453125 23.994140625 c 0
 473.685480806 23.994140625 498.835713065 27.2689771824 541.37109375 62.6760841942 c 1
EndSplineSet
Validated: 1
EndChar

StartChar: r
Encoding: 114 114 43
Width: 501
Flags: W
HStem: -10.7051 21G<441.679 458.738> -9.75608e-15 35.8926<135.582 450.858> 366.66 35.8926<141.082 443.438>
VStem: 54.3203 81.2617<-37.1408 -7.10543e-15 35.8926 355.891>
LayerCount: 2
Fore
SplineSet
113.322265625 448.458007812 m 1x70
 141.08203125 402.552734375 l 1
 355.61328125 402.552734375 l 2
 379.056640625 402.552734375 446.629882812 407.662109375 462.688476562 408.87890625 c 1
 444.409179688 355.955078125 l 1
 424.108398438 361.4609375 376.209960938 366.66015625 355.126953125 366.66015625 c 2
 135.58203125 366.66015625 l 1
 135.58203125 35.892578125 l 1
 363.034179688 35.892578125 l 2
 386.477539062 35.892578125 454.05078125 41.001953125 470.109375 42.2177734375 c 1
 451.830078125 -10.705078125 l 1xb0
 431.528320312 -5.2001953125 383.630859375 0 362.547851562 0 c 2
 135.58203125 -9.75608482889e-15 l 1
 135.58203125 -33.8505859375 l 1
 113.84765625 -45.5830078125 81.4072265625 -57.1298828125 54.3203125 -62.8876953125 c 1
 54.3203125 355.890625 l 1
 12.5927734375 400.651367188 l 1
 35.5771484375 413.584960938 86.1279296875 438.50390625 113.322265625 448.458007812 c 1x70
EndSplineSet
Validated: 1
EndChar

StartChar: s
Encoding: 115 115 44
Width: 190
Flags: W
HStem: -20.7891 21G<54.3174 67.8608> 412.689 20G<119.045 135.58>
VStem: 54.3174 81.2627<4.95759 365.452>
LayerCount: 2
Fore
SplineSet
135.580078125 432.689453125 m 1
 135.580078125 8.248046875 l 1
 113.84765625 -3.4853515625 81.404296875 -15.03125 54.3173828125 -20.7890625 c 1
 54.3173828125 365.452148438 l 1
 18.3056640625 405.75390625 l 1
 49.4833984375 415.485351562 102.510742188 428.172851562 135.580078125 432.689453125 c 1
EndSplineSet
Validated: 1
EndChar

StartChar: t
Encoding: 116 116 45
Width: 552
Flags: W
HStem: -10.6455 39.9248<208.824 354.919> 155.258 106.453<229.921 315.225> 376.557 34.6523<194.512 346.366>
VStem: 34.0566 82.8086<121.19 287.212> 219.347 106.453<165.832 251.136> 428.578 90.2979<122.314 305.552>
LayerCount: 2
Fore
SplineSet
245.30859375 376.556640625 m 0
 172.47265625 376.556640625 116.865234375 293.08203125 116.865234375 213.665039062 c 0
 116.865234375 75.037109375 224.669921875 29.279296875 284.595703125 29.279296875 c 0
 359.724609375 29.279296875 428.578125 83.166015625 428.578125 213.994140625 c 0
 428.578125 350.482421875 334.954101562 376.556640625 245.30859375 376.556640625 c 0
124.388671875 454.708007812 m 1
 173.366210938 430.1484375 244.943359375 411.208984375 312.025390625 411.208984375 c 2
 346.33984375 411.208984375 l 2
 432.93359375 411.208984375 518.875976562 348.71875 518.875976562 234.783203125 c 0
 518.875976562 114.795898438 460.512695312 41.197265625 375.30859375 11.3916015625 c 0
 340.100585938 -0.923828125 284.150390625 -10.6455078125 248.719726562 -10.6455078125 c 0
 123.497070312 -10.6455078125 34.056640625 74.3837890625 34.056640625 183.323242188 c 0
 34.056640625 281.903320312 78.376953125 349.833984375 159.40625 379.59375 c 1
 123.967773438 382.74609375 70.4072265625 397.11328125 38.5732421875 409.737304688 c 1
 38.5732421875 425.313476562 l 1
 124.388671875 454.708007812 l 1
325.799804688 208.484375 m 0
 325.799804688 179.087890625 301.96875 155.2578125 272.573242188 155.2578125 c 0
 243.176757812 155.2578125 219.346679688 179.087890625 219.346679688 208.484375 c 0
 219.346679688 237.879882812 243.176757812 261.7109375 272.573242188 261.7109375 c 0
 301.96875 261.7109375 325.799804688 237.879882812 325.799804688 208.484375 c 0
EndSplineSet
Validated: 1
EndChar

StartChar: u
Encoding: 117 117 46
Width: 190
Flags: W
HStem: 412.69 20G<119.043 135.577> 494.231 106.453<52.2936 137.596>
VStem: 41.7197 106.452<504.806 590.11> 54.3145 81.2627<-207.308 365.453>
LayerCount: 2
Fore
SplineSet
135.577148438 432.690429688 m 1xd0
 135.577148438 -204.017578125 l 2
 113.845703125 -215.75 81.40234375 -227.296875 54.314453125 -233.0546875 c 1
 54.314453125 365.453125 l 1
 18.3037109375 405.754882812 l 1
 49.4814453125 415.485351562 102.508789062 428.173828125 135.577148438 432.690429688 c 1xd0
148.171875 547.458007812 m 0xe0
 148.171875 518.061523438 124.3359375 494.231445312 94.9462890625 494.231445312 c 0
 65.548828125 494.231445312 41.7197265625 518.061523438 41.7197265625 547.458007812 c 0
 41.7197265625 576.854492188 65.548828125 600.684570312 94.9462890625 600.684570312 c 0
 124.3359375 600.684570312 148.171875 576.854492188 148.171875 547.458007812 c 0xe0
EndSplineSet
Validated: 1
EndChar

StartChar: v
Encoding: 118 118 47
Width: 530
Flags: W
HStem: -20.79 21G<54.3076 85.7944> 370.873 42.7896<241.156 384.691>
VStem: 54.3076 81.2627<37.9395 321.603 358.646 548.572> 417.393 84.1826<196.833 339.387>
LayerCount: 2
Fore
SplineSet
262.1875 -253.791992188 m 0
 260.759765625 -253.791992188 259.251953125 -252.6328125 257.905273438 -249.916015625 c 0
 240.771484375 -215.4921875 210.34375 -150.984375 192.12109375 -108.51953125 c 1
 204.326171875 -108.51953125 l 1
 262.1875 -137.557617188 l 1
 320.0546875 -108.51953125 l 1
 332.259765625 -108.51953125 l 1
 314.037109375 -150.984375 283.610351562 -215.4921875 266.475585938 -249.916015625 c 0
 265.129882812 -252.625976562 263.622070312 -253.791992188 262.1875 -253.791992188 c 0
301.575195312 370.873046875 m 0
 241.448242188 370.873046875 159.641601562 329.224609375 135.5703125 305.354492188 c 1
 135.5703125 37.939453125 l 1
 266.96875 42.638671875 417.392578125 131.450195312 417.392578125 272.389648438 c 0
 417.392578125 351.904296875 364.349609375 370.873046875 301.575195312 370.873046875 c 0
135.5703125 615.809570312 m 1
 135.5703125 358.646484375 l 1
 221.334960938 388.108398438 287.2734375 406.296875 313.2578125 412.763671875 c 1
 322.602521127 413.361460348 331.662849767 413.662629343 340.424045706 413.662629343 c 0
 440.523825218 413.662629343 501.575195312 374.348404692 501.575195312 288.934570312 c 0
 501.575195312 157.54296875 387.295898438 77.0380859375 290.9296875 39.044921875 c 0
 217.877929688 10.2421875 117.28125 -13.09375 54.3076171875 -20.7900390625 c 1
 54.3076171875 548.572265625 l 1
 18.296875 588.875 l 1
 49.474609375 598.60546875 102.501953125 611.29296875 135.5703125 615.809570312 c 1
EndSplineSet
Validated: 1
EndChar

StartChar: w
Encoding: 119 119 48
Width: 677
Flags: W
HStem: -21.2556 45.2498<366.194 507.045> 366.66 35.8926<186.141 237.969 319.224 540.795> 412.688 20G<608.645 625.731>
VStem: 237.969 81.2549<73.0046 366.66> 541.375 81.2627<-207.309 12.833 47.1168 366.428>
LayerCount: 2
Fore
SplineSet
541.375 12.833032175 m 1
 500.100550909 -2.61831130713 450.070715805 -21.2556356606 392.858506873 -21.2556356606 c 0
 296.69158336 -21.2556356606 237.96875 35.1659541058 237.96875 136.583984375 c 2
 237.96875 366.66015625 l 1
 32.626953125 366.66015625 l 2
 18.85546875 366.66015625 16.560546875 370.600585938 25.80078125 379.229492188 c 0
 52.27734375 403.93359375 99.06640625 443.180664062 131.016601562 468.166015625 c 1
 186.140625 402.552734375 l 1
 524.175249578 402.551915721 l 1
 560.517823019 415.451245013 590.5255385 424.413119701 626.764648438 432.6875 c 1
 624.697265625 415.483398438 622.637695312 369.1875 622.637695312 331.7109375 c 2
 622.637695312 -204.018554688 l 1
 600.8984375 -215.751953125 568.462890625 -227.297851562 541.375 -233.055664062 c 1
 541.375 12.833032175 l 1
319.223632812 366.66015625 m 1
 319.223632812 160.139648438 l 2
 319.223632812 77.666015625 357.228515625 23.994140625 440.654296875 23.994140625 c 0
 473.694807687 23.994140625 498.843292441 27.2685982269 541.375 62.6699385127 c 1
 541.375 366.66015625 l 1
 319.223632812 366.66015625 l 1
EndSplineSet
Validated: 1
EndChar

StartChar: x
Encoding: 120 120 49
Width: 355
Flags: W
HStem: -153.298 19.4648<42.8232 111.377> 366.665 35.8877<145.303 218.856> 412.692 20G<286.707 303.792> 494.231 106.453<135.211 220.514>
VStem: 124.638 106.452<504.806 590.11> 219.437 81.2549<-138.608 366.433>
LayerCount: 2
Fore
SplineSet
231.08984375 547.458007812 m 0xf8
 231.08984375 518.061523438 207.25390625 494.231445312 177.864257812 494.231445312 c 0
 148.465820312 494.231445312 124.637695312 518.061523438 124.637695312 547.458007812 c 0
 124.637695312 576.854492188 148.465820312 600.684570312 177.864257812 600.684570312 c 0
 207.25390625 600.684570312 231.08984375 576.854492188 231.08984375 547.458007812 c 0xf8
103.258789062 452.594726562 m 1
 145.302734375 402.552734375 l 1
 202.236328125 402.556640625 l 2
 238.579101562 415.456054688 268.586914062 424.41796875 304.826171875 432.692382812 c 1
 302.758789062 415.48828125 300.69140625 369.192382812 300.69140625 331.715820312 c 2
 300.69140625 -133.178710938 l 2
 300.69140625 -192.209960938 286.802734375 -215.24609375 188.104492188 -225.837890625 c 1
 173.236328125 -171.952148438 173.663085938 -169.151367188 42.8232421875 -153.297851562 c 1
 42.8232421875 -133.833007812 l 1
 85.779296875 -135.733398438 173.288085938 -139.6953125 193.018554688 -139.6953125 c 0
 212.462890625 -139.6953125 219.436523438 -134.0078125 219.436523438 -117.706054688 c 2
 219.436523438 366.665039062 l 1xf4
 26.80078125 366.661132812 l 2
 14.5078125 366.66015625 12.455078125 371.948242188 19.9736328125 379.229492188 c 0
 45.611328125 404.05078125 75.3251953125 430.099609375 103.258789062 452.594726562 c 1
EndSplineSet
Validated: 1
EndChar

StartChar: y
Encoding: 121 121 50
Width: 510
Flags: W
HStem: -20.793 21G<256.302 269.845> 364.596 35.8926<141.08 256.302 337.563 459.016>
VStem: 54.3223 81.2627<-207.308 353.826> 256.302 81.2617<4.95293 364.596>
LayerCount: 2
Fore
SplineSet
113.323242188 446.393554688 m 1
 141.080078125 400.48828125 l 1
 371.184570312 400.48828125 l 2
 394.629882812 400.48828125 462.201171875 405.59765625 478.26171875 406.814453125 c 1
 459.987304688 353.890625 l 1
 439.682617188 359.396484375 391.783203125 364.595703125 370.698242188 364.595703125 c 2
 337.563476562 364.595703125 l 1
 337.563476562 8.2431640625 l 1
 315.83203125 -3.4892578125 283.388671875 -15.0361328125 256.301757812 -20.79296875 c 1
 256.301757812 364.595703125 l 1
 135.584960938 364.595703125 l 1
 135.584960938 -204.017578125 l 1
 113.845703125 -215.750976562 81.4091796875 -227.297851562 54.322265625 -233.055664062 c 1
 54.322265625 353.826171875 l 1
 12.5947265625 398.586914062 l 1
 35.5771484375 411.520507812 86.125 436.439453125 113.323242188 446.393554688 c 1
EndSplineSet
Validated: 1
EndChar

StartChar: z
Encoding: 122 122 51
Width: 355
Flags: W
HStem: -153.297 19.4648<42.8242 110.881> 366.665 35.8877<145.303 218.857> 412.693 20G<286.707 303.793>
VStem: 219.437 81.2559<-138.608 366.433>
LayerCount: 2
Fore
SplineSet
103.259765625 452.594726562 m 1
 145.302734375 402.552734375 l 1
 202.237304688 402.556640625 l 1
 238.579101562 415.456054688 268.586914062 424.418945312 304.826171875 432.693359375 c 1
 302.759765625 415.48828125 300.692382812 369.192382812 300.692382812 331.715820312 c 2
 300.692382812 -133.178710938 l 2
 300.692382812 -192.209960938 286.802734375 -215.24609375 188.104492188 -225.836914062 c 1
 187.964891386 -225.330967748 187.826638952 -224.829525061 187.689613572 -224.33253291 c 0
 173.232769891 -171.89744491 172.434608051 -169.002505511 42.82421875 -153.296875 c 1
 42.82421875 -133.83203125 l 1
 46.1954412208 -133.981251932 49.8410679816 -134.143157971 53.7068013411 -134.31483917 c 0
 99.0981713142 -136.330716655 174.836547501 -139.694335938 193.018554688 -139.694335938 c 0
 212.462890625 -139.694335938 219.436523438 -134.006835938 219.436523438 -117.706054688 c 2
 219.436523438 366.665039062 l 1
 26.80078125 366.661132812 l 2
 14.5078125 366.661132812 12.455078125 371.948242188 19.9736328125 379.229492188 c 0
 45.6123046875 404.051757812 75.326171875 430.100585938 103.259765625 452.594726562 c 1
EndSplineSet
Validated: 1
EndChar

StartChar: zero
Encoding: 48 48 52
Width: 473
VWidth: 800
Flags: W
HStem: -13.1807 30.4502<183.261 290.011> 384.77 30.4512<182.272 291>
VStem: 29.4932 69.6465<104.179 300.265> 374.127 69.6465<104.179 300.265>
LayerCount: 2
Fore
SplineSet
236.63671875 384.76953125 m 0
 165.467773438 384.76953125 99.1396484375 318.828125 99.1396484375 201.01953125 c 0
 99.1396484375 83.2109375 166.063476562 17.26953125 236.63671875 17.26953125 c 0
 307.209960938 17.26953125 374.126953125 83.2109375 374.126953125 201.01953125 c 0
 374.126953125 318.828125 307.805664062 384.76953125 236.63671875 384.76953125 c 0
236.63671875 415.220703125 m 0
 343.927734375 415.220703125 443.7734375 335.168945312 443.7734375 201.01953125 c 0
 443.7734375 66.8701171875 339.057617188 -13.1806640625 236.63671875 -13.1806640625 c 0
 134.215820312 -13.1806640625 29.4931640625 66.8701171875 29.4931640625 201.01953125 c 0
 29.4931640625 335.168945312 129.345703125 415.220703125 236.63671875 415.220703125 c 0
EndSplineSet
Validated: 1
EndChar

StartChar: one
Encoding: 49 49 53
Width: 270
VWidth: 800
Flags: W
HStem: 0 24<24 93.7678 177.355 247> 378 24<24 94.1035 176.989 247>
VStem: 95 81<24.4002 377.678>
LayerCount: 2
Fore
SplineSet
24 0 m 1
 24 24 l 1
 63 24 l 2
 87 24 95 28 95 45 c 2
 95 358 l 2
 95 375 87 378 63 378 c 2
 24 378 l 1
 24 402 l 1
 247 402 l 1
 247 378 l 1
 209 378 l 2
 185 378 176 375 176 358 c 2
 176 45 l 2
 176 28 185 24 209 24 c 2
 247 24 l 1
 247 0 l 1
 24 0 l 1
EndSplineSet
Validated: 1
EndChar

StartChar: two
Encoding: 50 50 54
Width: 335
VWidth: 800
Flags: W
HStem: 0 65<91 306.034> 362 52<82.1597 189.745>
VStem: 216 78<241.675 337.185>
LayerCount: 2
Fore
SplineSet
163 414 m 0
 235 414 294 369 294 302 c 0
 294 250 259 223 201 178 c 0
 193 172 186 164 177 158 c 0
 127 118 104 96 91 65 c 1
 277 65 l 2
 296 65 300 71 307 89 c 1
 325 89 l 1
 307 20 l 2
 305 11 304 7 303 0 c 1
 18 0 l 1
 18 17 l 1
 32 64 63 101 140 166 c 0
 182 201 216 234 216 281 c 0
 216 330 179 362 132 362 c 0
 95 362 59 343 48 313 c 1
 24 313 l 1
 39 374 94 414 163 414 c 0
EndSplineSet
Validated: 1
EndChar

StartChar: three
Encoding: 51 51 55
Width: 325
VWidth: 800
Flags: W
HStem: -243 19<8.31579 26.396> 161 17<72 95.2115> 365 49<71.2584 163.012>
VStem: 185 81<243.473 343.639> 208 82<-63.7969 88.0882>
LayerCount: 2
Fore
SplineSet
15 343 m 1xf0
 46 383 94 414 150 414 c 0
 218 414 266 370 266 309 c 0xf0
 266 257 230 217 183 190 c 1
 244 172 290 121 290 33 c 0
 290 -105 178 -209 12 -243 c 1
 2 -224 l 1
 136 -182 208 -97 208 4 c 0xe8
 208 94 150 150 72 161 c 1
 72 178 l 1
 127 193 185 231 185 290 c 0
 185 339 146 365 109 365 c 0
 79 365 51 347 34 330 c 1
 15 343 l 1xf0
EndSplineSet
Validated: 1
EndChar

StartChar: four
Encoding: 52 52 56
Width: 478
VWidth: 800
Flags: W
HStem: 19 54<84 261 342 465.204> 395 20G<303.417 342>
VStem: 261 81<-193.616 19 73 285>
LayerCount: 2
Fore
SplineSet
320 415 m 1
 342 415 l 1
 342 73 l 1
 415 73 l 2
 437 73 464 73 482 75 c 1
 490 68 l 1
 463 16 l 1
 448 18 432 19 406 19 c 2
 342 19 l 1
 342 -160 l 2
 342 -171 344 -177 346 -186 c 0
 347 -188 347 -191 348 -193 c 1
 269 -238 l 1
 259 -232 l 1
 261 -218 261 -204 261 -189 c 2
 261 19 l 1
 46 19 l 2
 20 19 17 18 2 8 c 1
 -10 17 l 1
 320 415 l 1
261 73 m 1
 261 285 l 1
 84 73 l 1
 261 73 l 1
EndSplineSet
Validated: 1
EndChar

StartChar: five
Encoding: 53 53 57
Width: 350
VWidth: 800
Flags: W
HStem: -243 19<29.3158 41.2865> 338 64<118 286.062>
VStem: 226 85<-59.7402 87.233>
LayerCount: 2
Fore
SplineSet
104 402 m 1
 254 402 l 2
 278 402 285 406 291 419 c 1
 309 419 l 1
 286 359 l 2
 284 353 281 348 279 338 c 1
 118 338 l 1
 93 249 l 1
 244 235 311 142 311 39 c 0
 311 -87 211 -207 33 -243 c 1
 23 -224 l 1
 141 -184 226 -108 226 2 c 0
 226 84 177 169 39 184 c 1
 104 402 l 1
EndSplineSet
Validated: 1
EndChar

StartChar: six
Encoding: 54 54 58
Width: 450
VWidth: 800
Flags: W
HStem: -10 36<190.732 293.184> 282 51<192.313 300.939> 578 20<362.261 384.4>
VStem: 37 86<116.842 240.905> 343 79<93.5061 236.868>
LayerCount: 2
Fore
SplineSet
123 222 m 1
 125 91 180 26 242 26 c 0
 299 26 343 81 343 154 c 0
 343 213 314 282 243 282 c 0
 201 282 158 258 123 222 c 1
125 262 m 1
 166 304 220 333 278 333 c 0
 376 333 422 250 422 178 c 0
 422 83 342 -10 234 -10 c 0
 132 -10 37 74 37 233 c 0
 37 376 114 544 383 598 c 1
 387 578 l 1
 206 529 134 404 125 262 c 1
EndSplineSet
Validated: 1
EndChar

StartChar: seven
Encoding: 55 55 59
Width: 398
VWidth: 800
Flags: W
HStem: 338 64<51.25 331>
VStem: 97 62<-212 -142.278>
LayerCount: 2
Fore
SplineSet
52 402 m 1
 392 402 l 1
 392 387 l 1
 286 165 l 2
 223 31 172 -129 159 -212 c 1
 97 -212 l 1
 115 -130 171 0 246 158 c 2
 331 338 l 1
 101 338 l 2
 75 338 62 335 53 319 c 2
 45 306 l 1
 29 306 l 1
 46 373 l 2
 46 374 l 0
 48 384 51 393 52 402 c 1
EndSplineSet
Validated: 1
EndChar

StartChar: eight
Encoding: 56 56 60
Width: 433
VWidth: 800
Flags: W
HStem: -8 34<172.011 282.577> 566 30<158.165 258.086>
VStem: 34 72<89.0986 230.57> 52 64<428.978 522.543> 307 67<406.766 523.63> 334 68<87.1321 209.17>
LayerCount: 2
Fore
SplineSet
224 596 m 0xd0
 310 596 374 539 374 473 c 0xd8
 374 423 339 375 273 334 c 1
 297 318 l 2
 357 281 402 245 402 170 c 0
 402 68 318 -8 213 -8 c 0
 114 -8 34 60 34 155 c 0xe4
 34 236 92 286 170 310 c 1
 154 319 l 2
 93 356 52 403 52 457 c 0
 52 533 132 596 224 596 c 0xd0
195 294 m 1
 137 266 106 223 106 166 c 0
 106 91 160 26 226 26 c 0
 282 26 334 72 334 143 c 0xe4
 334 190 311 223 257 257 c 2
 195 294 l 1
246 350 m 1
 277 376 307 402 307 454 c 0
 307 514 266 566 210 566 c 0
 168 566 116 537 116 482 c 0xd8
 116 439 148 412 202 378 c 2
 246 350 l 1
EndSplineSet
Validated: 1
EndChar

StartChar: nine
Encoding: 57 57 61
Width: 450
VWidth: 800
Flags: W
HStem: -235 20<47.25 69.3907> 70 54<162.149 264.965> 376 35<146.554 250.949>
VStem: 26 80<184.493 316.606>
LayerCount: 2
Fore
SplineSet
327 190 m 1
 320 312 261 376 198 376 c 0
 144 376 106 329 106 266 c 0
 106 196 152 124 226 124 c 0
 270 124 300 149 327 190 c 1
327 143 m 1
 296 102 241 70 180 70 c 1
 78 70 26 159 26 235 c 0
 26 326 101 411 206 411 c 0
 312 411 412 324 412 171 c 0
 412 21 318 -181 49 -235 c 1
 44 -215 l 1
 229 -165 319 -13 327 143 c 1
EndSplineSet
Validated: 1
EndChar

StartChar: period
Encoding: 46 46 62
Width: 178
VWidth: 800
Flags: W
HStem: -19 119<43.7454 136.255>
VStem: 30 120<-5.25464 86.6614>
LayerCount: 2
Fore
SplineSet
150 41 m 0
 150 8 123 -19 90 -19 c 0
 57 -19 30 8 30 41 c 0
 30 74 57 100 90 100 c 0
 123 100 150 74 150 41 c 0
EndSplineSet
Validated: 1
EndChar

StartChar: comma
Encoding: 44 44 63
Width: 173
VWidth: 800
Flags: W
HStem: -2 102<39.3665 97.509>
VStem: 99 58<-57.9812 40>
LayerCount: 2
Fore
SplineSet
82 100 m 0
 132 100 157 67 157 13 c 0
 157 -45 117 -99 48 -134 c 1
 26 -110 l 1
 79 -79 99 -46 99 -20 c 0
 99 -9 95 -4 85 -2 c 0
 46 5 28 23 28 52 c 0
 28 75 50 100 82 100 c 0
EndSplineSet
Validated: 1
EndChar

StartChar: colon
Encoding: 58 58 64
Width: 179
VWidth: 800
Flags: W
HStem: -19 119<43.7454 136.255> 264 119<43.7454 136.255>
VStem: 30 120<-5.25464 86.6614 277.339 369.255>
LayerCount: 2
Fore
SplineSet
150 41 m 0
 150 8 123 -19 90 -19 c 0
 57 -19 30 8 30 41 c 0
 30 74 57 100 90 100 c 0
 123 100 150 74 150 41 c 0
150 323 m 0
 150 290 123 264 90 264 c 0
 57 264 30 290 30 323 c 0
 30 356 57 383 90 383 c 0
 123 383 150 356 150 323 c 0
EndSplineSet
Validated: 1
EndChar

StartChar: semicolon
Encoding: 59 59 65
Width: 178
VWidth: 800
Flags: W
HStem: -2 102<40.9366 101.578> 264 119<43.7454 136.255>
VStem: 30 120<277.339 369.255> 102 57<-57.9812 40>
LayerCount: 2
Fore
SplineSet
150 323 m 0xe0
 150 290 123 264 90 264 c 0
 57 264 30 290 30 323 c 0
 30 356 57 383 90 383 c 0
 123 383 150 356 150 323 c 0xe0
84 100 m 0
 134 100 159 67 159 13 c 0
 159 -45 119 -99 50 -134 c 1
 28 -110 l 1
 81 -79 102 -46 102 -20 c 0xd0
 102 -9 96 -4 86 -2 c 0
 47 5 30 23 30 52 c 0
 30 75 52 100 84 100 c 0
EndSplineSet
Validated: 1
EndChar

StartChar: exclam
Encoding: 33 33 66
Width: 236
VWidth: 800
Flags: W
HStem: -19 119<71.7454 164.255>
VStem: 58 120<-5.25464 86.6614 396.125 598.563>
LayerCount: 2
Fore
SplineSet
118 614 m 0
 149 614 174 589 174 558 c 0
 174 544 171 515 169 498 c 2
 128 172 l 1
 108 172 l 1
 67 498 l 2
 64 520 62 542 62 558 c 0
 62 589 87 614 118 614 c 0
178 41 m 0
 178 8 151 -19 118 -19 c 0
 85 -19 58 8 58 41 c 0
 58 74 85 100 118 100 c 0
 151 100 178 74 178 41 c 0
EndSplineSet
Validated: 1
EndChar

StartChar: question
Encoding: 63 63 67
Width: 280
VWidth: 800
Flags: W
HStem: -19 119<35.7454 128.255> 540 96<21.0346 70>
VStem: 22 120<-5.25464 86.6614> 68 21<162 198> 207 39<363.5 461.899>
LayerCount: 2
Fore
SplineSet
142 41 m 0xe8
 142 8 115 -19 82 -19 c 0
 49 -19 22 8 22 41 c 0
 22 74 49 100 82 100 c 0
 115 100 142 74 142 41 c 0xe8
189 393 m 0
 201 401 207 407 207 428 c 0
 207 473 127 510 32 540 c 1
 19 559 13 585 13 609 c 0
 13 619 14 628 16 636 c 1
 80 622 185 551 223 470 c 0
 237 440 246 412 246 383 c 0
 246 344 231 324 209 308 c 0
 196 299 180 290 164 282 c 0
 132 266 101 250 98 226 c 2
 89 162 l 1
 68 162 l 1xd8
 63 198 l 2
 53 277 49 295 44 309 c 1
 95 335 154 369 189 393 c 0
EndSplineSet
Validated: 1
EndChar

StartChar: quotesingle
Encoding: 39 39 68
Width: 149
VWidth: 800
Flags: W
HStem: 458.437 198.905<59.4649 82.3369>
VStem: 27.8525 94.6349<541.131 649.777> 62.3555 19.9814<458.437 486.606>
LayerCount: 2
Fore
SplineSet
66.453125 657.341796875 m 0xc0
 88.6021853312 657.341796875 122.487425301 645.836712876 122.487425301 623.010388404 c 0xc0
 122.487425301 621.051523931 122.237881163 619.009285421 121.709960938 616.883789062 c 2
 82.3369140625 458.436523438 l 1
 62.35546875 458.436523438 l 1xa0
 45.7734375 567.624023438 36.1220703125 618.4921875 28.220703125 644.275390625 c 0
 28 644.9296875 27.8525390625 645.609375 27.8525390625 646.298828125 c 0
 27.8525390625 652.297851562 44.5380859375 657.341796875 66.453125 657.341796875 c 0xc0
EndSplineSet
Validated: 1
EndChar

StartChar: quotedbl
Encoding: 34 34 69
Width: 268
VWidth: 800
Flags: W
HStem: 458.437 198.905<59.421 82.293 177.703 200.574>
VStem: 27.8086 94.6349<541.131 649.777> 62.3115 19.9814<458.437 486.606> 146.091 94.6341<541.131 649.777> 180.594 19.9805<458.437 486.606>
LayerCount: 2
Fore
SplineSet
184.69140625 657.341796875 m 0x90
 206.839358856 657.341796875 240.724926871 645.836929327 240.724926871 623.011032571 c 0x90
 240.724926871 621.051971654 240.475320909 619.00951841 239.947265625 616.883789062 c 2
 200.57421875 458.436523438 l 1
 180.59375 458.436523438 l 1x88
 164.01171875 567.624023438 154.359375 618.4921875 146.458007812 644.275390625 c 0
 146.237304688 644.9296875 146.090820312 645.609375 146.090820312 646.298828125 c 0
 146.090820312 652.297851562 162.775390625 657.341796875 184.69140625 657.341796875 c 0x90
66.4091796875 657.341796875 m 0
 88.5582400187 657.341796875 122.443479989 645.836712876 122.443479989 623.010388404 c 0xc0
 122.443479989 621.051523931 122.193935851 619.009285421 121.666015625 616.883789062 c 2
 82.29296875 458.436523438 l 1
 62.3115234375 458.436523438 l 1xa0
 45.7294921875 567.624023438 36.078125 618.4921875 28.1767578125 644.275390625 c 0
 27.9560546875 644.9296875 27.80859375 645.609375 27.80859375 646.298828125 c 0xc0
 27.80859375 652.297851562 44.494140625 657.341796875 66.4091796875 657.341796875 c 0
EndSplineSet
Validated: 1
EndChar

StartChar: quoteleft
Encoding: 256 8216 70
Width: 172
VWidth: 800
Flags: W
HStem: 438 104<75.491 133.279>
VStem: 16 58<499 597.389>
LayerCount: 2
Fore
SplineSet
91 438 m 0
 41 438 16 472 16 526 c 0
 16 584 57 639 126 674 c 1
 147 648 l 1
 94 617 74 584 74 558 c 0
 74 547 79 544 89 542 c 0
 128 535 145 515 145 486 c 0
 145 463 123 438 91 438 c 0
EndSplineSet
Validated: 1
EndChar

StartChar: quoteright
Encoding: 257 8217 71
Width: 172
VWidth: 800
Flags: W
HStem: 570 104<39.6279 97.509>
VStem: 99 58<514.338 613>
LayerCount: 2
Fore
SplineSet
82 674 m 0
 132 674 157 640 157 586 c 0
 157 528 117 473 48 438 c 1
 26 464 l 1
 79 495 99 527 99 553 c 0
 99 564 95 568 85 570 c 0
 46 577 28 596 28 625 c 0
 28 648 50 674 82 674 c 0
EndSplineSet
Validated: 1
EndChar

StartChar: quotedblleft
Encoding: 258 8220 72
Width: 315
VWidth: 800
Flags: W
HStem: 438 104<75.491 133.279 216.379 275.565>
VStem: 16 58<499 597.389> 158 58<499 597.389>
LayerCount: 2
Fore
SplineSet
91 438 m 0
 41 438 16 472 16 526 c 0
 16 584 57 639 126 674 c 1
 147 648 l 1
 94 617 74 584 74 558 c 0
 74 547 79 544 89 542 c 0
 128 535 145 515 145 486 c 0
 145 463 123 438 91 438 c 0
234 438 m 0
 184 438 158 472 158 526 c 0
 158 584 199 639 268 674 c 1
 290 648 l 1
 237 617 216 584 216 558 c 0
 216 547 221 544 231 542 c 0
 270 535 288 515 288 486 c 0
 288 463 266 438 234 438 c 0
EndSplineSet
Validated: 1
EndChar

StartChar: quotedblright
Encoding: 259 8221 73
Width: 315
VWidth: 800
Flags: W
HStem: 570 104<39.6279 97.509 181.628 241.578>
VStem: 99 58<514.338 613> 242 57<514.338 613>
LayerCount: 2
Fore
SplineSet
224 674 m 0
 274 674 299 640 299 586 c 0
 299 528 259 473 190 438 c 1
 169 464 l 1
 222 495 242 527 242 553 c 0
 242 564 237 568 227 570 c 0
 188 577 170 596 170 625 c 0
 170 648 192 674 224 674 c 0
82 674 m 0
 132 674 157 640 157 586 c 0
 157 528 117 473 48 438 c 1
 26 464 l 1
 79 495 99 527 99 553 c 0
 99 564 95 568 85 570 c 0
 46 577 28 596 28 625 c 0
 28 648 50 674 82 674 c 0
EndSplineSet
Validated: 1
EndChar

StartChar: hyphen
Encoding: 45 45 74
Width: 493
VWidth: 800
Flags: W
HStem: 146 62<94 401>
VStem: 94 307<146 208>
LayerCount: 2
Fore
SplineSet
94 208 m 1
 401 208 l 1
 401 146 l 1
 94 146 l 1
 94 208 l 1
EndSplineSet
Validated: 1
EndChar

StartChar: endash
Encoding: 260 8211 75
Width: 392
VWidth: 800
Flags: W
HStem: 146 62<0 393>
LayerCount: 2
Fore
SplineSet
0 208 m 1
 393 208 l 1
 393 146 l 1
 0 146 l 1
 0 208 l 1
EndSplineSet
Validated: 1
EndChar

StartChar: emdash
Encoding: 261 8212 76
Width: 780
VWidth: 800
Flags: W
HStem: 146 62<0 781>
LayerCount: 2
Fore
SplineSet
0 208 m 1
 781 208 l 1
 781 146 l 1
 0 146 l 1
 0 208 l 1
EndSplineSet
Validated: 1
EndChar

StartChar: ellipsis
Encoding: 262 8230 77
Width: 626
Flags: W
HStem: -19.1787 119.506<43.4903 135.69 266.708 358.903 489.925 582.119>
VStem: 29.8389 119.503<-5.52618 86.6749> 253.057 119.496<-5.52393 86.6724> 476.275 119.495<-5.52393 86.6724>
LayerCount: 2
Fore
SplineSet
595.770507812 40.57421875 m 0
 595.770507812 7.5966796875 568.997070312 -19.177734375 536.01953125 -19.1787109375 c 0
 503.044921875 -19.173828125 476.275390625 7.5986328125 476.275390625 40.57421875 c 0
 476.275390625 73.5498046875 503.044921875 100.322265625 536.01953125 100.327148438 c 0
 568.997070312 100.326171875 595.770507812 73.552734375 595.770507812 40.57421875 c 0
372.552734375 40.57421875 m 0
 372.552734375 7.5986328125 345.783203125 -19.173828125 312.80859375 -19.1787109375 c 0
 279.831054688 -19.177734375 253.056640625 7.5966796875 253.056640625 40.57421875 c 0
 253.056640625 73.552734375 279.831054688 100.326171875 312.80859375 100.327148438 c 0
 345.783203125 100.322265625 372.552734375 73.5498046875 372.552734375 40.57421875 c 0
149.341796875 40.57421875 m 0
 149.341796875 7.5966796875 122.568359375 -19.177734375 89.5908203125 -19.1787109375 c 0
 56.6123046875 -19.177734375 29.8388671875 7.5966796875 29.8388671875 40.57421875 c 0
 29.8388671875 73.552734375 56.6123046875 100.326171875 89.5908203125 100.327148438 c 0
 122.568359375 100.326171875 149.341796875 73.552734375 149.341796875 40.57421875 c 0
EndSplineSet
Validated: 1
EndChar

StartChar: at
Encoding: 64 64 78
Width: 784
Flags: W
HStem: -151.245 29.2627<300.877 483.494> -2.37891 39.501<347.903 473.005> 252.11 46.4934<303.552 404.472> 366.66 35.8916<352.778 622.904> 516.155 29.4551<301.308 484.906>
VStem: 40.1973 38.0195<87.9051 304.282> 198.485 84.9189<97.1088 232.591> 517.076 83.2412<99.1477 234.834> 705.541 38.0264<83.7966 283.177>
LayerCount: 2
Fore
SplineSet
393.865234375 545.610351562 m 0
 472.862304688 545.610351562 547.672851562 523.668945312 622.483398438 462.40234375 c 1
 594.77734375 438.61328125 l 1
 528.684570312 494.61328125 460.936523438 516.155273438 392.63671875 516.155273438 c 0
 238.181640625 516.155273438 78.216796875 394.609375 78.216796875 195.638671875 c 0
 78.216796875 -3.3330078125 238.880859375 -121.982421875 391.87890625 -121.982421875 c 0
 544.884765625 -121.982421875 705.541015625 -4.8291015625 705.541015625 195.638671875 c 0
 705.541015625 305.66015625 642.338867188 366.66015625 538.682617188 366.66015625 c 2
 352.778320312 366.66015625 l 1
 387.604492188 361.298828125 421.725585938 352.310546875 468.065429688 339.89453125 c 0
 557.309570312 315.983398438 600.317382812 257.877929688 600.317382812 186.520507812 c 0
 600.317382812 86.8642578125 523.387695312 -2.37890625 394.504882812 -2.37890625 c 0
 276.3046875 -2.37890625 198.485351562 77.0634765625 198.485351562 163.450195312 c 0
 198.485351562 253.7471937 266.495262332 298.603682264 331.831418117 298.603682264 c 0
 376.701118411 298.603682264 420.309802149 277.44812574 439.763671875 235.326171875 c 1
 415.825195312 220.583007812 l 1
 403.0141275 240.414476064 378.095226275 252.110326113 353.29740981 252.110326113 c 0
 318.229780871 252.110326113 283.404296875 228.720999745 283.404296875 171.874023438 c 0
 283.404296875 79.3994140625 361.451171875 37.1220703125 410.234375 37.1220703125 c 0
 479.879882812 37.1220703125 517.076171875 85.515625 517.076171875 155.977539062 c 0
 517.076171875 239.173828125 469.610351562 279.525390625 385.603515625 303.344726562 c 0
 364.377861607 309.363530887 342.135184103 315.212865492 318.925821459 321.316417011 c 0
 270.525426752 334.044655488 217.921092905 347.878437427 161.569335938 366.66015625 c 1
 161.569335938 378.33984375 l 1
 235.555664062 406.163085938 l 1
 250.5703125 404.23046875 276.473632812 402.551757812 298.6328125 402.551757812 c 2
 529.030273438 402.551757812 l 2
 660.509765625 402.551757812 743.567382812 335.357421875 743.567382812 196.313476562 c 0
 743.567382812 0.943359375 592.615234375 -151.245117188 392.534179688 -151.245117188 c 0
 192.452148438 -151.245117188 40.197265625 -0.4951171875 40.197265625 196.313476562 c 0
 40.197265625 393.122070312 192.297851562 545.610351562 393.865234375 545.610351562 c 0
EndSplineSet
Validated: 1
EndChar

StartChar: numbersign
Encoding: 35 35 79
Width: 590
Flags: W
HStem: 0 21G<133.547 173.25 336.828 376.531> 123.227 68.6123<62.3193 159.647 209.647 362.929 412.929 518.915> 412.451 68.6123<115.332 220.908 270.908 424.19 474.19 571.949>
LayerCount: 2
Fore
SplineSet
461.525390625 588.717773438 m 1
 496.9921875 588.717773438 l 1
 474.189756422 481.063476562 l 1
 586.471679688 481.063476562 l 1
 571.94921875 412.451171875 l 1
 459.656872978 412.451171875 l 1
 412.928623214 191.838867188 l 1
 533.458984375 191.838867188 l 1
 518.915039062 123.2265625 l 1
 398.39573977 123.2265625 l 1
 372.294921875 0 l 1
 336.828125 0 l 1
 362.928942895 123.2265625 l 1
 195.114285362 123.2265625 l 1
 169.013671875 0 l 1
 133.546875 0 l 1
 159.647488487 123.2265625 l 1
 47.7744140625 123.2265625 l 1
 62.3193359375 191.838867188 l 1
 174.180258118 191.838867188 l 1
 220.908141931 412.451171875 l 1
 100.809570312 412.451171875 l 1
 115.33203125 481.063476562 l 1
 235.440911561 481.063476562 l 1
 258.243164062 588.717773438 l 1
 293.709960938 588.717773438 l 1
 270.907708436 481.063476562 l 1
 438.722959547 481.063476562 l 1
 461.525390625 588.717773438 l 1
424.190076103 412.451171875 m 1
 256.374938806 412.451171875 l 1
 209.647054993 191.838867188 l 1
 377.461826339 191.838867188 l 1
 424.190076103 412.451171875 l 1
EndSplineSet
Validated: 1
EndChar

StartChar: percent
Encoding: 37 37 80
Width: 615
Flags: W
HStem: -11.4531 20.624<428.989 493.349> -0.000976562 21G<77.2461 139.528> 229.022 20.624<429.066 493.336> 339.068 20.626<121.78 185.113> 579.547 20.626<121.285 185.648>
VStem: 22.9092 55.3525<395.641 543.601> 228.641 55.3818<395.459 542.809> 330.612 55.3887<45.9015 192.312> 536.365 55.3594<45.1173 193.075>
LayerCount: 2
Fore
SplineSet
489.098632812 588.716796875 m 1x7f80
 537.387695312 588.716796875 l 1
 125.536132812 -0.0009765625 l 1
 77.24609375 -0.0009765625 l 1
 489.098632812 588.716796875 l 1x7f80
153.469726562 600.172851562 m 0
 232.1640625 600.172851562 284.022460938 541.719726562 284.022460938 469.623046875 c 0
 283.99999472 397.500628974 232.556201416 339.068847667 153.44528328 339.068359363 c 0
 74.338984554 339.068359363 22.9091796875 397.523063152 22.9091796875 469.618164062 c 0
 22.931640625 541.724609375 74.7890625 600.172851562 153.469726562 600.172851562 c 0
153.469726562 579.546875 m 0
 111.403320312 579.546875 78.26171875 537.783203125 78.26171875 469.616210938 c 0
 78.283203125 401.461914062 111.837890625 359.69140625 153.447265625 359.694335938 c 0
 195.02734375 359.693359375 228.640625 400.5859375 228.640625 469.625 c 0
 228.640625 538.662109375 195.512695312 579.546875 153.469726562 579.546875 c 0
461.165039062 -11.453125 m 0xbf80
 382.469726562 -11.453125 330.612304688 46.9990234375 330.612304688 119.091796875 c 0
 330.634765625 191.201171875 382.072265625 249.642578125 461.186523438 249.646484375 c 0
 540.286132812 249.646484375 591.724609375 191.193359375 591.724609375 119.1015625 c 0
 591.703125 46.9912109375 539.844726562 -11.453125 461.165039062 -11.453125 c 0xbf80
461.165039062 9.1708984375 m 0
 503.23046875 9.1708984375 536.365234375 50.9365234375 536.365234375 119.1015625 c 0
 536.343751256 187.25089999 502.800795787 229.022461366 461.201629506 229.022461366 c 0
 419.703230416 229.020026052 386.000971707 188.299331113 386.000971707 119.045062334 c 0
 386.000971707 50.038574108 419.130383927 9.1708984375 461.165039062 9.1708984375 c 0
EndSplineSet
Validated: 33
EndChar

StartChar: ampersand
Encoding: 38 38 81
Width: 705
Flags: W
HStem: -14.3574 13.6123<368.252 387.661> 332.933 86.2754<85.3681 136.298> 369.998 41.9121<367.828 505.033>
VStem: 35.5039 76.0991<70.9464 117.227> 234.139 94.9723<505.629 564.131> 576.025 88.8105<123.301 298.67>
LayerCount: 2
Fore
SplineSet
194.090236086 274.649087063 m 1x9c
 174.467579497 240.417928691 156.511727093 201.867370785 140.146484375 161.205078125 c 0
 137.421326976 154.433553032 134.932161692 147.975346406 132.649891566 141.821724003 c 1
 140.312185346 137.222222379 146.959061615 133.098971224 152.93070716 129.394585375 c 0
 167.526156519 120.340602572 178.087947698 113.78881555 189.583007812 108.901367188 c 1
 189.711220823 112.220367424 189.900129318 116.761727712 190.127292621 122.222733586 c 0
 191.334497533 151.243939999 193.622070312 206.237190254 193.622070312 241.770507812 c 0
 193.622070312 253.359915955 193.784577673 264.292845277 194.090236086 274.649087063 c 1x9c
329.111328125 527.107421875 m 0
 329.111328125 522.217978305 325.546658427 519.577249909 319.180790836 514.861377545 c 0
 308.966187838 507.294339227 291.53932155 494.384413605 270.054358916 458.268238245 c 1
 287.156710742 439.230252023 302.943359375 411.080327512 302.943359375 400.8359375 c 0
 302.943359375 395.513149156 299.532852357 393.464776352 292.526381847 389.256644371 c 0
 280.614891712 382.102525547 258.310211551 368.706188868 224.701081185 322.366237072 c 0
 224.001332433 314.796361716 223.630859233 307.208381433 223.630859375 299.64453125 c 0
 223.630859375 296.199602433 223.660384671 292.749536173 223.717529922 289.297222438 c 1
 305.521172507 366.230940808 376.212520708 411.91015625 470.676757812 411.91015625 c 0
 576.614257812 411.91015625 664.8359375 352.790039062 664.8359375 220.364257812 c 0
 664.8359375 74.3564453125 548.643554688 -4.439453125 371.20703125 -14.357421875 c 1
 365.4609375 -0.7451171875 l 1
 496.249023438 28.705078125 576.025390625 98.0078125 576.025390625 214.733398438 c 0
 576.025390625 305.06640625 516.85546875 369.998046875 429.71484375 369.998046875 c 0xbc
 354.863916732 369.998046875 297.274838261 320.849548431 228.694049527 213.987326443 c 1
 232.96931777 174.464741834 239.14226166 137.731617723 244.059849199 108.468699323 c 0
 248.547844154 81.7621426793 251.990234363 61.2776300973 251.990234375 50.5732421875 c 0
 251.990234375 19.2177734375 228.986328125 -25.42578125 216.501953125 -25.42578125 c 0
 200.433255097 -25.42578125 187.109464637 1.11233151789 177.924565545 27.0498003568 c 0
 172.700069736 41.8033862011 161.502115214 73.4255731789 124.291487095 118.016548301 c 1
 118.697718718 101.137500701 114.776604509 87.1941887632 111.602974286 75.9088974365 c 0
 103.885298497 48.4651773039 100.588030207 36.740234375 88.40625 36.740234375 c 0
 73.1923828125 36.740234375 35.50390625 98.9228515625 35.50390625 137.041992188 c 0
 35.50390625 147.40272222 47.7863342673 163.443891893 71.3108654727 194.16754002 c 0
 99.9561030143 231.578963485 145.270375922 290.760579638 205.375391306 387.965451983 c 0
 206.815919647 396.014048541 208.334300837 403.760762574 209.897791786 411.340569563 c 1
 159.263120031 379.766410582 139.607576685 358.445249938 128.229674005 346.103179992 c 0
 119.98635388 337.161318171 116.08800065 332.932617188 107.901367188 332.932617188 c 0
 93.2177734375 332.932617188 53.189453125 403.369140625 53.189453125 419.4140625 c 0
 53.189453125 426.360351562 54.7861328125 432.626953125 58.111328125 438.260742188 c 1
 67.7998046875 424.768554688 76.8564453125 419.208007812 93.328125 419.208007812 c 0xdc
 122.587571783 419.208007812 167.942068875 431.23535056 218.371585682 450.445645638 c 1
 227.688547265 493.035376486 234.13901267 528.882130568 234.13901267 555.152420415 c 0
 234.13901267 576.458104898 230.020431584 593.305302805 219.098632812 604.0625 c 1
 244.854998884 606.969726562 244.854998884 606.969726562 248.143554688 606.969726562 c 0
 261.885742188 606.969726562 329.111328125 554.444335938 329.111328125 527.107421875 c 0
EndSplineSet
Validated: 1
EndChar

StartChar: asciicircum
Encoding: 94 94 82
Width: 395
Flags: W
HStem: 349.386 239.332
LayerCount: 2
Fore
SplineSet
168.03515625 588.717773438 m 1
 226.852539062 588.717773438 l 1
 365.953125 349.385742188 l 1
 303.244140625 349.385742188 l 1
 197.439453125 536.665039062 l 1
 91.6357421875 349.385742188 l 1
 28.93359375 349.385742188 l 1
 168.03515625 588.717773438 l 1
EndSplineSet
Validated: 1
EndChar

StartChar: asterisk
Encoding: 42 42 83
Width: 351
Flags: W
HStem: 351.211 291.101
VStem: 28.9414 293.078
LayerCount: 2
Fore
SplineSet
49.3125 528.823242188 m 0
 71.3232421875 524.318359375 116.677734375 512.987304688 167.350585938 498.823242188 c 1
 166.983398438 483.788085938 l 1
 48.4951171875 449.33984375 l 1
 41.3962579238 462.329605384 28.9414333519 493.946533637 28.9414333519 513.28230328 c 0
 28.9414333519 517.409923812 29.5089965357 520.977895075 30.8173828125 523.685546875 c 0
 33.568359375 529.341796875 37.0263671875 531.344726562 49.3125 528.823242188 c 0
102.200195312 376.540039062 m 0
 113.286132812 396.087890625 138.078125 435.719726562 167.225585938 479.54296875 c 1
 181.41015625 474.545898438 l 1
 177.547851562 351.2109375 l 1
 169.899173808 349.769060384 156.89267325 348.509671671 143.605097515 348.509671671 c 0
 126.231435638 348.509671671 108.377251273 350.662706331 101.390625 357.375976562 c 0
 96.8583984375 361.733398438 96.0126953125 365.640625 102.200195312 376.540039062 c 0
263.37890625 379.791015625 m 0
 248.208984375 396.375976562 218.193359375 432.206054688 185.522460938 473.452148438 c 1
 194.65234375 485.397460938 l 1
 310.763671875 443.62109375 l 1
 308.467773438 425.80078125 296.432617188 381.155273438 281.366210938 373.086914062 c 0
 275.796875 370.1171875 271.82421875 370.53125 263.37890625 379.791015625 c 0
310.1015625 534.084960938 m 0
 289.620117188 524.7890625 246.274414062 507.298828125 196.961914062 488.96875 c 1
 188.40625 501.349609375 l 1
 264.018554688 598.859375 l 1
 280.262695312 591.173828125 319.009765625 565.9375 322.01953125 549.104492188 c 0
 323.166992188 542.920898438 321.50390625 539.266601562 310.1015625 534.084960938 c 0
177.783203125 626.192382812 m 0
 180.276367188 603.859375 183.55078125 557.22265625 185.728515625 504.647460938 c 1
 171.323242188 500.354492188 l 1
 101.934570312 602.392578125 l 1
 113.820431357 614.967774031 147.519594884 642.311565589 165.166089297 642.311565589 c 0
 165.8690978 642.311565589 166.546629113 642.26816826 167.196289062 642.178710938 c 0
 173.419921875 641.3203125 176.384765625 638.6484375 177.783203125 626.192382812 c 0
EndSplineSet
Validated: 1
EndChar

StartChar: less
Encoding: 60 60 84
Width: 424
Flags: W
LayerCount: 2
Fore
SplineSet
21.2314453125 208.948242188 m 5
 384.227539062 422.810546875 l 5
 384.227539062 357.791992188 l 5
 111.108398438 199.01953125 l 5
 384.227539062 40.24609375 l 5
 384.227539062 -24.7724609375 l 5
 21.2314453125 189.076171875 l 5
 21.2314453125 208.948242188 l 5
EndSplineSet
Validated: 1
EndChar

StartChar: asciitilde
Encoding: 126 126 85
Width: 685
Flags: W
HStem: 211.026 70.708<404.842 541.778> 290.893 70.7041<142.801 278.491>
LayerCount: 2
Fore
SplineSet
228.095703125 361.596679688 m 0
 286.272460938 361.596679688 332.40625 338.01171875 366.9609375 321.454101562 c 0
 413.7578125 296.2578125 462.127929688 281.734375 498.125 281.734375 c 0
 541.110351562 281.734375 582.940429688 305.150390625 614.213867188 347.245117188 c 1
 637.100585938 335.99609375 l 1
 605.5625 267.483398438 539.719726562 211.026367188 456.478515625 211.026367188 c 0
 398.30078125 211.026367188 351.7109375 233.670898438 317.619140625 251.168945312 c 0
 270.337890625 275.439453125 222.453125 290.892578125 186.456054688 290.892578125 c 0
 143.470703125 290.892578125 101.640625 267.477539062 70.3671875 225.377929688 c 1
 47.48046875 236.626953125 l 1
 79.0185546875 305.13671875 144.854492188 361.596679688 228.095703125 361.596679688 c 0
EndSplineSet
Validated: 1
EndChar

StartChar: greater
Encoding: 62 62 86
Width: 424
Flags: W
LayerCount: 2
Fore
SplineSet
403.178710938 208.948242188 m 5
 403.178710938 189.076171875 l 5
 40.1826171875 -24.7724609375 l 5
 40.1826171875 40.24609375 l 5
 313.301757812 199.01953125 l 5
 40.1826171875 357.791992188 l 5
 40.1826171875 422.810546875 l 5
 403.178710938 208.948242188 l 5
EndSplineSet
Validated: 1
EndChar

StartChar: equal
Encoding: 61 61 87
Width: 471
Flags: W
HStem: 81.918 53.8291<38.9326 431.782> 249.325 53.8291<38.9326 431.782>
LayerCount: 2
Fore
SplineSet
38.9326171875 303.154296875 m 1
 431.782226562 303.154296875 l 1
 431.782226562 249.325195312 l 1
 38.9326171875 249.325195312 l 1
 38.9326171875 303.154296875 l 1
38.9326171875 135.747070312 m 1
 431.782226562 135.747070312 l 1
 431.782226562 81.91796875 l 1
 38.9326171875 81.91796875 l 1
 38.9326171875 135.747070312 l 1
EndSplineSet
Validated: 1
EndChar

StartChar: plus
Encoding: 43 43 88
Width: 471
Flags: W
HStem: -9.61035 21G<206.488 264.225> 173.057 53.8291<38.9316 206.488 264.225 431.781>
VStem: 206.488 57.7363<-9.61035 173.057 226.886 391.025>
LayerCount: 2
Fore
SplineSet
206.48828125 226.885742188 m 1
 206.48828125 391.025390625 l 1
 264.224609375 391.025390625 l 1
 264.224609375 226.885742188 l 1
 431.78125 226.885742188 l 1
 431.78125 173.056640625 l 1
 264.224609375 173.056640625 l 1
 264.224609375 -9.6103515625 l 1
 206.48828125 -9.6103515625 l 1
 206.48828125 173.056640625 l 1
 38.931640625 173.056640625 l 1
 38.931640625 226.885742188 l 1
 206.48828125 226.885742188 l 1
EndSplineSet
Validated: 1
EndChar

StartChar: dollar
Encoding: 36 36 89
Width: 413
Flags: W
HStem: -17.7899 35.3207<134.188 183.919 232.443 273.626> 570.083 32.1682<161.189 183.919 232.443 282.932>
VStem: 50.7988 19.7822<138.741 149.659> 52.792 67.5273<426.353 519.93> 183.919 48.5244<-88.7451 -16.1099 18.0313 252.337 389.592 566.211 602.24 675.011> 323.667 65.7695<75.3295 190.806> 341.515 19.2676<465.874 479.74>
LayerCount: 2
Fore
SplineSet
183.918945312 675.010742188 m 1xd8
 232.443359375 675.010742188 l 1
 232.443359375 602.239914004 l 1
 233.223606293 602.247279957 234.00615994 602.250976562 234.791015625 602.250976562 c 0
 296.153320312 602.250976562 342.095703125 583.9296875 373.759765625 559.282226562 c 1
 368.403320312 551.303710938 365.107421875 527.935546875 363.88671875 510.3671875 c 2
 360.782226562 465.874023438 l 1
 341.514648438 465.874023438 l 1xda
 339.822265625 479.740234375 l 2
 333.18580116 534.1118083 280.2802634 564.51998773 232.443359375 570.082752308 c 1
 232.443359375 355.423252341 l 1
 291.143554688 314.189453125 l 2
 342.31640625 278.250976562 389.436523438 244.303710938 389.436523438 160.318359375 c 0
 389.436523438 84.3746386351 339.672738249 -1.54002421851 232.443359375 -16.1099276865 c 1
 232.443359375 -88.7451171875 l 1
 183.918945312 -88.7451171875 l 1
 183.918945312 -17.7898500564 l 1
 116.600374202 -13.7276697901 68.3160522144 15.8567932282 32.9072265625 43.458984375 c 1
 39.78515625 65.384765625 43.736328125 89.72265625 50.798828125 149.659179688 c 1
 70.5810546875 149.659179688 l 1xec
 71.7138671875 138.741210938 l 2
 76.6703189978 90.8619930022 105.821447799 28.4625780006 183.918945312 17.5308380533 c 1
 183.918945312 286.209643659 l 1
 132.782226562 321.90625 l 2
 90.546875 351.38671875 52.7919921875 389.912109375 52.7919921875 447.526367188 c 0
 52.7919921875 509.613236129 99.5479360483 577.017052805 183.918945312 596.617295769 c 1
 183.918945312 675.010742188 l 1xd8
232.443359375 252.336588268 m 1
 232.443359375 18.0312943184 l 1
 286.572784924 28.1813150653 323.666992188 72.5266703047 323.666992188 121.052734375 c 0xcc
 323.666992188 182.40625 290.208984375 212.025390625 240.624023438 246.625976562 c 2
 232.443359375 252.336588268 l 1
183.918945312 389.592292266 m 1
 183.918945312 566.210784297 l 1
 141.943560191 553.002584128 120.319335938 514.725989231 120.319335938 478.649414062 c 0xd8
 120.319335938 444.894290946 138.609758605 422.384817011 183.918945312 389.592292266 c 1
EndSplineSet
Validated: 1
EndChar

StartChar: parenleft
Encoding: 40 40 90
Width: 353
Flags: W
VStem: 50.9814 86.1924<-1.26645 376.179>
LayerCount: 2
Fore
SplineSet
326.211914062 588.717773438 m 1
 326.211914062 561.056640625 l 1
 234.370117188 527.4375 184.977539062 475.793945312 157.331054688 376.594726562 c 0
 145.103515625 332.732421875 137.173828125 266.03515625 137.173828125 187.456054688 c 0
 137.173828125 108.876953125 145.103515625 42.1796875 157.331054688 -1.6826171875 c 0
 184.977539062 -100.881835938 234.370117188 -152.525390625 326.211914062 -186.14453125 c 1
 326.211914062 -213.805664062 l 1
 211.513671875 -197.676757812 116.0078125 -132.1953125 76.693359375 -13.650390625 c 0
 58.8828125 40.046875 50.9814453125 104.560546875 50.9814453125 187.456054688 c 0
 50.9814453125 270.3515625 58.8828125 334.865234375 76.693359375 388.5625 c 0
 116.0078125 507.107421875 211.513671875 572.588867188 326.211914062 588.717773438 c 1
EndSplineSet
Validated: 1
EndChar

StartChar: parenright
Encoding: 41 41 91
Width: 353
Flags: W
VStem: 216.148 86.1914<-1.26645 376.179>
LayerCount: 2
Fore
SplineSet
27.1103515625 588.717773438 m 1
 141.80859375 572.588867188 237.314453125 507.107421875 276.62890625 388.5625 c 0
 294.439453125 334.865234375 302.33984375 270.3515625 302.33984375 187.456054688 c 0
 302.33984375 104.560546875 294.439453125 40.046875 276.62890625 -13.650390625 c 0
 237.314453125 -132.1953125 141.80859375 -197.676757812 27.1103515625 -213.805664062 c 1
 27.1103515625 -186.14453125 l 1
 118.951171875 -152.525390625 168.344726562 -100.881835938 195.991210938 -1.6826171875 c 0
 208.217773438 42.1796875 216.1484375 108.876953125 216.1484375 187.456054688 c 0
 216.1484375 266.03515625 208.217773438 332.732421875 195.991210938 376.594726562 c 0
 168.344726562 475.793945312 118.951171875 527.4375 27.1103515625 561.056640625 c 1
 27.1103515625 588.717773438 l 1
EndSplineSet
Validated: 1
EndChar

StartChar: bracketleft
Encoding: 91 91 92
Width: 310
Flags: W
HStem: -211.798 35.6484<160.362 283.345> 553.068 35.6494<160.362 283.345>
VStem: 79.0996 81.2627<-176.149 553.068>
LayerCount: 2
Fore
SplineSet
79.099609375 592.610351562 m 1
 107.563476562 590.6640625 160.97265625 588.717773438 224.984375 588.717773438 c 2
 283.344726562 588.717773438 l 1
 283.344726562 556.71875 l 1
 160.362304688 553.068359375 l 1
 160.362304688 -176.149414062 l 1
 283.344726562 -179.798828125 l 1
 283.344726562 -211.797851562 l 1
 224.984375 -211.797851562 l 2
 160.97265625 -211.797851562 107.5703125 -213.744140625 79.099609375 -215.69140625 c 1
 79.099609375 592.610351562 l 1
EndSplineSet
Validated: 1
EndChar

StartChar: bracketright
Encoding: 93 93 93
Width: 310
Flags: W
HStem: -211.798 31.999<27.1025 150.085> 556.719 31.999<27.1025 150.085>
VStem: 150.085 81.2627<-176.149 553.068>
LayerCount: 2
Fore
SplineSet
231.34765625 592.610351562 m 1
 231.34765625 -215.69140625 l 1
 202.876953125 -213.744140625 149.474609375 -211.797851562 85.462890625 -211.797851562 c 2
 27.1025390625 -211.797851562 l 1
 27.1025390625 -179.798828125 l 1
 150.084960938 -176.149414062 l 1
 150.084960938 553.068359375 l 1
 27.1025390625 556.71875 l 1
 27.1025390625 588.717773438 l 1
 85.462890625 588.717773438 l 2
 149.474609375 588.717773438 202.883789062 590.6640625 231.34765625 592.610351562 c 1
EndSplineSet
Validated: 1
EndChar

StartChar: braceleft
Encoding: 123 123 94
Width: 248
Flags: W
HStem: -213.806 28.4062<190.469 221.055> 175.777 23.3574<31.1406 61.983> 560.312 28.4062<190.472 221.055>
VStem: 82.8171 82.6661<-170.957 164.661 210.25 545.873>
LayerCount: 2
Fore
SplineSet
82.8171041985 272.394076609 m 0
 82.8171041985 284.81406025 81.926703451 302.021391394 80.8622134143 322.593063881 c 0
 79.2803051187 353.16403988 77.3139365615 391.164855816 77.3139365615 431.925414836 c 0
 77.3139365615 559.053890061 104.036112136 588.717773438 221.0546875 588.717773438 c 1
 221.0546875 560.311523438 l 1
 171.251931449 551.484865234 161.453757735 520.760278582 161.453757735 453.868962349 c 0
 161.453757735 434.876975176 162.362725529 409.167490644 163.317227682 382.170100306 c 0
 164.372403823 352.325220367 165.48322614 320.906429316 165.48322614 295.248916211 c 0
 165.48322614 235.29539818 160.516302575 206.819149788 124.034179688 187.456054688 c 1
 160.517410566 168.092371515 165.48322614 139.613933494 165.48322614 79.6631931643 c 0
 165.48322614 54.0056800588 164.372403823 22.5868890077 163.317227682 -7.25799093143 c 0
 162.362725529 -34.255381269 161.453757735 -59.9648658014 161.453757735 -78.9568529735 c 0
 161.453757735 -145.848169207 171.251931449 -176.572755859 221.0546875 -185.399414062 c 1
 221.0546875 -213.805664062 l 1
 104.025067679 -213.805664062 77.3139365615 -184.130506663 77.3139365615 -57.0133644911 c 0
 77.3139365615 -24.6584817441 81.1193945505 63.0985638498 82.4013261724 92.6609797576 c 0
 82.6609805799 98.6488276711 82.8171041985 102.249168958 82.8171041985 102.518032766 c 0
 82.8171041985 147.472795454 73.6959331987 168.251803388 31.140625 175.77734375 c 1
 31.140625 199.134765625 l 1
 73.6959331987 206.660305987 82.8171041985 227.439313921 82.8171041985 272.394076609 c 0
EndSplineSet
Validated: 1
EndChar

StartChar: braceright
Encoding: 125 125 95
Width: 248
Flags: W
HStem: -213.806 28.4062<27.1016 58.5206> 175.777 23.3574<186.174 217.016> 560.312 28.4062<27.1016 58.5218>
VStem: 86.7033 84.0907<-166.578 168.024 206.888 541.487>
LayerCount: 2
Fore
SplineSet
82.6367546282 295.810342653 m 0
 82.6367546282 320.390639592 83.7364696707 351.259575641 84.7921379482 380.892121606 c 0
 85.7664977358 408.242343083 86.703334504 434.539295626 86.703334504 453.866220896 c 0
 86.703334504 520.759439113 76.904998913 551.484744652 27.1015625 560.311523438 c 1
 27.1015625 588.717773438 l 1
 147.749856553 588.717773438 170.794255852 555.874745988 170.794255852 430.492458515 c 0
 170.794255852 389.715300433 168.855063297 352.502624872 167.289257276 322.455154169 c 0
 166.229077968 302.110548092 165.340074071 285.050760237 165.340074071 272.393460949 c 0
 165.340074071 227.439124207 174.46112918 206.660271633 217.015625 199.134765625 c 1
 217.015625 175.77734375 l 1
 174.46112918 168.251837742 165.340074071 147.472985168 165.340074071 102.518648426 c 0
 165.340074071 89.8604554051 166.22908 72.801072958 167.289247686 52.4572198751 c 0
 168.854985162 22.4118472499 170.794054884 -14.7975018477 170.794054884 -55.5735247895 c 0
 170.794054884 -180.973178654 147.744883359 -213.805664063 27.1015625 -213.805664062 c 1
 27.1015625 -185.399414062 l 1
 76.904998913 -176.572635277 86.703334504 -145.847329738 86.703334504 -78.9541115208 c 0
 86.703334504 -59.6273107574 85.7665106354 -33.3306511491 84.7921611608 -5.98064723676 c 0
 83.7364970525 23.6518596268 82.6367825585 54.5208614572 82.6367825585 79.1014893399 c 0
 82.6367825585 146.36304308 90.778841059 169.743380572 124.122070312 187.456054688 c 1
 90.7787416642 205.168781604 82.6367546282 228.549682924 82.6367546282 295.810342653 c 0
EndSplineSet
Validated: 1
EndChar

StartChar: bar
Encoding: 124 124 96
Width: 213
Flags: W
VStem: 79.1064 54.668<-211.798 588.718>
LayerCount: 2
Fore
SplineSet
79.1064453125 588.717773438 m 1
 133.774414062 588.717773438 l 1
 133.774414062 -211.797851562 l 1
 79.1064453125 -211.797851562 l 1
 79.1064453125 588.717773438 l 1
EndSplineSet
Validated: 1
EndChar

StartChar: slash
Encoding: 47 47 97
Width: 217
Flags: W
HStem: 0 21G<0 60.9243>
VStem: 0 216.642
LayerCount: 2
Fore
SplineSet
161.193359375 588.717773438 m 1
 216.641601562 588.717773438 l 1
 55.4482421875 0 l 1
 0 0 l 1
 161.193359375 588.717773438 l 1
EndSplineSet
Validated: 1
EndChar

StartChar: backslash
Encoding: 92 92 98
Width: 217
Flags: W
HStem: 0 21G<155.718 216.642>
VStem: 0 216.642
LayerCount: 2
Fore
SplineSet
55.4482421875 588.717773438 m 1
 216.641601562 0 l 1
 161.194335938 0 l 1
 0 588.717773438 l 1
 55.4482421875 588.717773438 l 1
EndSplineSet
Validated: 1
EndChar

StartChar: underscore
Encoding: 95 95 100
Width: 781
Flags: W
HStem: -204.035 61.6152<0.0078125 780.815>
LayerCount: 2
Fore
SplineSet
0.0078125 -142.419921875 m 1
 780.815429688 -142.419921875 l 1
 780.815429688 -204.03515625 l 1
 0.0078125 -204.03515625 l 1
 0.0078125 -142.419921875 l 1
EndSplineSet
Validated: 1
EndChar

StartChar: grave
Encoding: 96 96 101
Width: 309
Flags: W
HStem: 461.852 176.383
VStem: 64.8945 182.866
LayerCount: 2
Fore
SplineSet
216.619140625 461.8515625 m 1
 64.89453125 616.19921875 l 1
 64.3432484116 617.612552917 64.0803208589 618.953853468 64.0803208589 620.224270225 c 0
 64.0803208589 632.584094761 88.9670764942 638.234589404 115.324953826 638.234589404 c 0
 142.370239651 638.234589404 170.964380921 632.285523861 175.811523438 621.53125 c 2
 247.760742188 461.8515625 l 1
 216.619140625 461.8515625 l 1
EndSplineSet
Validated: 1
EndChar

StartChar: placeholder
Encoding: 263 57424 103
Width: 422
VWidth: 800
Flags: HMW
LayerCount: 2
Fore
SplineSet
50 481 m 1
 67 482 l 1
 67 401 l 1
 50 400 l 1
 50 481 l 1
50 383 m 1
 67 383 l 1
 67 306 l 1
 50 306 l 1
 50 383 l 1
50 290 m 1
 67 290 l 1
 67 204 l 1
 50 204 l 1
 50 290 l 1
50 187 m 1
 67 187 l 1
 67 108 l 1
 50 108 l 1
 50 187 l 1
50 90 m 1
 67 91 l 1
 67 10 l 1
 50 10 l 1
 50 90 l 1
50 -8 m 1
 67 -8 l 1
 67 -85 l 1
 50 -85 l 1
 50 -8 l 1
50 -102 m 1
 67 -102 l 1
 67 -171 l 1
 120 -171 l 1
 120 -188 l 1
 50 -188 l 1
 50 -102 l 1
50 588 m 1
 120 588 l 1
 120 570 l 1
 67 570 l 1
 67 498 l 1
 50 498 l 1
 50 528 50 558 50 588 c 1
133 588 m 1
 204 588 l 1
 204 570 l 1
 133 570 l 1
 133 588 l 1
217 588 m 1
 288 588 l 1
 288 570 l 1
 217 570 l 1
 217 588 l 1
300 588 m 1
 372 588 l 1
 372 502 l 1
 355 502 l 1
 355 570 l 1
 300 570 l 1
 300 588 l 1
372 486 m 1
 372 405 l 1
 355 405 l 1
 355 486 l 1
 372 486 l 1
372 387 m 1
 372 311 l 1
 355 310 l 1
 355 387 l 1
 372 387 l 1
372 294 m 1
 372 209 l 1
 355 208 l 1
 355 294 l 1
 372 294 l 1
187 236 m 1
 183 234 183 234 168 228 c 0
 162 228 147 228 141 240 c 1
 141 243 l 1
 149 245 150 246 150 246 c 2
 162 246 167 254 167 262 c 0
 167 267 165 275 152 275 c 1
 152 280 l 1
 160 282 l 0
 162 282 177 282 177 262 c 0
 177 247 164 242 156 239 c 1
 163 237 163 237 164 237 c 0
 173 235 184 242 187 250 c 1
 187 273 l 1
 187 273 182 278 182 279 c 2
 182 280 l 1
 183 281 183 280 194 286 c 0
 197 282 l 1
 206 282 l 1
 208 283 208 283 218 285 c 1
 218 276 l 1
 224 278 230 280 236 282 c 1
 241 282 l 2
 262 282 267 249 234 235 c 0
 230 234 217 229 217 229 c 1
 217 206 l 1
 210 203 211 203 208 202 c 1
 208 274 l 1
 196 274 l 1
 196 231 l 1
 193 229 190 229 187 228 c 1
 187 236 l 1
98 279 m 1
 110 286 l 1
 113 282 l 1
 124 282 l 1
 126 283 126 283 136 285 c 1
 135 282 135 278 135 273 c 2
 135 206 l 1
 128 203 128 203 125 202 c 1
 125 274 l 1
 112 274 l 1
 112 231 l 1
 109 229 106 229 103 228 c 1
 103 273 l 1
 98 279 l 1
261 281 m 0
 264 283 272 286 272 286 c 2
 274 284 274 285 276 282 c 1
 307 282 l 1
 309 283 309 283 319 285 c 1
 319 283 318 280 318 276 c 2
 318 256 l 1
 320 256 l 2
 325 256 330 257 334 257 c 2
 339 257 l 1
 339 256 338 253 336 247 c 0
 335.819335938 247 329.514648438 249 318 249 c 1
 318 206 l 1
 311 203 311 203 308 202 c 1
 308 274 l 1
 297 274 l 1
 297 231 l 1
 290 228 291 228 288 227 c 1
 288 274 l 1
 276 274 l 1
 276 206 l 1
 269 203 269 203 266 202 c 1
 266 273 l 1
 261 281 l 0
220 238 m 0
 245 242 247 262 247 262 c 2
 248 264 250 274 235 274 c 0
 229 274 219 269 217 267 c 1
 217 238 l 1
 218 238 219 238 220 238 c 0
168 221 m 0
 169 221 170 221 170 220 c 2
 170 218 l 2
 170 216 170 216 164 204 c 1
 161 200 l 1
 159 206 153 219 153 219 c 1
 153 220 l 2
 153 221 155 221 156 221 c 2
 156 221 157 220 162 217 c 0
 168 221 l 0
223 193 m 1
 219 198 l 1
 219 200 l 1
 220 200 l 1
 225 202 229 203 233 204 c 1
 233 178 l 1
 328 178 l 1
 328 178 330 179 332 179 c 0
 334 179 334 178 334 178 c 2
 334 177 333 176 331 170 c 1
 330.665039062 170.111328125 300 180.120117188 300 153 c 1
 300 153 302 129 331 134 c 1
 331 129 l 1
 313 126 l 0
 290 126 283 157 296 170 c 1
 281 170 l 1
 281 141 l 1
 277 127 260 126 260 126 c 1
 246 126 244 138 244 142 c 2
 244 170 l 1
 233 170 l 1
 233 103 l 1
 230 101 227 100 223 99 c 1
 223 170 l 1
 212 170 l 1
 212 128 l 1
 209 126 207 126 203 125 c 1
 203 170 l 1
 192 170 l 1
 192 137 l 1
 195 128 l 1
 192 126 188 126 184 125 c 1
 183 129 l 1
 180 127 169 125 164 125 c 0
 149 125 148 142 148 144 c 2
 148 170 l 1
 137 170 l 1
 137 141 l 1
 133 127 116 126 116 126 c 2
 107 124 100 132 100 142 c 2
 100 170 l 1
 81 170 l 1
 79 171 l 2
 79 174 79 175 92 186 c 1
 94 184 96 181 98 178 c 1
 182 178 l 1
 182 193 l 1
 182 193 177 197 177 198 c 0
 178 200 178 201 190 203 c 0
 191 203 191 204 191 204 c 1
 192 204 l 1
 192 178 l 1
 223 178 l 1
 223 193 l 1
372 191 m 1
 372 112 l 1
 355 112 l 1
 355 191 l 1
 372 191 l 1
119 134 m 0
 124 134 128 136 128 143 c 2
 128 170 l 1
 110 170 l 1
 110 161 110 154 110 145 c 0
 110 134 118 134 119 134 c 0
158 170 m 1
 158 146 l 2
 158 144 161 136 164 134 c 2
 176 134 l 1
 178 135 180 136 182 138 c 1
 182 170 l 1
 158 170 l 1
263 134 m 0
 266 134 272 134 272 143 c 2
 272 170 l 1
 254 170 l 1
 254 147 l 2
 254 143 254 134 263 134 c 0
201 118 m 2
 201 118 202 117 208 114 c 1
 216 117 l 2
 216 114 l 1
 207 98 l 0
 206 100 205 102 199 116 c 1
 199 117 l 2
 199 118 200 118 201 118 c 2
372 95 m 1
 372 14 l 1
 355 14 l 1
 355 95 l 1
 372 95 l 1
372 -4 m 1
 372 -81 l 1
 355 -81 l 1
 355 -4 l 1
 372 -4 l 1
372 -98 m 1
 372 -188 l 1
 300 -188 l 1
 300 -171 l 1
 355 -171 l 1
 355 -98 l 1
 372 -98 l 1
133 -171 m 1
 204 -171 l 1
 204 -188 l 1
 133 -188 l 1
 133 -171 l 1
217 -171 m 1
 288 -171 l 1
 288 -188 l 1
 217 -188 l 1
 217 -171 l 1
EndSplineSet
EndChar

StartChar: a.init
Encoding: 264 57344 104
Width: 422
VWidth: 800
Flags: HW
LayerCount: 2
Fore
SplineSet
485.641601562 735 m 1
 485.641601562 174.486328125 l 1
 519.485351562 128.713867188 l 1
 493.884765625 116.087890625 455.412109375 105.233398438 422.109375 99.67578125 c 1
 404.380859375 156.888671875 l 1
 404.380859375 667.762695312 l 1
 368.3671875 708.065429688 l 1
 399.543945312 717.794921875 452.573242188 730.483398438 485.641601562 735 c 1
446.711914062 485.8515625 m 1
 446.711914062 521.743164062 l 1
 547.75 521.744140625 l 1
 547.75 485.852539062 l 1
 446.711914062 485.8515625 l 1
260.022460938 526.14453125 m 0
 327.764648438 538.069335938 422.967773438 524.130859375 482.59765625 461.768554688 c 1
 404.380859375 438.0078125 l 1
 363.301757812 478.98828125 304.518554688 489.233398438 265.317382812 489.233398438 c 0
 181.491210938 489.233398438 116.831054688 424.720703125 116.831054688 337.155273438 c 0
 116.831054688 220.520507812 201.288085938 150.262695312 298.51171875 150.262695312 c 0
 344.759765625 150.262695312 395.146484375 168.734375 427.306640625 207.463867188 c 1
 427.306640625 207.463867188 516.232421875 181.295898438 425 139.78515625 c 0
 396.16015625 126.663085938 318.11328125 104.278320312 282.848632812 97.2431640625 c 0
 148.713867188 92.775390625 35.7890625 167.818359375 35.7890625 319.177734375 c 0
 35.7890625 422.583984375 91.146484375 464.111328125 135.509765625 489.7890625 c 0
 150.001953125 495.576171875 240.715820312 522.74609375 260.022460938 526.14453125 c 0
0 165.5546875 m 1
 46.36328125 119.19140625 l 1
 0 119.19140625 l 1
 0 165.5546875 l 1
539.963867188 165.555664062 m 1
 539.963867188 119.19140625 l 1
 493.600585938 119.19140625 l 1
 539.963867188 165.555664062 l 1
EndSplineSet
EndChar

StartChar: a.fina
Encoding: 265 57346 105
Width: 422
VWidth: 800
Flags: HW
LayerCount: 2
Fore
SplineSet
147.499023438 735 m 1
 145.43359375 717.795898438 143.369140625 671.5 143.369140625 634.0234375 c 2
 143.369140625 98.2998046875 l 2
 121.635742188 86.56640625 89.1943359375 75.01953125 62.107421875 69.2626953125 c 1
 62.107421875 668.971679688 l 1
 -0 668.97265625 l 1
 -0 704.864257812 l 1
 44.9091796875 704.864257812 l 2
 81.2509765625 717.763671875 111.260742188 726.725585938 147.499023438 735 c 1
321.055664062 714.78515625 m 0
 437.162109375 722.212890625 509.37109375 683.846679688 509.37109375 590.95703125 c 0
 509.37109375 459.564453125 395.724609375 377.422851562 298.729492188 341.06640625 c 0
 168.125976562 292.112304688 154.478515625 291.330078125 93.8623046875 288.69921875 c 0
 42.306640625 286.4609375 64.572265625 340.280273438 140.578125 340.280273438 c 0
 263.4921875 334.927734375 425.185546875 432.403320312 425.185546875 574.412109375 c 0
 425.185546875 653.926757812 372.147460938 672.89453125 309.374023438 672.89453125 c 0
 248.166015625 672.89453125 167.434570312 631.249023438 143.369140625 607.377929688 c 1
 126.465820312 654.795898438 l 1
 222.877929688 688.73046875 293.005859375 707.803710938 321.055664062 714.78515625 c 0
7.78515625 348.67578125 m 1
 54.1494140625 302.311523438 l 1
 7.78515625 302.311523438 l 1
 7.78515625 348.67578125 l 1
537.913085938 348.67578125 m 1
 537.913085938 302.311523438 l 1
 491.549804688 302.311523438 l 1
 537.913085938 348.67578125 l 1
EndSplineSet
EndChar

StartChar: b.init
Encoding: 266 57347 106
Width: 422
VWidth: 800
Flags: HW
LayerCount: 2
Fore
SplineSet
325.497070312 508.458984375 m 0
 325.497070312 479.0625 301.666992188 455.232421875 272.270507812 455.232421875 c 0
 242.875 455.232421875 219.043945312 479.0625 219.043945312 508.458984375 c 0
 219.043945312 537.85546875 242.875 561.685546875 272.270507812 561.685546875 c 0
 301.666992188 561.685546875 325.497070312 537.85546875 325.497070312 508.458984375 c 0
113.32421875 735 m 2
 143.376953125 685.30078125 l 1
 135.583007812 655.266601562 l 1
 135.583007812 514.665039062 l 1
 135.583007812 448.747070312 l 2
 135.583007812 366.274414062 173.586914062 312.600585938 257.009765625 312.600585938 c 0
 290.047851562 312.600585938 325.422851562 327.721679688 357.735351562 364.731445312 c 0
 388.171875 373.016601562 417.788085938 380.0703125 446.79296875 386.206054688 c 1
 444.911132812 373.034179688 438.997070312 323.94140625 438.997070312 297.329101562 c 2
 438.997070312 84.59375 l 2
 417.262695312 72.8603515625 384.822265625 61.314453125 357.735351562 55.556640625 c 1
 357.735351562 301.458007812 l 1
 337.47265625 293.866210938 309.048828125 283.708007812 293.087890625 279.430664062 c 0
 148.266601562 240.625976562 54.322265625 296.918945312 54.322265625 425.192382812 c 2
 54.322265625 485.630859375 l 1
 54.322265625 642.432617188 l 1
 12.5947265625 687.193359375 l 1
 35.5791015625 700.126953125 86.1298828125 725.045898438 113.32421875 735 c 2
57.9033203125 691.159179688 m 1
 501.104492188 691.159179688 l 1
 501.104492188 655.266601562 l 1
 57.9033203125 655.267578125 l 1
 57.9033203125 691.159179688 l 1
-0 334.970703125 m 1
 46.36328125 288.606445312 l 1
 -0 288.606445312 l 1
 -0 334.970703125 l 1
493.318359375 334.970703125 m 1
 493.318359375 288.606445312 l 1
 446.955078125 288.606445312 l 1
 493.318359375 334.970703125 l 1
EndSplineSet
EndChar

StartChar: b.medi
Encoding: 267 57348 107
Width: 422
VWidth: 800
Flags: HW
LayerCount: 2
Fore
SplineSet
376.047851562 580.705078125 m 2
 406.100585938 531.009765625 l 1
 398.306640625 500.975585938 l 1
 398.306640625 285.423828125 l 2
 398.306640625 202.608398438 362.419921875 171.791992188 324.08984375 153.424804688 c 0
 301.725585938 142.708007812 266.53125 130.015625 246.205078125 124.569335938 c 0
 173.064453125 104.971679688 62.1044921875 123.872070312 62.1044921875 254.124023438 c 2
 62.1044921875 500.975585938 l 1
 0 500.975585938 l 1
 0 536.868164062 l 1
 44.908203125 536.87109375 l 2
 81.25 549.770507812 111.259765625 558.733398438 147.497070312 567.0078125 c 1
 145.43359375 549.80078125 143.365234375 503.508789062 143.365234375 466.034179688 c 2
 143.365234375 277.6796875 l 2
 143.365234375 195.206054688 181.649414062 163.802734375 234.810546875 163.802734375 c 0
 280.763671875 163.802734375 317.045898438 192.479492188 317.045898438 261.868164062 c 2
 317.045898438 488.141601562 l 1
 275.318359375 532.90234375 l 1
 298.302734375 545.8359375 348.85546875 570.750976562 376.047851562 580.705078125 c 2
320.626953125 536.866210938 m 1
 460.415039062 536.866210938 l 1
 460.415039062 500.974609375 l 1
 320.626953125 500.974609375 l 1
 320.626953125 536.866210938 l 1
284.258789062 681.7734375 m 0
 284.258789062 652.376953125 260.428710938 628.546875 231.032226562 628.546875 c 0
 201.63671875 628.546875 177.805664062 652.376953125 177.805664062 681.7734375 c 0
 177.805664062 711.169921875 201.63671875 735 231.032226562 735 c 0
 260.428710938 735 284.258789062 711.169921875 284.258789062 681.7734375 c 0
7.7861328125 180.6796875 m 1
 54.1494140625 134.315429688 l 1
 7.7861328125 134.315429688 l 1
 7.7861328125 180.6796875 l 1
452.62890625 180.6796875 m 1
 452.62890625 134.315429688 l 1
 406.265625 134.315429688 l 1
 452.62890625 180.6796875 l 1
EndSplineSet
EndChar

StartChar: b.fina
Encoding: 268 57349 108
Width: 422
VWidth: 800
Flags: HW
LayerCount: 2
Fore
SplineSet
425.60546875 735 m 1
 407.331054688 682.076171875 l 1
 375.7265625 690.544921875 341.979492188 698.845703125 286.120117188 698.845703125 c 0
 172.995117188 698.845703125 117.443359375 648.638671875 117.443359375 555.333984375 c 0
 117.443359375 406.157226562 255.529296875 324.30078125 401.8671875 356.704101562 c 1
 401.8671875 338.118164062 l 1
 317.393554688 317.665039062 l 2
 176.93359375 283.65625 36.330078125 373.98828125 36.330078125 536.439453125 c 0
 36.330078125 613.556640625 77.7744140625 669.580078125 142.534179688 688.48046875 c 0
 147.26171875 689.860351562 151.330078125 690.998046875 157.98828125 692.782226562 c 1
 -0 692.782226562 l 1
 -0 728.673828125 l 1
 314.640625 728.673828125 l 2
 338.084960938 728.673828125 409.548828125 733.783203125 425.60546875 735 c 1
335.02734375 534.74609375 m 0
 335.02734375 505.349609375 311.196289062 481.51953125 281.80078125 481.51953125 c 0
 252.404296875 481.51953125 228.57421875 505.349609375 228.57421875 534.74609375 c 0
 228.57421875 564.142578125 252.404296875 587.97265625 281.80078125 587.97265625 c 0
 311.196289062 587.97265625 335.02734375 564.142578125 335.02734375 534.74609375 c 0
7.787109375 372.487304688 m 1
 54.150390625 326.123046875 l 1
 7.787109375 326.123046875 l 1
 7.787109375 372.487304688 l 1
428.833007812 372.487304688 m 1
 428.833007812 326.123046875 l 1
 382.469726562 326.123046875 l 1
 428.833007812 372.487304688 l 1
EndSplineSet
EndChar

StartChar: c.init
Encoding: 269 57350 109
Width: 422
VWidth: 800
Flags: HW
LayerCount: 2
Fore
SplineSet
113.32421875 735 m 2
 143.374023438 685.302734375 l 1
 135.58203125 655.268554688 l 1
 135.58203125 84.5908203125 l 2
 113.84765625 72.857421875 81.408203125 61.3125 54.3203125 55.5546875 c 1
 54.3203125 642.434570312 l 1
 12.5927734375 687.1953125 l 1
 35.578125 700.12890625 86.1298828125 725.045898438 113.32421875 735 c 2
57.8994140625 691.161132812 m 1
 430.815429688 691.161132812 l 1
 430.815429688 655.268554688 l 1
 368.704101562 655.268554688 l 1
 368.704101562 296.567382812 l 2
 346.97265625 284.833984375 314.530273438 273.287109375 287.442382812 267.530273438 c 1
 287.442382812 655.268554688 l 1
 57.8994140625 655.268554688 l 1
 57.8994140625 691.161132812 l 1
-0 334.97265625 m 1
 46.36328125 288.608398438 l 1
 -0 288.608398438 l 1
 -0 334.97265625 l 1
423.030273438 334.97265625 m 1
 423.030273438 288.608398438 l 1
 376.666015625 288.608398438 l 1
 423.030273438 334.97265625 l 1
EndSplineSet
EndChar

StartChar: c.medi
Encoding: 270 57351 110
Width: 422
VWidth: 800
Flags: HW
LayerCount: 2
Fore
SplineSet
62.1064453125 719.427734375 m 1
 143.368164062 719.427734375 l 1
 143.368164062 128.4296875 l 2
 121.633789062 116.696289062 89.193359375 105.151367188 62.1064453125 99.3935546875 c 1
 62.1064453125 719.427734375 l 1
-0 735 m 1
 438.6015625 735 l 1
 438.6015625 699.108398438 l 1
 376.490234375 699.108398438 l 1
 376.490234375 340.40625 l 2
 354.7578125 328.672851562 322.315429688 317.125976562 295.228515625 311.369140625 c 1
 295.228515625 699.108398438 l 1
 -0 699.108398438 l 1
 -0 735 l 1
7.78515625 378.811523438 m 1
 54.1494140625 332.447265625 l 1
 7.78515625 332.447265625 l 1
 7.78515625 378.811523438 l 1
430.815429688 378.811523438 m 1
 430.815429688 332.447265625 l 1
 384.452148438 332.447265625 l 1
 430.815429688 378.811523438 l 1
EndSplineSet
EndChar

StartChar: c.fina
Encoding: 271 57352 111
Width: 422
VWidth: 800
Flags: HW
LayerCount: 2
Fore
SplineSet
380.618164062 735 m 1
 380.618164062 735 l 1
 378.553710938 717.795898438 376.490234375 671.5 376.490234375 634.0234375 c 2
 376.490234375 310.551757812 l 2
 354.755859375 298.818359375 322.315429688 287.272460938 295.228515625 281.514648438 c 1
 295.228515625 668.96484375 l 1
 0 669.25390625 l 1
 0 705.145507812 l 1
 278.029296875 704.86328125 l 2
 314.37109375 717.762695312 344.380859375 726.725585938 380.618164062 735 c 1
62.1064453125 689.573242188 m 1
 143.368164062 689.573242188 l 1
 143.368164062 98.5751953125 l 2
 121.633789062 86.841796875 89.193359375 75.296875 62.1064453125 69.5390625 c 1
 62.1064453125 689.573242188 l 1
7.78515625 348.95703125 m 1
 54.1494140625 302.592773438 l 1
 7.78515625 302.592773438 l 1
 7.78515625 348.95703125 l 1
430.80859375 348.95703125 m 1
 430.80859375 302.592773438 l 1
 384.4453125 302.592773438 l 1
 430.80859375 348.95703125 l 1
EndSplineSet
EndChar

StartChar: d.init
Encoding: 272 57353 112
Width: 422
VWidth: 800
Flags: HW
LayerCount: 2
Fore
SplineSet
135.58203125 735 m 1
 135.58203125 -84.826171875 l 2
 113.84765625 -96.5595703125 81.4072265625 -108.106445312 54.3203125 -113.86328125 c 1
 54.3203125 667.762695312 l 1
 18.3076171875 708.065429688 l 1
 49.4833984375 717.794921875 102.513671875 730.483398438 135.58203125 735 c 1
96.65234375 485.8515625 m 1
 96.65234375 521.743164062 l 1
 197.689453125 521.744140625 l 1
 197.689453125 485.8515625 l 1
 96.65234375 485.8515625 l 1
0 165.555664062 m 1
 46.36328125 119.19140625 l 1
 0 119.19140625 l 1
 0 165.555664062 l 1
189.904296875 165.555664062 m 1
 189.904296875 119.19140625 l 1
 143.540039062 119.19140625 l 1
 189.904296875 165.555664062 l 1
EndSplineSet
EndChar

StartChar: d.medi
Encoding: 273 57354 113
Width: 422
VWidth: 800
Flags: HW
LayerCount: 2
Fore
SplineSet
143.369140625 735 m 1
 143.369140625 -84.826171875 l 2
 121.635742188 -96.5595703125 89.1953125 -108.106445312 62.1083984375 -113.86328125 c 1
 62.1083984375 667.762695312 l 1
 26.0947265625 708.065429688 l 1
 57.271484375 717.794921875 110.30078125 730.483398438 143.369140625 735 c 1
0 521.743164062 m 1
 205.477539062 521.743164062 l 1
 205.477539062 485.8515625 l 1
 0 485.8515625 l 1
 0 521.743164062 l 1
7.7861328125 165.555664062 m 1
 54.1494140625 119.19140625 l 1
 7.7861328125 119.19140625 l 1
 7.7861328125 165.555664062 l 1
197.69140625 165.555664062 m 1
 197.69140625 119.19140625 l 1
 151.328125 119.19140625 l 1
 197.69140625 165.555664062 l 1
EndSplineSet
EndChar

StartChar: d.fina
Encoding: 274 57355 114
Width: 422
VWidth: 800
Flags: HW
LayerCount: 2
Fore
SplineSet
143.369140625 735 m 1
 143.369140625 -84.826171875 l 2
 121.634765625 -96.5595703125 89.1943359375 -108.106445312 62.107421875 -113.86328125 c 1
 62.107421875 667.762695312 l 1
 26.0947265625 708.065429688 l 1
 57.2705078125 717.794921875 110.30078125 730.483398438 143.369140625 735 c 1
101.037109375 485.8515625 m 1
 0 485.8515625 l 1
 0 521.744140625 l 1
 101.037109375 521.743164062 l 1
 101.037109375 485.8515625 l 1
7.7861328125 165.555664062 m 1
 54.1494140625 119.19140625 l 1
 7.7861328125 119.19140625 l 1
 7.7861328125 165.555664062 l 1
197.689453125 165.555664062 m 1
 197.689453125 119.19140625 l 1
 151.326171875 119.19140625 l 1
 197.689453125 165.555664062 l 1
EndSplineSet
EndChar

StartChar: e.init
Encoding: 275 57356 115
Width: 422
VWidth: 800
Flags: HW
LayerCount: 2
Fore
SplineSet
113.32421875 735 m 2
 143.374023438 685.302734375 l 1
 135.58203125 655.268554688 l 1
 135.58203125 84.5908203125 l 2
 113.84765625 72.857421875 81.408203125 61.3125 54.3203125 55.5546875 c 1
 54.3203125 642.434570312 l 1
 12.59375 687.1953125 l 1
 35.578125 700.12890625 86.1298828125 725.045898438 113.32421875 735 c 2
57.9013671875 691.16015625 m 1
 197.689453125 691.16015625 l 1
 197.689453125 655.268554688 l 1
 57.9013671875 655.268554688 l 1
 57.9013671875 691.16015625 l 1
-0 334.97265625 m 1
 46.36328125 288.608398438 l 1
 -0 288.608398438 l 1
 -0 334.97265625 l 1
189.904296875 334.97265625 m 1
 189.904296875 288.608398438 l 1
 143.540039062 288.608398438 l 1
 189.904296875 334.97265625 l 1
EndSplineSet
EndChar

StartChar: e.medi
Encoding: 276 57357 116
Width: 422
VWidth: 800
Flags: HW
LayerCount: 2
Fore
SplineSet
-0 735 m 1
 460.415039062 735 l 1
 460.415039062 699.108398438 l 1
 -0 699.107421875 l 1
 -0 735 l 1
62.1064453125 726.3125 m 1
 143.3671875 726.3125 l 1
 143.3671875 475.811523438 l 2
 143.3671875 393.337890625 181.650390625 361.938476562 234.811523438 361.938476562 c 0
 280.764648438 361.938476562 317.047851562 390.61328125 317.047851562 460.001953125 c 2
 317.047851562 726.3125 l 1
 398.309570312 726.3125 l 1
 398.309570312 483.557617188 l 2
 398.309570312 400.7421875 362.421875 369.927734375 324.091796875 351.559570312 c 0
 301.7265625 340.842773438 266.532226562 328.149414062 246.206054688 322.703125 c 0
 173.065429688 303.10546875 62.1064453125 322.00390625 62.1064453125 452.255859375 c 2
 62.1064453125 726.3125 l 1
7.78515625 378.811523438 m 1
 54.1494140625 332.447265625 l 1
 7.78515625 332.447265625 l 1
 7.78515625 378.811523438 l 1
452.629882812 378.811523438 m 1
 452.629882812 332.447265625 l 1
 406.266601562 332.447265625 l 1
 452.629882812 378.811523438 l 1
EndSplineSet
EndChar

StartChar: e.fina
Encoding: 277 57358 117
Width: 422
VWidth: 800
Flags: HW
LayerCount: 2
Fore
SplineSet
-0 668.971679688 m 1
 -0 704.864257812 l 1
 44.908203125 704.864257812 l 2
 81.25 717.762695312 111.259765625 726.725585938 147.497070312 735 c 1
 145.432617188 717.795898438 143.368164062 671.5 143.368164062 634.0234375 c 2
 143.368164062 98.2939453125 l 2
 121.634765625 86.560546875 89.193359375 75.0146484375 62.1064453125 69.2568359375 c 1
 62.1064453125 668.971679688 l 1
 -0 668.971679688 l 1
326.99609375 501.140625 m 1
 308.717773438 448.216796875 l 2
 288.415039062 453.72265625 240.517578125 458.922851562 219.434570312 458.922851562 c 2
 78.7490234375 458.922851562 l 1
 78.7490234375 494.814453125 l 1
 219.920898438 494.814453125 l 2
 243.365234375 494.814453125 310.938476562 499.923828125 326.99609375 501.140625 c 1
7.78515625 348.674804688 m 1
 54.1494140625 302.311523438 l 1
 7.78515625 302.311523438 l 1
 7.78515625 348.674804688 l 1
352.072265625 348.674804688 m 1
 352.072265625 302.311523438 l 1
 305.708007812 302.311523438 l 1
 352.072265625 348.674804688 l 1
EndSplineSet
EndChar

StartChar: f.init
Encoding: 278 57359 118
Width: 422
VWidth: 800
Flags: HW
LayerCount: 2
Fore
SplineSet
597.884765625 735 m 2
 627.93359375 685.30078125 l 1
 620.143554688 655.266601562 l 1
 620.143554688 439.14453125 l 2
 620.143554688 347.274414062 561.680664062 292.766601562 506.567382812 282.90234375 c 0
 479.915039062 278.130859375 444.737304688 272.348632812 416.28515625 269.995117188 c 0
 343.012695312 263.935546875 237.961914062 311.52734375 237.961914062 425.034179688 c 0
 237.961914062 518.483398438 289.622070312 590.178710938 380.119140625 637.702148438 c 1
 352.53125 652.747070312 316.547851562 660.11328125 272.052734375 660.11328125 c 0
 234.142578125 660.11328125 177.216796875 649.177734375 135.58203125 629.095703125 c 1
 95.1474609375 645.08203125 l 1
 163.061523438 668.647460938 225.525390625 687.127929688 263.79296875 696.59375 c 0
 339.748046875 706.094726562 413.2890625 690.666015625 466.146484375 660.208007812 c 1
 466.146484375 641.807617188 l 1
 381.341796875 602.036132812 318.838867188 526.940429688 318.838867188 443.358398438 c 0
 318.838867188 355.552734375 391.124023438 309.682617188 447.232421875 309.682617188 c 0
 490.743164062 309.682617188 538.881835938 346.716796875 538.881835938 420.23046875 c 2
 538.881835938 642.432617188 l 1
 497.155273438 687.193359375 l 1
 520.139648438 700.126953125 570.689453125 725.045898438 597.884765625 735 c 2
542.463867188 691.159179688 m 1
 682.250976562 691.159179688 l 1
 682.250976562 655.267578125 l 1
 542.463867188 655.267578125 l 1
 542.463867188 691.159179688 l 1
135.58203125 721.295898438 m 1
 135.58203125 84.5888671875 l 2
 113.848632812 72.85546875 81.408203125 61.3095703125 54.3212890625 55.5517578125 c 1
 54.3212890625 654.059570312 l 1
 18.3076171875 694.361328125 l 1
 49.484375 704.091796875 102.513671875 716.779296875 135.58203125 721.295898438 c 1
0 334.970703125 m 1
 46.3642578125 288.606445312 l 1
 0 288.606445312 l 1
 0 334.970703125 l 1
674.465820312 334.970703125 m 1
 674.465820312 288.606445312 l 1
 628.1015625 288.606445312 l 1
 674.465820312 334.970703125 l 1
EndSplineSet
EndChar

StartChar: f.medi
Encoding: 279 57360 119
Width: 422
VWidth: 800
Flags: HW
LayerCount: 2
Fore
SplineSet
-0 735 m 1
 205.4765625 735 l 1
 205.4765625 699.108398438 l 1
 143.368164062 699.108398438 l 1
 143.368164062 128.4296875 l 2
 121.634765625 116.696289062 89.1943359375 105.150390625 62.107421875 99.392578125 c 1
 62.107421875 699.108398438 l 1
 -0 699.108398438 l 1
 -0 735 l 1
7.78515625 378.811523438 m 1
 54.1494140625 332.447265625 l 1
 7.78515625 332.447265625 l 1
 7.78515625 378.811523438 l 1
197.690429688 378.811523438 m 1
 197.690429688 332.447265625 l 1
 151.327148438 332.447265625 l 1
 197.690429688 378.811523438 l 1
EndSplineSet
EndChar

StartChar: f.fina
Encoding: 280 57361 120
Width: 422
VWidth: 800
Flags: HW
LayerCount: 2
Fore
SplineSet
143.3671875 606.684570312 m 1
 143.3671875 98.2939453125 l 2
 121.6328125 86.560546875 89.1923828125 75.013671875 62.10546875 69.255859375 c 1
 62.10546875 539.448242188 l 1
 26.0927734375 579.75 l 1
 57.2685546875 589.479492188 110.298828125 602.16796875 143.3671875 606.684570312 c 1
429.577148438 735 m 1
 427.512695312 717.795898438 425.448242188 671.5 425.448242188 634.0234375 c 2
 425.448242188 380.928710938 l 2
 425.448242188 321.897460938 411.553710938 298.861328125 312.852539062 288.26953125 c 1
 297.985351562 342.15625 277.599609375 352.1953125 206.500976562 360.810546875 c 1
 206.500976562 380.274414062 l 1
 249.4609375 378.374023438 294.2421875 374.413085938 317.772460938 374.413085938 c 0
 337.213867188 374.413085938 344.186523438 380.096679688 344.186523438 396.397460938 c 2
 344.186523438 668.971679688 l 1
 -0 668.971679688 l 1
 -0 704.864257812 l 1
 326.98828125 704.864257812 l 2
 363.330078125 717.762695312 393.338867188 726.725585938 429.577148438 735 c 1
7.7841796875 348.67578125 m 1
 54.1474609375 302.311523438 l 1
 7.7841796875 302.311523438 l 1
 7.7841796875 348.67578125 l 1
479.766601562 348.67578125 m 1
 479.766601562 302.311523438 l 1
 433.403320312 302.311523438 l 1
 479.766601562 348.67578125 l 1
EndSplineSet
EndChar

StartChar: g.init
Encoding: 281 57362 121
Width: 422
VWidth: 800
Flags: HW
LayerCount: 2
Fore
SplineSet
264.737304688 681.7734375 m 0
 264.737304688 652.376953125 240.90625 628.546875 211.509765625 628.546875 c 0
 182.114257812 628.546875 158.283203125 652.376953125 158.283203125 681.7734375 c 0
 158.283203125 711.169921875 182.114257812 735 211.509765625 735 c 0
 240.90625 735 264.737304688 711.169921875 264.737304688 681.7734375 c 0
113.32421875 580.70703125 m 2
 143.373046875 531.009765625 l 1
 135.58203125 500.9765625 l 1
 135.58203125 -69.7021484375 l 2
 113.84765625 -81.435546875 81.408203125 -92.98046875 54.3203125 -98.73828125 c 1
 54.3203125 488.141601562 l 1
 12.5927734375 532.90234375 l 1
 35.5771484375 545.8359375 86.12890625 570.752929688 113.32421875 580.70703125 c 2
57.8994140625 536.868164062 m 1
 430.815429688 536.868164062 l 1
 430.815429688 500.9765625 l 1
 368.704101562 500.9765625 l 1
 368.704101562 142.274414062 l 2
 346.971679688 130.541015625 314.529296875 118.994140625 287.442382812 113.237304688 c 1
 287.442382812 500.9765625 l 1
 57.8994140625 500.9765625 l 1
 57.8994140625 536.868164062 l 1
-0 180.6796875 m 1
 46.36328125 134.315429688 l 1
 -0 134.315429688 l 1
 -0 180.6796875 l 1
423.029296875 180.6796875 m 1
 423.029296875 134.315429688 l 1
 376.666015625 134.315429688 l 1
 423.029296875 180.6796875 l 1
EndSplineSet
EndChar

StartChar: g.medi
Encoding: 282 57363 122
Width: 422
VWidth: 800
Flags: HW
LayerCount: 2
Fore
SplineSet
62.10546875 521.295898438 m 1
 143.368164062 521.295898438 l 1
 143.368164062 -69.7021484375 l 2
 121.6328125 -81.435546875 89.193359375 -92.98046875 62.10546875 -98.73828125 c 1
 62.10546875 521.295898438 l 1
-0 536.868164062 m 1
 438.6015625 536.868164062 l 1
 438.6015625 500.9765625 l 1
 376.489257812 500.9765625 l 1
 376.489257812 142.274414062 l 2
 354.7578125 130.541015625 322.315429688 118.994140625 295.228515625 113.237304688 c 1
 295.228515625 500.9765625 l 1
 -0 500.9765625 l 1
 -0 536.868164062 l 1
7.78515625 180.6796875 m 1
 54.1484375 134.315429688 l 1
 7.78515625 134.315429688 l 1
 7.78515625 180.6796875 l 1
430.815429688 180.6796875 m 1
 430.815429688 134.315429688 l 1
 384.451171875 134.315429688 l 1
 430.815429688 180.6796875 l 1
272.522460938 681.7734375 m 0
 272.522460938 652.376953125 248.69140625 628.546875 219.295898438 628.546875 c 0
 189.899414062 628.546875 166.069335938 652.376953125 166.069335938 681.7734375 c 0
 166.069335938 711.169921875 189.899414062 735 219.295898438 735 c 0
 248.69140625 735 272.522460938 711.169921875 272.522460938 681.7734375 c 0
EndSplineSet
EndChar

StartChar: g.fina
Encoding: 283 57364 123
Width: 422
VWidth: 800
Flags: HW
LayerCount: 2
Fore
SplineSet
380.618164062 566.72265625 m 1
 380.618164062 566.72265625 l 1
 378.5546875 549.518554688 376.490234375 503.22265625 376.490234375 465.74609375 c 2
 376.490234375 142.274414062 l 2
 354.755859375 130.541015625 322.315429688 118.995117188 295.228515625 113.237304688 c 1
 295.228515625 500.6875 l 1
 0 500.9765625 l 1
 0 536.868164062 l 1
 278.029296875 536.5859375 l 2
 314.37109375 549.485351562 344.380859375 558.448242188 380.618164062 566.72265625 c 1
62.1064453125 521.295898438 m 1
 143.368164062 521.295898438 l 1
 143.368164062 -69.7021484375 l 2
 121.633789062 -81.435546875 89.1943359375 -92.98046875 62.1064453125 -98.73828125 c 1
 62.1064453125 521.295898438 l 1
7.7861328125 180.6796875 m 1
 54.1494140625 134.315429688 l 1
 7.7861328125 134.315429688 l 1
 7.7861328125 180.6796875 l 1
430.809570312 180.6796875 m 1
 430.809570312 134.315429688 l 1
 384.4453125 134.315429688 l 1
 430.809570312 180.6796875 l 1
272.5234375 681.7734375 m 0
 272.5234375 652.376953125 248.692382812 628.546875 219.296875 628.546875 c 0
 189.900390625 628.546875 166.069335938 652.376953125 166.069335938 681.7734375 c 0
 166.069335938 711.169921875 189.900390625 735 219.296875 735 c 0
 248.692382812 735 272.5234375 711.169921875 272.5234375 681.7734375 c 0
EndSplineSet
EndChar

StartChar: h.init
Encoding: 284 57365 124
Width: 422
VWidth: 800
Flags: HW
LayerCount: 2
Fore
SplineSet
217.71875 648.1875 m 1
 298.979492188 661.021484375 l 1
 298.979492188 410.198242188 l 2
 298.979492188 327.724609375 337.263671875 296.325195312 390.424804688 296.325195312 c 0
 436.377929688 296.325195312 472.66015625 324.998046875 472.66015625 394.38671875 c 2
 472.66015625 660.69921875 l 1
 553.920898438 660.69921875 l 1
 553.920898438 417.94140625 l 2
 553.920898438 335.126953125 518.034179688 304.314453125 479.704101562 285.947265625 c 0
 457.33984375 275.229492188 422.145507812 262.534179688 401.819335938 257.087890625 c 0
 328.678710938 237.490234375 217.71875 256.390625 217.71875 386.642578125 c 2
 217.71875 648.1875 l 1
110.771484375 735 m 1
 165.895507812 669.38671875 l 1
 616.02734375 669.385742188 l 1
 616.02734375 633.494140625 l 1
 12.3818359375 633.494140625 l 2
 -1.3896484375 633.494140625 -3.6845703125 637.434570312 5.5556640625 646.063476562 c 0
 32.0322265625 670.767578125 78.8212890625 710.014648438 110.771484375 735 c 1
18.6845703125 313.198242188 m 1
 65.048828125 266.833984375 l 1
 18.6845703125 266.833984375 l 1
 18.6845703125 313.198242188 l 1
608.2421875 313.198242188 m 1
 608.2421875 266.833984375 l 1
 561.877929688 266.833984375 l 1
 608.2421875 313.198242188 l 1
EndSplineSet
EndChar

StartChar: h.medi
Encoding: 285 57366 125
Width: 422
VWidth: 800
Flags: HW
LayerCount: 2
Fore
SplineSet
-0 521.744140625 m 1
 205.4765625 521.743164062 l 1
 205.4765625 485.8515625 l 1
 -0 485.852539062 l 1
 -0 521.744140625 l 1
143.369140625 735 m 1
 143.369140625 127.149414062 l 2
 121.637695312 115.416992188 89.1943359375 103.870117188 62.1064453125 98.11328125 c 1
 62.1064453125 667.762695312 l 1
 26.095703125 708.064453125 l 1
 57.2734375 717.795898438 110.30078125 730.483398438 143.369140625 735 c 1
7.78515625 165.555664062 m 1
 54.1494140625 119.192382812 l 1
 7.78515625 119.192382812 l 1
 7.78515625 165.555664062 l 1
197.690429688 165.555664062 m 1
 197.690429688 119.192382812 l 1
 151.327148438 119.192382812 l 1
 197.690429688 165.555664062 l 1
EndSplineSet
EndChar

StartChar: h.fina
Encoding: 286 57367 126
Width: 422
VWidth: 800
Flags: HW
LayerCount: 2
Fore
SplineSet
-0 521.744140625 m 1
 112.747070312 521.743164062 l 1
 112.747070312 485.8515625 l 1
 -0 485.852539062 l 1
 -0 521.744140625 l 1
143.369140625 735 m 1
 143.369140625 127.149414062 l 2
 121.637695312 115.416992188 89.1943359375 103.870117188 62.1064453125 98.11328125 c 1
 62.1064453125 667.762695312 l 1
 26.095703125 708.064453125 l 1
 57.2734375 717.795898438 110.30078125 730.483398438 143.369140625 735 c 1
7.78515625 165.556640625 m 1
 54.1484375 119.192382812 l 1
 7.78515625 119.192382812 l 1
 7.78515625 165.556640625 l 1
197.690429688 165.556640625 m 1
 197.690429688 119.192382812 l 1
 151.327148438 119.192382812 l 1
 197.690429688 165.556640625 l 1
EndSplineSet
EndChar

StartChar: i.init
Encoding: 287 57368 127
Width: 422
VWidth: 800
Flags: HW
LayerCount: 2
Fore
SplineSet
113.326171875 735 m 2
 143.37890625 685.30078125 l 1
 135.584960938 655.266601562 l 1
 135.584960938 431.970703125 l 2
 135.584960938 349.497070312 173.870117188 318.09765625 227.03125 318.09765625 c 0
 272.984375 318.09765625 309.265625 346.770507812 309.265625 416.159179688 c 2
 309.265625 682.471679688 l 1
 390.52734375 682.471679688 l 1
 390.52734375 439.71484375 l 2
 390.52734375 356.899414062 354.639648438 326.086914062 316.310546875 307.719726562 c 0
 293.9453125 297.002929688 258.750976562 284.306640625 238.424804688 278.860351562 c 0
 165.284179688 259.262695312 54.32421875 278.163085938 54.32421875 408.415039062 c 2
 54.32421875 642.432617188 l 1
 12.595703125 687.193359375 l 1
 35.5810546875 700.126953125 86.130859375 725.045898438 113.326171875 735 c 2
92.947265625 691.158203125 m 1
 452.633789062 691.158203125 l 1
 452.633789062 655.266601562 l 1
 92.947265625 655.265625 l 1
 92.947265625 691.158203125 l 1
-0 334.970703125 m 1
 46.36328125 288.606445312 l 1
 -0 288.606445312 l 1
 -0 334.970703125 l 1
444.84765625 334.970703125 m 1
 444.84765625 288.606445312 l 1
 398.484375 288.606445312 l 1
 444.84765625 334.970703125 l 1
EndSplineSet
EndChar

StartChar: i.medi
Encoding: 288 57369 128
Width: 422
VWidth: 800
Flags: HW
LayerCount: 2
Fore
SplineSet
166.681640625 533.801757812 m 0
 168.34375 535.227539062 171.5859375 535.224609375 173.250976562 533.801757812 c 0
 188.083984375 521.125976562 202.536132812 507.813476562 216.681640625 493.991210938 c 2
 335.168945312 493.991210938 l 1
 335.168945312 458.098632812 l 1
 -0 458.098632812 l 1
 -0 493.991210938 l 1
 123.250976562 493.991210938 l 2
 137.168945312 507.596679688 151.616210938 520.884765625 166.681640625 533.801757812 c 0
113.598632812 735 m 1
 168.727539062 669.38671875 l 1
 230.025390625 669.38671875 l 2
 253.469726562 669.38671875 321.046875 674.49609375 337.103515625 675.712890625 c 1
 318.825195312 622.7890625 l 2
 298.5234375 628.293945312 250.625 633.494140625 229.541992188 633.494140625 c 2
 15.2099609375 633.494140625 l 2
 1.4404296875 633.494140625 -0.859375 637.434570312 8.38671875 646.063476562 c 0
 34.857421875 670.767578125 81.65234375 710.014648438 113.598632812 735 c 1
7.787109375 137.802734375 m 1
 54.1513671875 91.4384765625 l 1
 7.787109375 91.4384765625 l 1
 7.787109375 137.802734375 l 1
327.3828125 137.802734375 m 1
 327.3828125 91.4384765625 l 1
 281.018554688 91.4384765625 l 1
 327.3828125 137.802734375 l 1
EndSplineSet
EndChar

StartChar: i.fina
Encoding: 289 57370 129
Width: 422
VWidth: 800
Flags: HW
LayerCount: 2
Fore
SplineSet
277.577148438 735 m 1
 275.512695312 717.795898438 273.44921875 671.5 273.44921875 634.0234375 c 2
 273.44921875 169.12890625 l 2
 273.44921875 110.098632812 259.559570312 87.0615234375 160.858398438 76.4697265625 c 1
 145.990234375 130.35546875 146.415039062 133.15625 15.57421875 149.010742188 c 1
 15.57421875 168.475585938 l 1
 58.5341796875 166.57421875 146.043945312 162.61328125 165.772460938 162.61328125 c 0
 185.213867188 162.61328125 192.1875 168.298828125 192.1875 184.600585938 c 2
 192.1875 668.971679688 l 1
 0 668.96875 l 1
 0 704.860351562 l 1
 174.98828125 704.864257812 l 2
 211.330078125 717.762695312 241.33984375 726.725585938 277.577148438 735 c 1
127.375976562 595.686523438 m 1
 127.375976562 311.4375 l 2
 111.421875 302.823242188 87.60546875 294.34765625 67.720703125 290.12109375 c 1
 67.720703125 546.328125 l 1
 41.28515625 575.9140625 l 1
 64.1728515625 583.056640625 103.099609375 592.37109375 127.375976562 595.686523438 c 1
327.767578125 348.671875 m 1
 327.767578125 302.307617188 l 1
 281.404296875 302.307617188 l 1
 327.767578125 348.671875 l 1
7.787109375 348.671875 m 1
 54.150390625 302.307617188 l 1
 7.787109375 302.307617188 l 1
 7.787109375 348.671875 l 1
EndSplineSet
EndChar

StartChar: j.fina
Encoding: 290 57373 130
Width: 422
VWidth: 800
Flags: HW
LayerCount: 2
Fore
SplineSet
143.366210938 696.169921875 m 1
 143.366210938 462.444335938 l 2
 143.366210938 379.970703125 181.370117188 326.298828125 264.79296875 326.298828125 c 0
 308.600585938 326.298828125 338.537109375 332.0546875 413.514648438 410.828125 c 1
 380.439453125 320.833984375 l 2
 362.749023438 313.911132812 321.3125 298.606445312 300.87109375 293.12890625 c 0
 156.048828125 254.32421875 62.1044921875 310.616210938 62.1044921875 438.888671875 c 2
 62.1044921875 696.169921875 l 1
 143.366210938 696.169921875 l 1
450.908203125 735 m 1
 448.84375 717.795898438 446.778320312 671.5 446.778320312 634.0234375 c 2
 446.778320312 357.59765625 l 1
 480.622070312 311.825195312 l 1
 455.021484375 299.200195312 416.547851562 288.345703125 383.245117188 282.788085938 c 1
 365.521484375 340.00390625 l 1
 365.517578125 668.971679688 l 1
 0 668.96484375 l 1
 0 704.856445312 l 1
 348.318359375 704.864257812 l 2
 384.66015625 717.762695312 414.669921875 726.725585938 450.908203125 735 c 1
7.7861328125 348.66796875 m 1
 54.1494140625 302.303710938 l 1
 7.7861328125 302.303710938 l 1
 7.7861328125 348.66796875 l 1
501.100585938 348.66796875 m 1
 501.100585938 302.303710938 l 1
 454.737304688 302.303710938 l 1
 501.100585938 348.66796875 l 1
EndSplineSet
EndChar

StartChar: k.init
Encoding: 291 57374 131
Width: 422
VWidth: 800
Flags: HW
LayerCount: 2
Fore
SplineSet
304.349609375 68.359375 m 1
 249.220703125 133.97265625 l 1
 187.922851562 133.97265625 l 2
 164.478515625 133.97265625 96.9052734375 128.864257812 80.84765625 127.647460938 c 1
 99.1259765625 180.5703125 l 2
 119.427734375 175.064453125 167.326171875 169.865234375 188.409179688 169.865234375 c 2
 402.737304688 169.865234375 l 2
 416.506835938 169.865234375 418.806640625 165.924804688 409.561523438 157.295898438 c 0
 383.090820312 132.591796875 336.294921875 93.3447265625 304.349609375 68.359375 c 1
105.330078125 680.360351562 m 1
 166.551757812 695.977539062 l 2
 274.791015625 697.204101562 330.033203125 647.547851562 330.033203125 546.219726562 c 0
 330.033203125 462.954101562 277.87109375 401.009765625 208.546875 379.831054688 c 0
 193.642578125 375.278320312 153.759765625 364.6328125 128.975585938 358.735351562 c 0
 102.609375 352.462890625 60.21875 350.541015625 24.7099609375 358.92578125 c 1
 91.8759765625 384.65234375 l 1
 112.155273438 339.943359375 175.084960938 312.755859375 251.369140625 312.755859375 c 0
 329.393554688 312.755859375 401.887695312 357.151367188 431.008789062 426.556640625 c 1
 476.51953125 388.676757812 l 1
 451.51171875 351.682617188 421.141601562 328.27734375 377.915039062 310.283203125 c 0
 361.67578125 303.522460938 274.326171875 274.056640625 245.283203125 267.225585938 c 0
 159.494140625 259.475585938 38.423828125 300.52734375 14.3232421875 362.346679688 c 2
 14.3232421875 371.586914062 l 1
 90.6455078125 390.66796875 l 2
 96.1943359375 390.608398438 101.38671875 390.5078125 112.516601562 390.5078125 c 0
 192.768554688 390.5078125 247.9765625 452.6796875 247.9765625 528.522460938 c 0
 247.9765625 614.883789062 203.783203125 663.501953125 105.330078125 662.959960938 c 1
 105.330078125 680.360351562 l 1
472.159179688 689.094726562 m 1
 573.751953125 689.094726562 l 1
 573.751953125 653.203125 l 1
 472.159179688 653.203125 l 1
 472.159179688 689.094726562 l 1
489.383789062 735 m 2
 519.436523438 685.30078125 l 1
 511.642578125 655.266601562 l 1
 511.642578125 294.500976562 l 2
 489.908203125 282.767578125 457.467773438 271.220703125 430.381835938 265.462890625 c 1
 430.381835938 642.432617188 l 1
 388.654296875 687.193359375 l 1
 411.638671875 700.126953125 462.188476562 725.045898438 489.383789062 735 c 2
-0 332.905273438 m 1
 46.36328125 286.541992188 l 1
 -0 286.541992188 l 1
 -0 332.905273438 l 1
565.965820312 332.905273438 m 1
 565.965820312 286.541992188 l 1
 519.602539062 286.541992188 l 1
 565.965820312 332.905273438 l 1
EndSplineSet
EndChar

StartChar: k.medi
Encoding: 292 57375 132
Width: 422
VWidth: 800
Flags: HW
LayerCount: 2
Fore
SplineSet
122.248046875 717.053710938 m 1
 203.508789062 717.053710938 l 1
 203.508789062 340.233398438 l 2
 181.774414062 328.5 149.333984375 316.953125 122.248046875 311.1953125 c 1
 122.248046875 717.053710938 l 1
0 735 m 1
 325.755859375 735 l 1
 325.755859375 699.108398438 l 1
 0 699.108398438 l 1
 0 735 l 1
193.837890625 114.265625 m 1
 138.708984375 179.87890625 l 1
 122.666015625 179.87890625 l 2
 99.22265625 179.87890625 31.6494140625 174.76953125 15.5908203125 173.552734375 c 1
 33.8701171875 226.4765625 l 2
 54.1708984375 220.970703125 102.069335938 215.770507812 123.15234375 215.770507812 c 2
 292.225585938 215.770507812 l 2
 305.995117188 215.770507812 308.294921875 211.830078125 299.049804688 203.201171875 c 0
 272.579101562 178.497070312 225.783203125 139.25 193.837890625 114.265625 c 1
7.7861328125 378.811523438 m 1
 54.1494140625 332.447265625 l 1
 7.7861328125 332.447265625 l 1
 7.7861328125 378.811523438 l 1
317.970703125 378.811523438 m 1
 317.970703125 332.447265625 l 1
 271.607421875 332.447265625 l 1
 317.970703125 378.811523438 l 1
EndSplineSet
EndChar

StartChar: k.fina
Encoding: 293 57376 133
Width: 422
VWidth: 800
Flags: HW
LayerCount: 2
Fore
SplineSet
154.298828125 735 m 1
 209.427734375 669.38671875 l 1
 270.729492188 669.38671875 l 2
 294.172851562 669.38671875 361.743164062 674.49609375 377.80078125 675.712890625 c 1
 359.526367188 622.7890625 l 2
 339.223632812 628.293945312 291.325195312 633.494140625 270.243164062 633.494140625 c 2
 55.9111328125 633.494140625 l 2
 42.1416015625 633.494140625 39.841796875 637.434570312 49.0869140625 646.063476562 c 0
 75.55859375 670.767578125 122.352539062 710.014648438 154.298828125 735 c 1
143.3671875 450.944335938 m 1
 143.3671875 -57.4462890625 l 2
 121.633789062 -69.1796875 89.193359375 -80.7265625 62.1064453125 -86.484375 c 1
 62.1064453125 383.708007812 l 1
 26.0927734375 424.009765625 l 1
 57.26953125 433.739257812 110.298828125 446.427734375 143.3671875 450.944335938 c 1
429.577148438 579.259765625 m 1
 427.513671875 562.055664062 425.44921875 515.759765625 425.44921875 478.283203125 c 2
 425.44921875 225.188476562 l 2
 425.44921875 166.157226562 411.5546875 143.12109375 312.853515625 132.530273438 c 1
 297.986328125 186.416015625 277.599609375 196.455078125 206.501953125 205.0703125 c 1
 206.501953125 224.53515625 l 1
 249.4609375 222.633789062 294.243164062 218.672851562 317.772460938 218.672851562 c 0
 337.21484375 218.672851562 344.1875 224.356445312 344.1875 240.658203125 c 2
 344.1875 513.231445312 l 1
 0 513.231445312 l 1
 0 549.124023438 l 1
 326.98828125 549.124023438 l 2
 363.330078125 562.0234375 393.33984375 570.985351562 429.577148438 579.259765625 c 1
7.7861328125 192.934570312 m 1
 54.1494140625 146.571289062 l 1
 7.7861328125 146.571289062 l 1
 7.7861328125 192.934570312 l 1
479.767578125 192.934570312 m 1
 479.767578125 146.571289062 l 1
 433.404296875 146.571289062 l 1
 479.767578125 192.934570312 l 1
EndSplineSet
EndChar

StartChar: l.init
Encoding: 294 57377 134
Width: 422
VWidth: 800
Flags: HW
LayerCount: 2
Fore
SplineSet
472.16015625 689.094726562 m 1
 573.751953125 689.094726562 l 1
 573.751953125 653.203125 l 1
 472.16015625 653.203125 l 1
 472.16015625 689.094726562 l 1
489.383789062 735 m 2
 519.436523438 685.30078125 l 1
 511.642578125 655.266601562 l 1
 511.642578125 294.786132812 l 2
 489.908203125 283.052734375 457.46875 271.506835938 430.381835938 265.749023438 c 1
 430.381835938 642.432617188 l 1
 388.654296875 687.193359375 l 1
 411.638671875 700.126953125 462.189453125 725.045898438 489.383789062 735 c 2
105.331054688 680.360351562 m 1
 166.551757812 695.977539062 l 2
 274.791015625 697.204101562 330.033203125 647.547851562 330.033203125 546.219726562 c 0
 330.033203125 462.954101562 277.87109375 401.009765625 208.546875 379.831054688 c 0
 193.643554688 375.278320312 153.759765625 364.6328125 128.9765625 358.735351562 c 0
 102.609375 352.462890625 60.21875 350.541015625 24.7099609375 358.92578125 c 1
 91.8759765625 384.65234375 l 1
 112.155273438 339.943359375 175.084960938 312.755859375 251.369140625 312.755859375 c 0
 329.393554688 312.755859375 401.887695312 357.151367188 431.008789062 426.556640625 c 1
 476.555664062 388.728515625 l 1
 451.541015625 351.705078125 421.163085938 328.286132812 377.916015625 310.283203125 c 0
 361.67578125 303.522460938 274.327148438 274.056640625 245.284179688 267.225585938 c 0
 159.494140625 259.475585938 38.423828125 300.52734375 14.3232421875 362.346679688 c 2
 14.3232421875 371.586914062 l 1
 90.646484375 390.66796875 l 2
 96.1943359375 390.608398438 101.38671875 390.5078125 112.516601562 390.5078125 c 0
 192.768554688 390.5078125 247.9765625 452.6796875 247.9765625 528.522460938 c 0
 247.9765625 614.883789062 203.784179688 663.501953125 105.331054688 662.959960938 c 1
 105.331054688 680.360351562 l 1
196.197265625 32.75 m 0
 194.768554688 32.75 193.260742188 33.9091796875 191.909179688 36.6259765625 c 0
 174.782226562 71.0498046875 144.354492188 135.557617188 126.12890625 178.022460938 c 1
 138.3359375 178.022460938 l 1
 196.197265625 148.985351562 l 1
 254.059570312 178.022460938 l 1
 266.266601562 178.022460938 l 1
 248.041015625 135.557617188 217.61328125 71.0498046875 200.486328125 36.6259765625 c 0
 199.138671875 33.916015625 197.626953125 32.75 196.197265625 32.75 c 0
-0 332.905273438 m 1
 46.36328125 286.541992188 l 1
 -0 286.541992188 l 1
 -0 332.905273438 l 1
565.965820312 332.905273438 m 1
 565.965820312 286.541992188 l 1
 519.602539062 286.541992188 l 1
 565.965820312 332.905273438 l 1
EndSplineSet
EndChar

StartChar: l.medi
Encoding: 295 57378 135
Width: 422
VWidth: 800
Flags: HW
LayerCount: 2
Fore
SplineSet
62.109375 717.055664062 m 1
 143.370117188 717.055664062 l 1
 143.370117188 340.234375 l 2
 121.63671875 328.501953125 89.1962890625 316.955078125 62.109375 311.197265625 c 1
 62.109375 717.055664062 l 1
0 735 m 1
 205.477539062 735 l 1
 205.477539062 699.108398438 l 1
 0 699.108398438 l 1
 0 735 l 1
102.737304688 78.6552734375 m 0
 101.30859375 78.6552734375 99.80078125 79.814453125 98.44921875 82.53125 c 0
 81.322265625 116.955078125 50.89453125 181.462890625 32.6689453125 223.927734375 c 1
 44.8759765625 223.927734375 l 1
 102.737304688 194.890625 l 1
 160.599609375 223.927734375 l 1
 172.806640625 223.927734375 l 1
 154.581054688 181.462890625 124.154296875 116.955078125 107.026367188 82.53125 c 0
 105.678710938 79.8212890625 104.166992188 78.6552734375 102.737304688 78.6552734375 c 0
7.7861328125 378.811523438 m 1
 54.1494140625 332.447265625 l 1
 7.7861328125 332.447265625 l 1
 7.7861328125 378.811523438 l 1
197.69140625 378.811523438 m 1
 197.69140625 332.447265625 l 1
 151.328125 332.447265625 l 1
 197.69140625 378.811523438 l 1
EndSplineSet
EndChar

StartChar: l.fina
Encoding: 296 57379 136
Width: 422
VWidth: 800
Flags: HW
LayerCount: 2
Fore
SplineSet
213.276367188 735 m 0
 214.706054688 735 216.217773438 733.833984375 217.565429688 731.124023438 c 0
 234.693359375 696.700195312 265.120117188 632.192382812 283.345703125 589.727539062 c 1
 271.138671875 589.727539062 l 1
 213.276367188 618.764648438 l 1
 155.415039062 589.727539062 l 1
 143.208007812 589.727539062 l 1
 161.43359375 632.192382812 191.861328125 696.700195312 208.98828125 731.124023438 c 0
 210.33984375 733.840820312 211.84765625 735 213.276367188 735 c 0
143.3671875 404.012695312 m 1
 143.3671875 -104.377929688 l 2
 121.633789062 -116.111328125 89.193359375 -127.658203125 62.1064453125 -133.415039062 c 1
 62.1064453125 336.776367188 l 1
 26.0927734375 377.078125 l 1
 57.26953125 386.80859375 110.298828125 399.49609375 143.3671875 404.012695312 c 1
429.577148438 532.328125 m 1
 427.512695312 515.124023438 425.44921875 468.828125 425.44921875 431.3515625 c 2
 425.44921875 178.256835938 l 2
 425.44921875 119.2265625 411.553710938 96.189453125 312.853515625 85.5986328125 c 1
 297.986328125 139.484375 277.599609375 149.5234375 206.500976562 158.138671875 c 1
 206.500976562 177.603515625 l 1
 249.4609375 175.702148438 294.243164062 171.741210938 317.772460938 171.741210938 c 0
 337.213867188 171.741210938 344.1875 177.424804688 344.1875 193.7265625 c 2
 344.1875 466.30078125 l 1
 -0 466.30078125 l 1
 -0 502.192382812 l 1
 326.98828125 502.192382812 l 2
 363.330078125 515.091796875 393.33984375 524.053710938 429.577148438 532.328125 c 1
7.78515625 146.00390625 m 1
 54.1494140625 99.6396484375 l 1
 7.78515625 99.6396484375 l 1
 7.78515625 146.00390625 l 1
479.767578125 146.00390625 m 1
 479.767578125 99.6396484375 l 1
 433.403320312 99.6396484375 l 1
 479.767578125 146.00390625 l 1
EndSplineSet
EndChar

StartChar: m.init
Encoding: 297 57380 137
Width: 422
VWidth: 800
Flags: HW
LayerCount: 2
Fore
SplineSet
105.331054688 528.134765625 m 1
 166.552734375 543.751953125 l 2
 274.791015625 544.978515625 330.034179688 495.322265625 330.034179688 393.994140625 c 0
 330.034179688 310.727539062 277.87109375 248.783203125 208.547851562 227.60546875 c 0
 193.643554688 223.052734375 153.760742188 212.40625 128.9765625 206.509765625 c 0
 102.609375 200.236328125 60.21875 198.314453125 24.7099609375 206.69921875 c 1
 91.8759765625 232.42578125 l 1
 112.15625 187.716796875 175.084960938 160.530273438 251.369140625 160.530273438 c 0
 329.393554688 160.530273438 401.887695312 204.92578125 431.009765625 274.330078125 c 1
 475.42578125 234.844726562 l 1
 450.626953125 198.77734375 420.513671875 175.790039062 377.916015625 158.057617188 c 0
 361.67578125 151.296875 274.327148438 121.831054688 245.284179688 115 c 0
 159.494140625 107.25 38.4248046875 148.30078125 14.32421875 210.120117188 c 2
 14.32421875 219.361328125 l 1
 90.646484375 238.442382812 l 2
 96.1943359375 238.381835938 101.38671875 238.282226562 112.516601562 238.282226562 c 0
 192.768554688 238.282226562 247.9765625 300.454101562 247.9765625 376.295898438 c 0
 247.9765625 462.658203125 203.784179688 511.276367188 105.331054688 510.734375 c 1
 105.331054688 528.134765625 l 1
472.16015625 536.868164062 m 1
 573.751953125 536.868164062 l 1
 573.751953125 500.9765625 l 1
 472.16015625 500.9765625 l 1
 472.16015625 536.868164062 l 1
489.384765625 582.774414062 m 2
 519.436523438 533.07421875 l 1
 511.642578125 503.041015625 l 1
 511.642578125 -69.6962890625 l 2
 489.909179688 -81.4296875 457.46875 -92.9765625 430.381835938 -98.734375 c 1
 430.381835938 490.20703125 l 1
 388.654296875 534.967773438 l 1
 411.638671875 547.901367188 462.189453125 572.8203125 489.384765625 582.774414062 c 2
335.977539062 681.7734375 m 0
 335.977539062 652.376953125 312.147460938 628.546875 282.751953125 628.546875 c 0
 253.35546875 628.546875 229.525390625 652.376953125 229.525390625 681.7734375 c 0
 229.525390625 711.169921875 253.35546875 735 282.751953125 735 c 0
 312.147460938 735 335.977539062 711.169921875 335.977539062 681.7734375 c 0
0 180.680664062 m 1
 46.3642578125 134.31640625 l 1
 0 134.31640625 l 1
 0 180.680664062 l 1
565.966796875 180.680664062 m 1
 565.966796875 134.31640625 l 1
 519.602539062 134.31640625 l 1
 565.966796875 180.680664062 l 1
EndSplineSet
EndChar

StartChar: m.medi
Encoding: 298 57381 138
Width: 422
VWidth: 800
Flags: HW
LayerCount: 2
Fore
SplineSet
160.830078125 167.272460938 m 0
 160.830078125 137.875976562 137 114.045898438 107.603515625 114.045898438 c 0
 78.2080078125 114.045898438 54.376953125 137.875976562 54.376953125 167.272460938 c 0
 54.376953125 196.668945312 78.2080078125 220.499023438 107.603515625 220.499023438 c 0
 137 220.499023438 160.830078125 196.668945312 160.830078125 167.272460938 c 0
62.109375 717.055664062 m 1
 143.37109375 717.055664062 l 1
 143.37109375 340.234375 l 2
 121.63671875 328.501953125 89.1962890625 316.955078125 62.109375 311.197265625 c 1
 62.109375 717.055664062 l 1
0 735 m 1
 205.477539062 735 l 1
 205.477539062 699.108398438 l 1
 0 699.108398438 l 1
 0 735 l 1
7.7861328125 378.811523438 m 1
 54.1494140625 332.447265625 l 1
 7.7861328125 332.447265625 l 1
 7.7861328125 378.811523438 l 1
197.692382812 378.811523438 m 1
 197.692382812 332.447265625 l 1
 151.328125 332.447265625 l 1
 197.692382812 378.811523438 l 1
EndSplineSet
EndChar

StartChar: m.fina
Encoding: 299 57382 139
Width: 422
VWidth: 800
Flags: HW
LayerCount: 2
Fore
SplineSet
279.549804688 681.7734375 m 0
 279.549804688 652.376953125 255.71875 628.546875 226.323242188 628.546875 c 0
 196.927734375 628.546875 173.095703125 652.376953125 173.095703125 681.7734375 c 0
 173.095703125 711.169921875 196.927734375 735 226.323242188 735 c 0
 255.71875 735 279.549804688 711.169921875 279.549804688 681.7734375 c 0
143.3671875 438.689453125 m 1
 143.3671875 -69.7021484375 l 2
 121.633789062 -81.435546875 89.193359375 -92.9814453125 62.1064453125 -98.7392578125 c 1
 62.1064453125 371.452148438 l 1
 26.0927734375 411.75390625 l 1
 57.26953125 421.484375 110.298828125 434.171875 143.3671875 438.689453125 c 1
429.578125 567.004882812 m 1
 427.513671875 549.799804688 425.44921875 503.50390625 425.44921875 466.02734375 c 2
 425.44921875 212.93359375 l 2
 425.44921875 153.90234375 411.5546875 130.865234375 312.853515625 120.274414062 c 1
 297.986328125 174.16015625 277.599609375 184.19921875 206.501953125 192.814453125 c 1
 206.501953125 212.279296875 l 1
 249.4609375 210.37890625 294.243164062 206.416992188 317.772460938 206.416992188 c 0
 337.21484375 206.416992188 344.1875 212.100585938 344.1875 228.40234375 c 2
 344.1875 500.9765625 l 1
 0 500.9765625 l 1
 0 536.868164062 l 1
 326.98828125 536.868164062 l 2
 363.330078125 549.767578125 393.33984375 558.73046875 429.578125 567.004882812 c 1
7.7861328125 180.6796875 m 1
 54.1494140625 134.315429688 l 1
 7.7861328125 134.315429688 l 1
 7.7861328125 180.6796875 l 1
479.767578125 180.6796875 m 1
 479.767578125 134.315429688 l 1
 433.404296875 134.315429688 l 1
 479.767578125 180.6796875 l 1
EndSplineSet
EndChar

StartChar: n.fina
Encoding: 300 57385 140
Width: 422
VWidth: 800
Flags: HW
LayerCount: 2
Fore
SplineSet
147.499023438 735 m 1
 145.43359375 717.795898438 143.369140625 671.5 143.369140625 634.0234375 c 2
 143.369140625 98.2939453125 l 2
 121.635742188 86.560546875 89.1943359375 75.0146484375 62.107421875 69.2568359375 c 1
 62.107421875 668.971679688 l 1
 -0 668.971679688 l 1
 -0 704.864257812 l 1
 44.9091796875 704.864257812 l 2
 81.2509765625 717.763671875 111.260742188 726.725585938 147.499023438 735 c 1
7.78515625 348.67578125 m 1
 54.1494140625 302.311523438 l 1
 7.78515625 302.311523438 l 1
 7.78515625 348.67578125 l 1
197.690429688 348.67578125 m 1
 197.690429688 302.311523438 l 1
 151.327148438 302.311523438 l 1
 197.690429688 348.67578125 l 1
EndSplineSet
EndChar

StartChar: o.init
Encoding: 301 57386 141
Width: 422
VWidth: 800
Flags: HW
LayerCount: 2
Fore
SplineSet
299.321289062 681.7734375 m 0
 299.321289062 652.376953125 275.490234375 628.546875 246.094726562 628.546875 c 0
 216.698242188 628.546875 192.8671875 652.376953125 192.8671875 681.7734375 c 0
 192.8671875 711.169921875 216.698242188 735 246.094726562 735 c 0
 275.490234375 735 299.321289062 711.169921875 299.321289062 681.7734375 c 0
113.325195312 556.379882812 m 2
 143.376953125 506.680664062 l 1
 135.583984375 476.647460938 l 1
 135.583984375 270.127929688 l 2
 135.583984375 187.654296875 173.587890625 133.981445312 257.010742188 133.981445312 c 0
 300.818359375 133.981445312 330.755859375 139.739257812 405.732421875 218.51171875 c 1
 372.658203125 128.518554688 l 2
 354.967773438 121.595703125 313.530273438 106.288085938 293.088867188 100.811523438 c 0
 148.266601562 62.0068359375 54.322265625 118.299804688 54.322265625 246.572265625 c 2
 54.322265625 463.8125 l 1
 12.595703125 508.57421875 l 1
 35.580078125 521.5078125 86.1298828125 546.42578125 113.325195312 556.379882812 c 2
357.73828125 503.852539062 m 1
 438.999023438 503.852539062 l 1
 438.999023438 165.280273438 l 1
 472.841796875 119.5078125 l 1
 447.241210938 106.8828125 408.767578125 96.0283203125 375.46484375 90.470703125 c 1
 357.73828125 147.686523438 l 1
 357.73828125 503.852539062 l 1
57.9033203125 512.540039062 m 1
 501.103515625 512.5390625 l 1
 501.103515625 476.647460938 l 1
 57.9033203125 476.647460938 l 1
 57.9033203125 512.540039062 l 1
-0 156.350585938 m 1
 46.36328125 109.987304688 l 1
 -0 109.987304688 l 1
 -0 156.350585938 l 1
493.318359375 156.350585938 m 1
 493.318359375 109.987304688 l 1
 446.955078125 109.987304688 l 1
 493.318359375 156.350585938 l 1
EndSplineSet
EndChar

StartChar: o.medi
Encoding: 302 57387 142
Width: 422
VWidth: 800
Flags: HW
LayerCount: 2
Fore
SplineSet
446.775390625 735 m 1
 446.779296875 174.485351562 l 1
 480.62109375 128.712890625 l 1
 455.021484375 116.087890625 416.546875 105.232421875 383.244140625 99.6748046875 c 1
 365.517578125 156.890625 l 1
 365.513671875 667.762695312 l 1
 329.50390625 708.065429688 l 1
 360.680664062 717.794921875 413.70703125 730.483398438 446.775390625 735 c 1
501.099609375 165.555664062 m 1
 501.099609375 119.19140625 l 1
 454.736328125 119.19140625 l 1
 501.099609375 165.555664062 l 1
143.365234375 513.056640625 m 1
 143.365234375 279.331054688 l 2
 143.365234375 196.858398438 181.370117188 143.185546875 264.791992188 143.185546875 c 0
 308.600585938 143.185546875 338.537109375 148.942382812 413.513671875 227.71484375 c 1
 380.439453125 137.721679688 l 2
 362.749023438 130.798828125 321.311523438 115.493164062 300.870117188 110.016601562 c 0
 156.048828125 71.2109375 62.1044921875 127.50390625 62.1044921875 255.776367188 c 2
 62.1044921875 513.056640625 l 1
 143.365234375 513.056640625 l 1
508.885742188 521.744140625 m 1
 508.885742188 485.853515625 l 1
 -0 485.852539062 l 1
 -0 521.744140625 l 1
 508.885742188 521.744140625 l 1
7.78515625 165.5546875 m 1
 54.1494140625 119.19140625 l 1
 7.78515625 119.19140625 l 1
 7.78515625 165.5546875 l 1
EndSplineSet
EndChar

StartChar: o.fina
Encoding: 303 57388 143
Width: 422
VWidth: 800
Flags: HW
LayerCount: 2
Fore
SplineSet
143.366210938 503.852539062 m 1
 143.366210938 270.126953125 l 2
 143.366210938 187.654296875 181.370117188 133.981445312 264.791992188 133.981445312 c 0
 308.600585938 133.981445312 338.537109375 139.73828125 413.513671875 218.510742188 c 1
 380.439453125 128.516601562 l 2
 362.749023438 121.594726562 321.3125 106.2890625 300.87109375 100.811523438 c 0
 156.048828125 62.0068359375 62.1044921875 118.298828125 62.1044921875 246.572265625 c 2
 62.1044921875 503.852539062 l 1
 143.366210938 503.852539062 l 1
450.907226562 542.68359375 m 1
 448.84375 525.478515625 446.778320312 479.182617188 446.778320312 441.706054688 c 2
 446.778320312 165.280273438 l 1
 480.62109375 119.5078125 l 1
 455.021484375 106.8828125 416.546875 96.0283203125 383.245117188 90.470703125 c 1
 365.520507812 147.686523438 l 1
 365.517578125 476.655273438 l 1
 -0 476.647460938 l 1
 -0 512.540039062 l 1
 348.318359375 512.546875 l 2
 384.66015625 525.446289062 414.669921875 534.408203125 450.907226562 542.68359375 c 1
307.100585938 681.7734375 m 0
 307.100585938 652.376953125 283.26953125 628.546875 253.874023438 628.546875 c 0
 224.478515625 628.546875 200.647460938 652.376953125 200.647460938 681.7734375 c 0
 200.647460938 711.169921875 224.478515625 735 253.874023438 735 c 0
 283.26953125 735 307.100585938 711.169921875 307.100585938 681.7734375 c 0
7.78515625 156.350585938 m 1
 54.1494140625 109.986328125 l 1
 7.78515625 109.986328125 l 1
 7.78515625 156.350585938 l 1
501.1015625 156.350585938 m 1
 501.1015625 109.986328125 l 1
 454.737304688 109.986328125 l 1
 501.1015625 156.350585938 l 1
EndSplineSet
EndChar

StartChar: p.fina
Encoding: 304 57391 144
Width: 422
VWidth: 800
Flags: HW
LayerCount: 2
Fore
SplineSet
147.497070312 735 m 1
 147.497070312 735 l 1
 145.432617188 717.795898438 143.369140625 671.5 143.369140625 634.0234375 c 2
 143.369140625 310.551757812 l 2
 121.634765625 298.818359375 89.1943359375 287.272460938 62.107421875 281.514648438 c 1
 62.107421875 668.96484375 l 1
 -0 668.96484375 l 1
 -0 704.856445312 l 1
 44.908203125 704.86328125 l 2
 81.25 717.762695312 111.259765625 726.725585938 147.497070312 735 c 1
7.78515625 348.66796875 m 1
 54.1494140625 302.303710938 l 1
 7.78515625 302.303710938 l 1
 7.78515625 348.66796875 l 1
197.6875 348.66796875 m 1
 197.6875 302.303710938 l 1
 151.32421875 302.303710938 l 1
 197.6875 348.66796875 l 1
EndSplineSet
EndChar

StartChar: q.fina
Encoding: 305 57394 145
Width: 422
VWidth: 800
Flags: HW
LayerCount: 2
Fore
SplineSet
172.908203125 735 m 1
 228.036132812 669.38671875 l 1
 339.45703125 669.38671875 l 2
 362.900390625 669.38671875 430.473632812 674.49609375 446.53125 675.712890625 c 1
 428.252929688 622.7890625 l 2
 407.951171875 628.293945312 360.052734375 633.494140625 338.969726562 633.494140625 c 2
 74.515625 633.494140625 l 2
 60.7470703125 633.494140625 58.447265625 637.434570312 67.6923828125 646.063476562 c 0
 94.1640625 670.767578125 140.961914062 710.014648438 172.908203125 735 c 1
147.498046875 524.126953125 m 1
 145.43359375 506.922851562 143.369140625 460.626953125 143.369140625 423.150390625 c 2
 143.369140625 -112.573242188 l 2
 121.634765625 -124.306640625 89.1943359375 -135.852539062 62.107421875 -141.610351562 c 1
 62.107421875 458.098632812 l 1
 -0 458.098632812 l 1
 -0 493.991210938 l 1
 44.9091796875 493.991210938 l 2
 81.25 506.890625 111.260742188 515.852539062 147.498046875 524.126953125 c 1
321.055664062 503.912109375 m 0
 437.162109375 511.33984375 509.370117188 472.973632812 509.370117188 380.083984375 c 0
 509.370117188 248.69140625 395.724609375 166.549804688 298.728515625 130.193359375 c 0
 168.125976562 81.240234375 154.478515625 80.45703125 93.8623046875 77.826171875 c 0
 42.306640625 75.587890625 64.572265625 129.407226562 140.578125 129.407226562 c 0
 263.4921875 124.0546875 425.185546875 221.530273438 425.185546875 363.5390625 c 0
 425.185546875 443.053710938 372.147460938 462.021484375 309.373046875 462.021484375 c 0
 250.31640625 462.021484375 167.434570312 420.375976562 143.368164062 396.504882812 c 1
 126.465820312 443.922851562 l 1
 222.876953125 477.857421875 293.005859375 496.931640625 321.055664062 503.912109375 c 0
7.78515625 137.802734375 m 1
 54.1484375 91.439453125 l 1
 7.78515625 91.439453125 l 1
 7.78515625 137.802734375 l 1
537.913085938 137.802734375 m 1
 537.913085938 91.439453125 l 1
 491.549804688 91.439453125 l 1
 537.913085938 137.802734375 l 1
EndSplineSet
EndChar

StartChar: r.init
Encoding: 306 57395 146
Width: 422
VWidth: 800
Flags: HW
LayerCount: 2
Fore
SplineSet
113.325195312 735 m 2
 143.376953125 685.30078125 l 1
 135.583007812 655.266601562 l 1
 135.583007812 514.665039062 l 1
 135.583007812 448.747070312 l 2
 135.583007812 366.274414062 173.587890625 312.600585938 257.009765625 312.600585938 c 0
 290.047851562 312.600585938 325.422851562 327.721679688 357.735351562 364.731445312 c 0
 388.172851562 373.016601562 417.788085938 380.0703125 446.79296875 386.206054688 c 1
 444.911132812 373.034179688 438.997070312 323.94140625 438.997070312 297.329101562 c 2
 438.997070312 84.59375 l 2
 417.263671875 72.8603515625 384.822265625 61.314453125 357.735351562 55.556640625 c 1
 357.735351562 301.458007812 l 1
 337.47265625 293.866210938 309.048828125 283.708007812 293.087890625 279.430664062 c 0
 148.266601562 240.625976562 54.322265625 296.918945312 54.322265625 425.192382812 c 2
 54.322265625 485.630859375 l 1
 54.322265625 642.432617188 l 1
 12.5947265625 687.193359375 l 1
 35.5791015625 700.126953125 86.1298828125 725.045898438 113.325195312 735 c 2
57.9033203125 691.159179688 m 1
 501.104492188 691.159179688 l 1
 501.104492188 655.266601562 l 1
 57.9033203125 655.267578125 l 1
 57.9033203125 691.159179688 l 1
0 334.970703125 m 1
 46.36328125 288.606445312 l 1
 0 288.606445312 l 1
 0 334.970703125 l 1
493.318359375 334.970703125 m 1
 493.318359375 288.606445312 l 1
 446.955078125 288.606445312 l 1
 493.318359375 334.970703125 l 1
EndSplineSet
EndChar

StartChar: r.medi
Encoding: 307 57396 147
Width: 422
VWidth: 800
Flags: HW
LayerCount: 2
Fore
SplineSet
376.047851562 735 m 2
 406.1015625 685.303710938 l 1
 398.307617188 655.270507812 l 1
 398.307617188 439.717773438 l 2
 398.307617188 356.903320312 362.420898438 326.086914062 324.090820312 307.719726562 c 0
 301.725585938 297.001953125 266.53125 284.310546875 246.205078125 278.864257812 c 0
 173.064453125 259.266601562 62.1044921875 278.166992188 62.1044921875 408.418945312 c 2
 62.1044921875 655.270507812 l 1
 0 655.270507812 l 1
 0 691.162109375 l 1
 44.9091796875 691.166015625 l 2
 81.25 704.065429688 111.259765625 713.028320312 147.498046875 721.302734375 c 1
 145.43359375 704.095703125 143.365234375 657.802734375 143.365234375 620.329101562 c 2
 143.365234375 431.973632812 l 2
 143.365234375 349.500976562 181.650390625 318.09765625 234.811523438 318.09765625 c 0
 280.764648438 318.09765625 317.045898438 346.774414062 317.045898438 416.163085938 c 2
 317.045898438 642.436523438 l 1
 275.319335938 687.197265625 l 1
 298.303710938 700.130859375 348.856445312 725.045898438 376.047851562 735 c 2
320.626953125 691.161132812 m 1
 460.415039062 691.161132812 l 1
 460.415039062 655.26953125 l 1
 320.626953125 655.26953125 l 1
 320.626953125 691.161132812 l 1
7.7861328125 334.974609375 m 1
 54.1494140625 288.610351562 l 1
 7.7861328125 288.610351562 l 1
 7.7861328125 334.974609375 l 1
452.629882812 334.974609375 m 1
 452.629882812 288.610351562 l 1
 406.265625 288.610351562 l 1
 452.629882812 334.974609375 l 1
EndSplineSet
EndChar

StartChar: r.fina
Encoding: 308 57397 148
Width: 422
VWidth: 800
Flags: HW
LayerCount: 2
Fore
SplineSet
425.60546875 735 m 1
 407.331054688 682.076171875 l 1
 375.727539062 690.544921875 341.979492188 698.845703125 286.12109375 698.845703125 c 0
 172.995117188 698.845703125 117.443359375 648.638671875 117.443359375 555.333984375 c 0
 117.443359375 406.157226562 255.530273438 324.30078125 401.868164062 356.704101562 c 1
 401.868164062 338.118164062 l 1
 317.393554688 317.665039062 l 2
 176.934570312 283.65625 36.330078125 373.98828125 36.330078125 536.439453125 c 0
 36.330078125 613.556640625 77.775390625 669.580078125 142.534179688 688.48046875 c 0
 147.262695312 689.860351562 151.330078125 690.998046875 157.98828125 692.782226562 c 1
 0 692.782226562 l 1
 0 728.673828125 l 1
 314.641601562 728.673828125 l 2
 338.0859375 728.673828125 409.548828125 733.783203125 425.60546875 735 c 1
7.787109375 372.487304688 m 1
 54.1513671875 326.123046875 l 1
 7.787109375 326.123046875 l 1
 7.787109375 372.487304688 l 1
428.831054688 372.487304688 m 1
 428.831054688 326.123046875 l 1
 382.467773438 326.123046875 l 1
 428.831054688 372.487304688 l 1
EndSplineSet
EndChar

StartChar: s.init
Encoding: 309 57398 149
Width: 422
VWidth: 800
Flags: HW
LayerCount: 2
Fore
SplineSet
472.159179688 689.094726562 m 1
 573.751953125 689.094726562 l 1
 573.751953125 653.202148438 l 1
 472.159179688 653.202148438 l 1
 472.159179688 689.094726562 l 1
489.383789062 735 m 2
 519.436523438 685.30078125 l 1
 511.642578125 655.266601562 l 1
 511.642578125 294.786132812 l 2
 489.908203125 283.052734375 457.467773438 271.506835938 430.381835938 265.749023438 c 1
 430.381835938 642.432617188 l 1
 388.654296875 687.193359375 l 1
 411.638671875 700.126953125 462.189453125 725.045898438 489.383789062 735 c 2
105.331054688 680.360351562 m 1
 166.551757812 695.977539062 l 2
 274.791015625 697.204101562 330.033203125 647.547851562 330.033203125 546.219726562 c 0
 330.033203125 462.954101562 277.87109375 401.009765625 208.546875 379.831054688 c 0
 193.643554688 375.278320312 153.759765625 364.6328125 128.975585938 358.735351562 c 0
 102.609375 352.462890625 60.21875 350.541015625 24.7099609375 358.92578125 c 1
 91.8759765625 384.65234375 l 1
 112.155273438 339.943359375 175.084960938 312.755859375 251.369140625 312.755859375 c 0
 329.393554688 312.755859375 401.887695312 357.151367188 431.008789062 426.556640625 c 1
 472.931640625 383.513671875 l 1
 448.608398438 349.479492188 419.095703125 327.42578125 377.915039062 310.283203125 c 0
 361.67578125 303.522460938 274.326171875 274.056640625 245.284179688 267.225585938 c 0
 159.494140625 259.475585938 38.423828125 300.52734375 14.3232421875 362.346679688 c 2
 14.3232421875 371.586914062 l 1
 90.6455078125 390.66796875 l 2
 96.1943359375 390.608398438 101.38671875 390.5078125 112.516601562 390.5078125 c 0
 192.768554688 390.5078125 247.9765625 452.6796875 247.9765625 528.522460938 c 0
 247.9765625 614.883789062 203.783203125 663.501953125 105.331054688 662.959960938 c 1
 105.331054688 680.360351562 l 1
-0 332.90625 m 1
 46.36328125 286.54296875 l 1
 -0 286.54296875 l 1
 -0 332.90625 l 1
565.965820312 332.90625 m 1
 565.965820312 286.54296875 l 1
 519.602539062 286.54296875 l 1
 565.965820312 332.90625 l 1
EndSplineSet
EndChar

StartChar: s.medi
Encoding: 310 57399 150
Width: 422
VWidth: 800
Flags: HW
LayerCount: 2
Fore
SplineSet
-0 735 m 1
 276.775390625 735 l 1
 276.775390625 699.108398438 l 1
 -0 699.108398438 l 1
 -0 735 l 1
43.0791015625 716.08203125 m 1
 199.576171875 716.08203125 l 1
 193.2890625 707.296875 175.87109375 680.387695312 147.196289062 616.770507812 c 1
 123.838867188 616.770507812 l 1
 127.05078125 635.22265625 128.602539062 652.073242188 128.602539062 663.83984375 c 0
 128.602539062 691.84375 94.56640625 699.107421875 43.0791015625 699.107421875 c 1
 43.0791015625 716.08203125 l 1
140.240234375 582.669921875 m 0
 194.595703125 582.670898438 232.625976562 545.897460938 232.625976562 490.283203125 c 0
 232.619140625 434.672851562 192.515625 397.897460938 140.229492188 397.899414062 c 0
 87.9658203125 397.897460938 47.8466796875 435.505859375 47.8466796875 490.28515625 c 0
 47.8564453125 545.061523438 85.87109375 582.671875 140.240234375 582.669921875 c 0
140.234375 557.265625 m 0
 111.837890625 557.265625 84.1748046875 531.9453125 84.173828125 490.284179688 c 0
 84.1630859375 448.623046875 111.834960938 423.303710938 140.232421875 423.3046875 c 0
 168.633789062 423.3046875 196.297851562 447.802734375 196.297851562 490.284179688 c 0
 196.297851562 532.766601562 168.633789062 557.266601562 140.234375 557.265625 c 0
7.787109375 378.811523438 m 1
 54.150390625 332.448242188 l 1
 7.787109375 332.448242188 l 1
 7.787109375 378.811523438 l 1
268.98828125 378.811523438 m 1
 268.98828125 332.448242188 l 1
 222.624023438 332.448242188 l 1
 268.98828125 378.811523438 l 1
EndSplineSet
EndChar

StartChar: s.fina
Encoding: 311 57400 151
Width: 422
VWidth: 800
Flags: HW
LayerCount: 2
Fore
SplineSet
143.368164062 396.967773438 m 1
 143.368164062 -111.422851562 l 2
 121.633789062 -123.15625 89.193359375 -134.703125 62.1064453125 -140.4609375 c 1
 62.1064453125 329.731445312 l 1
 26.09375 370.033203125 l 1
 57.26953125 379.763671875 110.298828125 392.451171875 143.368164062 396.967773438 c 1
429.578125 525.283203125 m 1
 427.513671875 508.079101562 425.44921875 461.783203125 425.44921875 424.306640625 c 2
 425.44921875 171.211914062 l 2
 425.44921875 112.181640625 411.5546875 89.14453125 312.853515625 78.5537109375 c 1
 297.986328125 132.439453125 277.600585938 142.478515625 206.501953125 151.09375 c 1
 206.501953125 170.55859375 l 1
 249.461914062 168.657226562 294.243164062 164.696289062 317.7734375 164.696289062 c 0
 337.21484375 164.696289062 344.1875 170.379882812 344.1875 186.681640625 c 2
 344.1875 459.255859375 l 1
 0 459.255859375 l 1
 0 495.147460938 l 1
 326.989257812 495.147460938 l 2
 363.331054688 508.046875 393.33984375 517.008789062 429.578125 525.283203125 c 1
212.357421875 735 m 0
 266.712890625 735.000976562 304.743164062 698.2265625 304.743164062 642.61328125 c 0
 304.736328125 587.002929688 264.6328125 550.227539062 212.346679688 550.229492188 c 0
 160.083007812 550.227539062 119.963867188 587.8359375 119.963867188 642.615234375 c 0
 119.974609375 697.391601562 157.98828125 735.001953125 212.357421875 735 c 0
212.3515625 709.595703125 m 0
 183.955078125 709.595703125 156.291992188 684.275390625 156.291015625 642.61328125 c 0
 156.280273438 600.952148438 183.952148438 575.633789062 212.349609375 575.633789062 c 0
 240.750976562 575.634765625 268.415039062 600.1328125 268.415039062 642.614257812 c 0
 268.415039062 685.096679688 240.750976562 709.596679688 212.3515625 709.595703125 c 0
7.7861328125 138.958984375 m 1
 54.1494140625 92.595703125 l 1
 7.7861328125 92.595703125 l 1
 7.7861328125 138.958984375 l 1
479.767578125 138.958984375 m 1
 479.767578125 92.595703125 l 1
 433.404296875 92.595703125 l 1
 479.767578125 138.958984375 l 1
EndSplineSet
EndChar

StartChar: t.init
Encoding: 312 57401 152
Width: 422
VWidth: 800
Flags: HW
LayerCount: 2
Fore
SplineSet
113.32421875 552.537109375 m 2
 143.374023438 502.83984375 l 1
 135.58203125 472.806640625 l 1
 135.58203125 -97.8720703125 l 2
 113.84765625 -109.60546875 81.408203125 -121.149414062 54.3203125 -126.907226562 c 1
 54.3203125 459.971679688 l 1
 12.5927734375 504.733398438 l 1
 35.5771484375 517.666992188 86.1298828125 542.583007812 113.32421875 552.537109375 c 2
57.900390625 508.698242188 m 1
 197.689453125 508.698242188 l 1
 197.689453125 472.806640625 l 1
 57.900390625 472.805664062 l 1
 57.900390625 508.698242188 l 1
94.9462890625 735 m 0
 96.3759765625 735 97.8876953125 733.833984375 99.2353515625 731.124023438 c 0
 116.362304688 696.700195312 146.790039062 632.192382812 165.015625 589.727539062 c 1
 152.80859375 589.727539062 l 1
 94.9462890625 618.764648438 l 1
 37.0849609375 589.727539062 l 1
 24.8779296875 589.727539062 l 1
 43.103515625 632.192382812 73.53125 696.700195312 90.658203125 731.124023438 c 0
 92.009765625 733.840820312 93.5166015625 735 94.9462890625 735 c 0
-0 152.509765625 m 1
 46.36328125 106.146484375 l 1
 -0 106.146484375 l 1
 -0 152.509765625 l 1
189.904296875 152.509765625 m 1
 189.904296875 106.146484375 l 1
 143.541015625 106.146484375 l 1
 189.904296875 152.509765625 l 1
EndSplineSet
EndChar

StartChar: t.medi
Encoding: 313 57402 153
Width: 422
VWidth: 800
Flags: HW
LayerCount: 2
Fore
SplineSet
62.1064453125 490.75390625 m 1
 143.368164062 490.75390625 l 1
 143.368164062 -97.8662109375 l 2
 121.633789062 -109.599609375 89.193359375 -121.146484375 62.1064453125 -126.903320312 c 1
 62.1064453125 490.75390625 l 1
-0 508.698242188 m 1
 205.475585938 508.698242188 l 1
 205.475585938 472.806640625 l 1
 -0 472.806640625 l 1
 -0 508.698242188 l 1
102.734375 735 m 0
 104.1640625 735 105.67578125 733.833984375 107.0234375 731.124023438 c 0
 124.150390625 696.700195312 154.578125 632.192382812 172.803710938 589.727539062 c 1
 160.596679688 589.727539062 l 1
 102.734375 618.764648438 l 1
 44.873046875 589.727539062 l 1
 32.666015625 589.727539062 l 1
 50.8916015625 632.192382812 81.318359375 696.700195312 98.4462890625 731.124023438 c 0
 99.7978515625 733.840820312 101.3046875 735 102.734375 735 c 0
7.78515625 152.509765625 m 1
 54.1484375 106.146484375 l 1
 7.78515625 106.146484375 l 1
 7.78515625 152.509765625 l 1
197.689453125 152.509765625 m 1
 197.689453125 106.146484375 l 1
 151.326171875 106.146484375 l 1
 197.689453125 152.509765625 l 1
EndSplineSet
EndChar

StartChar: t.fina
Encoding: 314 57403 154
Width: 422
VWidth: 800
Flags: HW
LayerCount: 2
Fore
SplineSet
147.498046875 538.833984375 m 1
 145.43359375 521.629882812 143.369140625 475.333984375 143.369140625 437.857421875 c 2
 143.369140625 -97.8720703125 l 2
 121.635742188 -109.60546875 89.1943359375 -121.151367188 62.107421875 -126.909179688 c 1
 62.107421875 472.806640625 l 1
 -0 472.806640625 l 1
 -0 508.698242188 l 1
 44.9091796875 508.698242188 l 2
 81.2509765625 521.59765625 111.259765625 530.559570312 147.498046875 538.833984375 c 1
102.733398438 735 m 0
 104.162109375 735 105.673828125 733.833984375 107.022460938 731.124023438 c 0
 124.149414062 696.700195312 154.577148438 632.192382812 172.802734375 589.727539062 c 1
 160.595703125 589.727539062 l 1
 102.733398438 618.764648438 l 1
 44.87109375 589.727539062 l 1
 32.6640625 589.727539062 l 1
 50.8896484375 632.192382812 81.3173828125 696.700195312 98.4443359375 731.124023438 c 0
 99.7958984375 733.840820312 101.303710938 735 102.733398438 735 c 0
7.78515625 152.509765625 m 1
 54.1494140625 106.146484375 l 1
 7.78515625 106.146484375 l 1
 7.78515625 152.509765625 l 1
197.690429688 152.509765625 m 1
 197.690429688 106.146484375 l 1
 151.327148438 106.146484375 l 1
 197.690429688 152.509765625 l 1
EndSplineSet
EndChar

StartChar: u.fina
Encoding: 315 57406 155
Width: 422
VWidth: 800
Flags: HW
LayerCount: 2
Fore
SplineSet
147.498046875 567.00390625 m 1
 145.43359375 549.799804688 143.369140625 503.50390625 143.369140625 466.02734375 c 2
 143.369140625 -69.7021484375 l 2
 121.635742188 -81.435546875 89.1943359375 -92.9814453125 62.107421875 -98.7392578125 c 1
 62.107421875 500.975585938 l 1
 -0 500.975585938 l 1
 -0 536.868164062 l 1
 44.9091796875 536.868164062 l 2
 81.2509765625 549.767578125 111.259765625 558.729492188 147.498046875 567.00390625 c 1
155.962890625 681.7734375 m 0
 155.962890625 652.376953125 132.131835938 628.546875 102.736328125 628.546875 c 0
 73.33984375 628.546875 49.5087890625 652.376953125 49.5087890625 681.7734375 c 0
 49.5087890625 711.169921875 73.33984375 735 102.736328125 735 c 0
 132.131835938 735 155.962890625 711.169921875 155.962890625 681.7734375 c 0
7.78515625 180.6796875 m 1
 54.1494140625 134.315429688 l 1
 7.78515625 134.315429688 l 1
 7.78515625 180.6796875 l 1
197.690429688 180.6796875 m 1
 197.690429688 134.315429688 l 1
 151.327148438 134.315429688 l 1
 197.690429688 180.6796875 l 1
EndSplineSet
EndChar

StartChar: v.fina
Encoding: 316 57409 156
Width: 422
VWidth: 800
Flags: HW
LayerCount: 2
Fore
SplineSet
147.497070312 538.833984375 m 1
 145.907226562 525.581054688 144.328125 495.07421875 143.680664062 464.625 c 1
 231.208984375 494.823242188 294.706054688 512.0625 321.056640625 518.62109375 c 0
 437.163085938 526.048828125 509.370117188 487.680664062 509.370117188 394.791992188 c 0
 509.370117188 263.399414062 395.095703125 182.895507812 298.729492188 144.90234375 c 0
 225.671875 116.099609375 125.080078125 92.7626953125 62.107421875 85.0673828125 c 1
 62.107421875 472.806640625 l 1
 -0 472.806640625 l 1
 -0 508.698242188 l 1
 44.908203125 508.698242188 l 2
 81.25 521.59765625 111.259765625 530.559570312 147.497070312 538.833984375 c 1
309.374023438 476.729492188 m 0
 249.241210938 476.729492188 167.434570312 435.08203125 143.369140625 411.2109375 c 2
 143.369140625 143.797851562 l 1
 274.762695312 148.497070312 425.184570312 237.307617188 425.184570312 378.247070312 c 0
 425.184570312 457.760742188 372.147460938 476.729492188 309.374023438 476.729492188 c 0
269.994140625 735 m 0
 271.422851562 735 272.934570312 733.833984375 274.282226562 731.124023438 c 0
 291.41015625 696.700195312 321.836914062 632.192382812 340.0625 589.727539062 c 1
 327.85546875 589.727539062 l 1
 269.994140625 618.764648438 l 1
 212.131835938 589.727539062 l 1
 199.924804688 589.727539062 l 1
 218.150390625 632.192382812 248.578125 696.700195312 265.705078125 731.124023438 c 0
 267.056640625 733.840820312 268.564453125 735 269.994140625 735 c 0
7.78515625 152.509765625 m 1
 54.1494140625 106.146484375 l 1
 7.78515625 106.146484375 l 1
 7.78515625 152.509765625 l 1
537.915039062 152.509765625 m 1
 537.915039062 106.146484375 l 1
 491.551757812 106.146484375 l 1
 537.915039062 152.509765625 l 1
EndSplineSet
EndChar

StartChar: w.fina
Encoding: 317 57412 157
Width: 422
VWidth: 800
Flags: HW
LayerCount: 2
Fore
SplineSet
450.907226562 735 m 1
 448.84375 717.795898438 446.779296875 671.5 446.779296875 634.0234375 c 2
 446.779296875 98.2841796875 l 2
 425.044921875 86.55078125 392.604492188 75.0078125 365.517578125 69.25 c 1
 365.517578125 668.971679688 l 1
 0 668.96484375 l 1
 0 704.856445312 l 1
 348.318359375 704.864257812 l 2
 384.66015625 717.762695312 414.669921875 726.725585938 450.907226562 735 c 1
143.366210938 696.169921875 m 1
 143.366210938 462.443359375 l 2
 143.366210938 379.970703125 181.370117188 326.297851562 264.79296875 326.297851562 c 0
 308.600585938 326.297851562 338.537109375 332.0546875 413.513671875 410.827148438 c 1
 380.439453125 320.833984375 l 2
 362.749023438 313.911132812 321.3125 298.60546875 300.87109375 293.12890625 c 0
 156.048828125 254.32421875 62.1044921875 310.616210938 62.1044921875 438.888671875 c 2
 62.1044921875 696.169921875 l 1
 143.366210938 696.169921875 l 1
7.7861328125 348.66796875 m 1
 54.1494140625 302.3046875 l 1
 7.7861328125 302.3046875 l 1
 7.7861328125 348.66796875 l 1
501.1015625 348.66796875 m 1
 501.1015625 302.3046875 l 1
 454.73828125 302.3046875 l 1
 501.1015625 348.66796875 l 1
EndSplineSet
EndChar

StartChar: x.init
Encoding: 318 57413 158
Width: 422
VWidth: 800
Flags: HW
LayerCount: 2
Fore
SplineSet
105.331054688 680.360351562 m 1
 166.552734375 695.977539062 l 2
 274.791015625 697.204101562 330.033203125 647.547851562 330.033203125 546.219726562 c 0
 330.033203125 462.954101562 277.87109375 401.009765625 208.547851562 379.831054688 c 0
 193.643554688 375.278320312 153.760742188 364.6328125 128.9765625 358.735351562 c 0
 102.609375 352.462890625 60.21875 350.541015625 24.7099609375 358.92578125 c 1
 91.8759765625 384.65234375 l 1
 112.15625 339.943359375 175.084960938 312.755859375 251.369140625 312.755859375 c 0
 329.393554688 312.755859375 401.887695312 357.151367188 431.009765625 426.556640625 c 1
 477.1015625 389.540039062 l 1
 451.983398438 352.045898438 421.477539062 328.416992188 377.916015625 310.283203125 c 0
 361.67578125 303.522460938 274.327148438 274.056640625 245.284179688 267.225585938 c 0
 159.494140625 259.475585938 38.4248046875 300.52734375 14.3232421875 362.346679688 c 2
 14.3232421875 371.586914062 l 1
 90.646484375 390.66796875 l 2
 96.1943359375 390.608398438 101.38671875 390.5078125 112.516601562 390.5078125 c 0
 192.768554688 390.5078125 247.9765625 452.6796875 247.9765625 528.522460938 c 0
 247.9765625 614.883789062 203.784179688 659.609375 105.331054688 659.067382812 c 1
 105.331054688 680.360351562 l 1
472.16015625 689.094726562 m 1
 573.751953125 689.094726562 l 1
 573.751953125 653.203125 l 1
 472.16015625 653.203125 l 1
 472.16015625 689.094726562 l 1
489.383789062 735 m 2
 519.436523438 685.30078125 l 1
 511.642578125 655.266601562 l 1
 511.642578125 82.529296875 l 2
 489.909179688 70.7958984375 457.46875 59.25 430.381835938 53.4921875 c 1
 430.381835938 642.432617188 l 1
 388.654296875 687.193359375 l 1
 411.638671875 700.126953125 462.189453125 725.045898438 489.383789062 735 c 2
0 332.90625 m 1
 46.3642578125 286.541992188 l 1
 0 286.541992188 l 1
 0 332.90625 l 1
565.965820312 332.90625 m 1
 565.965820312 286.541992188 l 1
 519.602539062 286.541992188 l 1
 565.965820312 332.90625 l 1
EndSplineSet
EndChar

StartChar: x.medi
Encoding: 319 57414 159
Width: 422
VWidth: 800
Flags: HW
LayerCount: 2
Fore
SplineSet
148.17578125 681.7734375 m 0
 148.17578125 652.397460938 124.325195312 628.546875 94.9482421875 628.546875 c 0
 65.572265625 628.547851562 41.7236328125 652.397460938 41.7236328125 681.7734375 c 0
 41.7236328125 711.149414062 65.572265625 734.999023438 94.9482421875 735 c 0
 124.325195312 735 148.17578125 711.150390625 148.17578125 681.7734375 c 0
-0 180.6796875 m 1
 46.36328125 134.315429688 l 1
 -0 134.315429688 l 1
 -0 180.6796875 l 1
189.90234375 180.6796875 m 1
 189.90234375 134.315429688 l 1
 143.538085938 134.315429688 l 1
 189.90234375 180.6796875 l 1
91.66796875 576.678710938 m 0
 93.3310546875 578.104492188 96.5732421875 578.1015625 98.23828125 576.678710938 c 0
 113.071289062 564.002929688 127.522460938 550.690429688 141.66796875 536.8671875 c 2
 182.115234375 536.8671875 l 1
 182.115234375 500.975585938 l 1
 7.7861328125 500.975585938 l 1
 7.7861328125 536.8671875 l 1
 48.2373046875 536.8671875 l 2
 62.15625 550.47265625 76.603515625 563.76171875 91.66796875 576.678710938 c 0
EndSplineSet
EndChar

StartChar: x.fina
Encoding: 320 57415 160
Width: 422
VWidth: 800
Flags: HW
LayerCount: 2
Fore
SplineSet
265.8984375 567.008789062 m 1
 263.833984375 549.803710938 261.770507812 503.5078125 261.770507812 466.03125 c 2
 261.770507812 1.1376953125 l 2
 261.770507812 -57.8935546875 247.880859375 -80.9306640625 149.1796875 -91.521484375 c 1
 134.311523438 -37.6357421875 134.736328125 -34.8349609375 3.8955078125 -18.98046875 c 1
 3.8955078125 0.4833984375 l 1
 46.85546875 -1.4169921875 134.365234375 -5.3779296875 154.09375 -5.3779296875 c 0
 173.53515625 -5.3779296875 180.508789062 0.306640625 180.508789062 16.6083984375 c 2
 180.508789062 500.98046875 l 1
 0 500.9765625 l 1
 0 536.868164062 l 1
 163.309570312 536.872070312 l 2
 199.651367188 549.771484375 229.661132812 558.734375 265.8984375 567.008789062 c 1
187.213867188 681.7734375 m 0
 187.213867188 652.376953125 163.3828125 628.546875 133.987304688 628.546875 c 0
 104.590820312 628.546875 80.7607421875 652.376953125 80.7607421875 681.7734375 c 0
 80.7607421875 711.169921875 104.590820312 735 133.987304688 735 c 0
 163.3828125 735 187.213867188 711.169921875 187.213867188 681.7734375 c 0
7.787109375 180.680664062 m 1
 54.1513671875 134.31640625 l 1
 7.787109375 134.31640625 l 1
 7.787109375 180.680664062 l 1
316.088867188 180.680664062 m 1
 316.088867188 134.31640625 l 1
 269.725585938 134.31640625 l 1
 316.088867188 180.680664062 l 1
EndSplineSet
EndChar

StartChar: y.init
Encoding: 321 57416 161
Width: 422
VWidth: 800
Flags: HW
LayerCount: 2
Fore
SplineSet
135.581054688 719.231445312 m 1
 135.581054688 82.5244140625 l 2
 113.84765625 70.791015625 81.4072265625 59.244140625 54.3203125 53.486328125 c 1
 54.3203125 651.994140625 l 1
 18.306640625 692.296875 l 1
 49.4833984375 702.026367188 102.512695312 714.71484375 135.581054688 719.231445312 c 1
298.075195312 689.094726562 m 1
 399.666992188 689.094726562 l 1
 399.666992188 653.203125 l 1
 298.075195312 653.203125 l 1
 298.075195312 689.094726562 l 1
315.298828125 735 m 2
 345.3515625 685.30078125 l 1
 337.557617188 655.266601562 l 1
 337.557617188 294.500976562 l 2
 315.823242188 282.767578125 283.383789062 271.221679688 256.296875 265.463867188 c 1
 256.296875 642.432617188 l 1
 214.569335938 687.193359375 l 1
 237.553710938 700.126953125 288.104492188 725.045898438 315.298828125 735 c 2
256.296875 315.161132812 m 1
 256.296875 417.486328125 206.44140625 464.541015625 117.33203125 442.5625 c 1
 111.758789062 469.46875 l 2
 124.483398438 472.649414062 182.953125 485.3984375 202.446289062 488.4375 c 0
 278.50390625 500.291992188 336.4765625 454.168945312 336.4765625 335.143554688 c 1
 256.296875 315.161132812 l 1
-0 332.90625 m 1
 46.36328125 286.54296875 l 1
 -0 286.54296875 l 1
 -0 332.90625 l 1
391.880859375 332.90625 m 1
 391.880859375 286.54296875 l 1
 345.517578125 286.54296875 l 1
 391.880859375 332.90625 l 1
EndSplineSet
EndChar

StartChar: y.medi
Encoding: 322 57417 162
Width: 422
VWidth: 800
Flags: HW
LayerCount: 2
Fore
SplineSet
-0 536.8671875 m 1
 205.4765625 536.8671875 l 1
 205.4765625 500.975585938 l 1
 143.368164062 500.975585938 l 1
 143.368164062 -69.7021484375 l 2
 121.634765625 -81.435546875 89.1943359375 -92.982421875 62.107421875 -98.740234375 c 1
 62.107421875 500.975585938 l 1
 -0 500.975585938 l 1
 -0 536.8671875 l 1
155.962890625 681.7734375 m 0
 155.962890625 652.376953125 132.131835938 628.546875 102.736328125 628.546875 c 0
 73.33984375 628.546875 49.5087890625 652.376953125 49.5087890625 681.7734375 c 0
 49.5087890625 711.169921875 73.33984375 735 102.736328125 735 c 0
 132.131835938 735 155.962890625 711.169921875 155.962890625 681.7734375 c 0
7.78515625 180.6796875 m 1
 54.1494140625 134.315429688 l 1
 7.78515625 134.315429688 l 1
 7.78515625 180.6796875 l 1
197.690429688 180.6796875 m 1
 197.690429688 134.315429688 l 1
 151.327148438 134.315429688 l 1
 197.690429688 180.6796875 l 1
EndSplineSet
EndChar

StartChar: y.fina
Encoding: 323 57418 163
Width: 422
VWidth: 800
Flags: HW
LayerCount: 2
Fore
SplineSet
219.340820312 735 m 0
 248.736328125 735 272.569335938 713.119140625 272.569335938 679.541015625 c 0
 272.569335938 644.866210938 248.498046875 604.463867188 204.71875 585.3203125 c 1
 173.541992188 605.997070312 l 1
 258.213867188 605.997070312 l 2
 281.659179688 605.997070312 324.499023438 608.1484375 340.55859375 609.365234375 c 1
 326.380859375 567.41015625 l 2
 306.076171875 572.915039062 281.888671875 575.427734375 251.297851562 575.427734375 c 2
 150.453125 575.427734375 l 2
 124.361328125 575.427734375 109.71484375 575.159179688 102.322265625 574.62109375 c 1
 108.525390625 607.609375 l 1
 113.499023438 606.668945312 125.547851562 605.997070312 133.13671875 605.997070312 c 0
 180.322265625 605.997070312 224.08203125 622.821289062 239.40234375 662.208984375 c 1
 243.338867188 648.6796875 l 2
 236.764648438 645.416992188 228.365234375 643.239257812 217.255859375 643.239257812 c 0
 188.513671875 643.239257812 166.11328125 661.120117188 166.11328125 687.474609375 c 0
 166.11328125 710.788085938 187.283203125 735 219.340820312 735 c 0
143.3671875 414.359375 m 1
 143.3671875 -94.03125 l 2
 121.6328125 -105.764648438 89.1923828125 -117.311523438 62.10546875 -123.069335938 c 1
 62.10546875 347.123046875 l 1
 26.0927734375 387.424804688 l 1
 57.2685546875 397.155273438 110.298828125 409.842773438 143.3671875 414.359375 c 1
429.577148438 542.674804688 m 1
 427.512695312 525.470703125 425.448242188 479.174804688 425.448242188 441.698242188 c 2
 425.448242188 188.603515625 l 2
 425.448242188 129.573242188 411.553710938 106.536132812 312.852539062 95.9453125 c 1
 297.985351562 149.831054688 277.599609375 159.870117188 206.500976562 168.485351562 c 1
 206.500976562 187.950195312 l 1
 249.4609375 186.048828125 294.2421875 182.087890625 317.772460938 182.087890625 c 0
 337.213867188 182.087890625 344.186523438 187.771484375 344.186523438 204.073242188 c 2
 344.186523438 476.647460938 l 1
 -0 476.647460938 l 1
 -0 512.5390625 l 1
 326.98828125 512.5390625 l 2
 363.330078125 525.438476562 393.338867188 534.400390625 429.577148438 542.674804688 c 1
7.78515625 156.350585938 m 1
 54.1484375 109.987304688 l 1
 7.78515625 109.987304688 l 1
 7.78515625 156.350585938 l 1
479.766601562 156.350585938 m 1
 479.766601562 109.987304688 l 1
 433.403320312 109.987304688 l 1
 479.766601562 156.350585938 l 1
EndSplineSet
EndChar

StartChar: z.fina
Encoding: 324 57421 164
Width: 422
VWidth: 800
Flags: HW
LayerCount: 2
Fore
SplineSet
265.897460938 735 m 1
 263.833007812 717.795898438 261.76953125 671.5 261.76953125 634.0234375 c 2
 261.76953125 169.129882812 l 2
 261.76953125 110.098632812 247.879882812 87.0615234375 149.178710938 76.4697265625 c 1
 134.310546875 130.35546875 134.735351562 133.15625 3.89453125 149.010742188 c 1
 3.89453125 168.475585938 l 1
 46.853515625 166.57421875 134.364257812 162.61328125 154.092773438 162.61328125 c 0
 173.534179688 162.61328125 180.5078125 168.298828125 180.5078125 184.600585938 c 2
 180.5078125 668.971679688 l 1
 -0 668.96875 l 1
 -0 704.860351562 l 1
 163.30859375 704.864257812 l 2
 199.650390625 717.762695312 229.66015625 726.725585938 265.897460938 735 c 1
7.787109375 348.671875 m 1
 54.150390625 302.307617188 l 1
 7.787109375 302.307617188 l 1
 7.787109375 348.671875 l 1
316.087890625 348.671875 m 1
 316.087890625 302.307617188 l 1
 269.724609375 302.307617188 l 1
 316.087890625 348.671875 l 1
EndSplineSet
EndChar

StartChar: xy_kashida
Encoding: 325 57423 165
Width: 422
VWidth: 800
Flags: HW
LayerCount: 2
Fore
SplineSet
50 481 m 1
 67 482 l 1
 67 401 l 1
 50 400 l 1
 50 481 l 1
50 383 m 1
 67 383 l 1
 67 306 l 1
 50 306 l 1
 50 383 l 1
50 290 m 1
 67 290 l 1
 67 204 l 1
 50 204 l 1
 50 290 l 1
50 187 m 1
 67 187 l 1
 67 108 l 1
 50 108 l 1
 50 187 l 1
50 90 m 1
 67 91 l 1
 67 10 l 1
 50 10 l 1
 50 90 l 1
50 -8 m 1
 67 -8 l 1
 67 -85 l 1
 50 -85 l 1
 50 -8 l 1
50 -102 m 1
 67 -102 l 1
 67 -171 l 1
 120 -171 l 1
 120 -188 l 1
 50 -188 l 1
 50 -102 l 1
50 588 m 1
 120 588 l 1
 120 570 l 1
 67 570 l 1
 67 498 l 1
 50 498 l 1
 50 528 50 558 50 588 c 1
133 588 m 1
 204 588 l 1
 204 570 l 1
 133 570 l 1
 133 588 l 1
217 588 m 1
 288 588 l 1
 288 570 l 1
 217 570 l 1
 217 588 l 1
300 588 m 1
 372 588 l 1
 372 502 l 1
 355 502 l 1
 355 570 l 1
 300 570 l 1
 300 588 l 1
372 486 m 1
 372 405 l 1
 355 405 l 1
 355 486 l 1
 372 486 l 1
372 387 m 1
 372 311 l 1
 355 310 l 1
 355 387 l 1
 372 387 l 1
372 294 m 1
 372 209 l 1
 355 208 l 1
 355 294 l 1
 372 294 l 1
187 236 m 1
 183 234 183 234 168 228 c 0
 162 228 147 228 141 240 c 1
 141 243 l 1
 149 245 150 246 150 246 c 2
 162 246 167 254 167 262 c 0
 167 267 165 275 152 275 c 1
 152 280 l 1
 160 282 l 0
 162 282 177 282 177 262 c 0
 177 247 164 242 156 239 c 1
 163 237 163 237 164 237 c 0
 173 235 184 242 187 250 c 1
 187 273 l 1
 187 273 182 278 182 279 c 2
 182 280 l 1
 183 281 183 280 194 286 c 0
 197 282 l 1
 206 282 l 1
 208 283 208 283 218 285 c 1
 218 276 l 1
 224 278 230 280 236 282 c 1
 241 282 l 2
 262 282 267 249 234 235 c 0
 230 234 217 229 217 229 c 1
 217 206 l 1
 210 203 211 203 208 202 c 1
 208 274 l 1
 196 274 l 1
 196 231 l 1
 193 229 190 229 187 228 c 1
 187 236 l 1
98 279 m 1
 110 286 l 1
 113 282 l 1
 124 282 l 1
 126 283 126 283 136 285 c 1
 135 282 135 278 135 273 c 2
 135 206 l 1
 128 203 128 203 125 202 c 1
 125 274 l 1
 112 274 l 1
 112 231 l 1
 109 229 106 229 103 228 c 1
 103 273 l 1
 98 279 l 1
261 281 m 0
 264 283 272 286 272 286 c 2
 274 284 274 285 276 282 c 1
 307 282 l 1
 309 283 309 283 319 285 c 1
 319 283 318 280 318 276 c 2
 318 256 l 1
 320 256 l 2
 325 256 330 257 334 257 c 2
 339 257 l 1
 339 256 338 253 336 247 c 0
 335.819335938 247 329.514648438 249 318 249 c 1
 318 206 l 1
 311 203 311 203 308 202 c 1
 308 274 l 1
 297 274 l 1
 297 231 l 1
 290 228 291 228 288 227 c 1
 288 274 l 1
 276 274 l 1
 276 206 l 1
 269 203 269 203 266 202 c 1
 266 273 l 1
 261 281 l 0
220 238 m 0
 245 242 247 262 247 262 c 2
 248 264 250 274 235 274 c 0
 229 274 219 269 217 267 c 1
 217 238 l 1
 218 238 219 238 220 238 c 0
168 221 m 0
 169 221 170 221 170 220 c 2
 170 218 l 2
 170 216 170 216 164 204 c 1
 161 200 l 1
 159 206 153 219 153 219 c 1
 153 220 l 2
 153 221 155 221 156 221 c 2
 156 221 157 220 162 217 c 0
 168 221 l 0
223 193 m 1
 219 198 l 1
 219 200 l 1
 220 200 l 1
 225 202 229 203 233 204 c 1
 233 178 l 1
 328 178 l 1
 328 178 330 179 332 179 c 0
 334 179 334 178 334 178 c 2
 334 177 333 176 331 170 c 1
 330.665039062 170.111328125 300 180.120117188 300 153 c 1
 300 153 302 129 331 134 c 1
 331 129 l 1
 313 126 l 0
 290 126 283 157 296 170 c 1
 281 170 l 1
 281 141 l 1
 277 127 260 126 260 126 c 1
 246 126 244 138 244 142 c 2
 244 170 l 1
 233 170 l 1
 233 103 l 1
 230 101 227 100 223 99 c 1
 223 170 l 1
 212 170 l 1
 212 128 l 1
 209 126 207 126 203 125 c 1
 203 170 l 1
 192 170 l 1
 192 137 l 1
 195 128 l 1
 192 126 188 126 184 125 c 1
 183 129 l 1
 180 127 169 125 164 125 c 0
 149 125 148 142 148 144 c 2
 148 170 l 1
 137 170 l 1
 137 141 l 1
 133 127 116 126 116 126 c 2
 107 124 100 132 100 142 c 2
 100 170 l 1
 81 170 l 1
 79 171 l 2
 79 174 79 175 92 186 c 1
 94 184 96 181 98 178 c 1
 182 178 l 1
 182 193 l 1
 182 193 177 197 177 198 c 0
 178 200 178 201 190 203 c 0
 191 203 191 204 191 204 c 1
 192 204 l 1
 192 178 l 1
 223 178 l 1
 223 193 l 1
372 191 m 1
 372 112 l 1
 355 112 l 1
 355 191 l 1
 372 191 l 1
119 134 m 0
 124 134 128 136 128 143 c 2
 128 170 l 1
 110 170 l 1
 110 161 110 154 110 145 c 0
 110 134 118 134 119 134 c 0
158 170 m 1
 158 146 l 2
 158 144 161 136 164 134 c 2
 176 134 l 1
 178 135 180 136 182 138 c 1
 182 170 l 1
 158 170 l 1
263 134 m 0
 266 134 272 134 272 143 c 2
 272 170 l 1
 254 170 l 1
 254 147 l 2
 254 143 254 134 263 134 c 0
201 118 m 2
 201 118 202 117 208 114 c 1
 216 117 l 2
 216 114 l 1
 207 98 l 0
 206 100 205 102 199 116 c 1
 199 117 l 2
 199 118 200 118 201 118 c 2
372 95 m 1
 372 14 l 1
 355 14 l 1
 355 95 l 1
 372 95 l 1
372 -4 m 1
 372 -81 l 1
 355 -81 l 1
 355 -4 l 1
 372 -4 l 1
372 -98 m 1
 372 -188 l 1
 300 -188 l 1
 300 -171 l 1
 355 -171 l 1
 355 -98 l 1
 372 -98 l 1
133 -171 m 1
 204 -171 l 1
 204 -188 l 1
 133 -188 l 1
 133 -171 l 1
217 -171 m 1
 288 -171 l 1
 288 -188 l 1
 217 -188 l 1
 217 -171 l 1
EndSplineSet
EndChar

StartChar: xy_fullstop
Encoding: 326 57472 166
Width: 422
VWidth: 800
Flags: HW
LayerCount: 2
Fore
SplineSet
50 481 m 1
 67 482 l 1
 67 401 l 1
 50 400 l 1
 50 481 l 1
50 383 m 1
 67 383 l 1
 67 306 l 1
 50 306 l 1
 50 383 l 1
50 290 m 1
 67 290 l 1
 67 204 l 1
 50 204 l 1
 50 290 l 1
50 187 m 1
 67 187 l 1
 67 108 l 1
 50 108 l 1
 50 187 l 1
50 90 m 1
 67 91 l 1
 67 10 l 1
 50 10 l 1
 50 90 l 1
50 -8 m 1
 67 -8 l 1
 67 -85 l 1
 50 -85 l 1
 50 -8 l 1
50 -102 m 1
 67 -102 l 1
 67 -171 l 1
 120 -171 l 1
 120 -188 l 1
 50 -188 l 1
 50 -102 l 1
50 588 m 1
 120 588 l 1
 120 570 l 1
 67 570 l 1
 67 498 l 1
 50 498 l 1
 50 528 50 558 50 588 c 1
133 588 m 1
 204 588 l 1
 204 570 l 1
 133 570 l 1
 133 588 l 1
217 588 m 1
 288 588 l 1
 288 570 l 1
 217 570 l 1
 217 588 l 1
300 588 m 1
 372 588 l 1
 372 502 l 1
 355 502 l 1
 355 570 l 1
 300 570 l 1
 300 588 l 1
372 486 m 1
 372 405 l 1
 355 405 l 1
 355 486 l 1
 372 486 l 1
372 387 m 1
 372 311 l 1
 355 310 l 1
 355 387 l 1
 372 387 l 1
372 294 m 1
 372 209 l 1
 355 208 l 1
 355 294 l 1
 372 294 l 1
187 236 m 1
 183 234 183 234 168 228 c 0
 162 228 147 228 141 240 c 1
 141 243 l 1
 149 245 150 246 150 246 c 2
 162 246 167 254 167 262 c 0
 167 267 165 275 152 275 c 1
 152 280 l 1
 160 282 l 0
 162 282 177 282 177 262 c 0
 177 247 164 242 156 239 c 1
 163 237 163 237 164 237 c 0
 173 235 184 242 187 250 c 1
 187 273 l 1
 187 273 182 278 182 279 c 2
 182 280 l 1
 183 281 183 280 194 286 c 0
 197 282 l 1
 206 282 l 1
 208 283 208 283 218 285 c 1
 218 276 l 1
 224 278 230 280 236 282 c 1
 241 282 l 2
 262 282 267 249 234 235 c 0
 230 234 217 229 217 229 c 1
 217 206 l 1
 210 203 211 203 208 202 c 1
 208 274 l 1
 196 274 l 1
 196 231 l 1
 193 229 190 229 187 228 c 1
 187 236 l 1
98 279 m 1
 110 286 l 1
 113 282 l 1
 124 282 l 1
 126 283 126 283 136 285 c 1
 135 282 135 278 135 273 c 2
 135 206 l 1
 128 203 128 203 125 202 c 1
 125 274 l 1
 112 274 l 1
 112 231 l 1
 109 229 106 229 103 228 c 1
 103 273 l 1
 98 279 l 1
261 281 m 0
 264 283 272 286 272 286 c 2
 274 284 274 285 276 282 c 1
 307 282 l 1
 309 283 309 283 319 285 c 1
 319 283 318 280 318 276 c 2
 318 256 l 1
 320 256 l 2
 325 256 330 257 334 257 c 2
 339 257 l 1
 339 256 338 253 336 247 c 0
 335.819335938 247 329.514648438 249 318 249 c 1
 318 206 l 1
 311 203 311 203 308 202 c 1
 308 274 l 1
 297 274 l 1
 297 231 l 1
 290 228 291 228 288 227 c 1
 288 274 l 1
 276 274 l 1
 276 206 l 1
 269 203 269 203 266 202 c 1
 266 273 l 1
 261 281 l 0
220 238 m 0
 245 242 247 262 247 262 c 2
 248 264 250 274 235 274 c 0
 229 274 219 269 217 267 c 1
 217 238 l 1
 218 238 219 238 220 238 c 0
168 221 m 0
 169 221 170 221 170 220 c 2
 170 218 l 2
 170 216 170 216 164 204 c 1
 161 200 l 1
 159 206 153 219 153 219 c 1
 153 220 l 2
 153 221 155 221 156 221 c 2
 156 221 157 220 162 217 c 0
 168 221 l 0
223 193 m 1
 219 198 l 1
 219 200 l 1
 220 200 l 1
 225 202 229 203 233 204 c 1
 233 178 l 1
 328 178 l 1
 328 178 330 179 332 179 c 0
 334 179 334 178 334 178 c 2
 334 177 333 176 331 170 c 1
 330.665039062 170.111328125 300 180.120117188 300 153 c 1
 300 153 302 129 331 134 c 1
 331 129 l 1
 313 126 l 0
 290 126 283 157 296 170 c 1
 281 170 l 1
 281 141 l 1
 277 127 260 126 260 126 c 1
 246 126 244 138 244 142 c 2
 244 170 l 1
 233 170 l 1
 233 103 l 1
 230 101 227 100 223 99 c 1
 223 170 l 1
 212 170 l 1
 212 128 l 1
 209 126 207 126 203 125 c 1
 203 170 l 1
 192 170 l 1
 192 137 l 1
 195 128 l 1
 192 126 188 126 184 125 c 1
 183 129 l 1
 180 127 169 125 164 125 c 0
 149 125 148 142 148 144 c 2
 148 170 l 1
 137 170 l 1
 137 141 l 1
 133 127 116 126 116 126 c 2
 107 124 100 132 100 142 c 2
 100 170 l 1
 81 170 l 1
 79 171 l 2
 79 174 79 175 92 186 c 1
 94 184 96 181 98 178 c 1
 182 178 l 1
 182 193 l 1
 182 193 177 197 177 198 c 0
 178 200 178 201 190 203 c 0
 191 203 191 204 191 204 c 1
 192 204 l 1
 192 178 l 1
 223 178 l 1
 223 193 l 1
372 191 m 1
 372 112 l 1
 355 112 l 1
 355 191 l 1
 372 191 l 1
119 134 m 0
 124 134 128 136 128 143 c 2
 128 170 l 1
 110 170 l 1
 110 161 110 154 110 145 c 0
 110 134 118 134 119 134 c 0
158 170 m 1
 158 146 l 2
 158 144 161 136 164 134 c 2
 176 134 l 1
 178 135 180 136 182 138 c 1
 182 170 l 1
 158 170 l 1
263 134 m 0
 266 134 272 134 272 143 c 2
 272 170 l 1
 254 170 l 1
 254 147 l 2
 254 143 254 134 263 134 c 0
201 118 m 2
 201 118 202 117 208 114 c 1
 216 117 l 2
 216 114 l 1
 207 98 l 0
 206 100 205 102 199 116 c 1
 199 117 l 2
 199 118 200 118 201 118 c 2
372 95 m 1
 372 14 l 1
 355 14 l 1
 355 95 l 1
 372 95 l 1
372 -4 m 1
 372 -81 l 1
 355 -81 l 1
 355 -4 l 1
 372 -4 l 1
372 -98 m 1
 372 -188 l 1
 300 -188 l 1
 300 -171 l 1
 355 -171 l 1
 355 -98 l 1
 372 -98 l 1
133 -171 m 1
 204 -171 l 1
 204 -188 l 1
 133 -188 l 1
 133 -171 l 1
217 -171 m 1
 288 -171 l 1
 288 -188 l 1
 217 -188 l 1
 217 -171 l 1
EndSplineSet
EndChar

StartChar: xy_comma
Encoding: 327 57473 167
Width: 422
VWidth: 800
Flags: HW
LayerCount: 2
Fore
SplineSet
50 481 m 1
 67 482 l 1
 67 401 l 1
 50 400 l 1
 50 481 l 1
50 383 m 1
 67 383 l 1
 67 306 l 1
 50 306 l 1
 50 383 l 1
50 290 m 1
 67 290 l 1
 67 204 l 1
 50 204 l 1
 50 290 l 1
50 187 m 1
 67 187 l 1
 67 108 l 1
 50 108 l 1
 50 187 l 1
50 90 m 1
 67 91 l 1
 67 10 l 1
 50 10 l 1
 50 90 l 1
50 -8 m 1
 67 -8 l 1
 67 -85 l 1
 50 -85 l 1
 50 -8 l 1
50 -102 m 1
 67 -102 l 1
 67 -171 l 1
 120 -171 l 1
 120 -188 l 1
 50 -188 l 1
 50 -102 l 1
50 588 m 1
 120 588 l 1
 120 570 l 1
 67 570 l 1
 67 498 l 1
 50 498 l 1
 50 528 50 558 50 588 c 1
133 588 m 1
 204 588 l 1
 204 570 l 1
 133 570 l 1
 133 588 l 1
217 588 m 1
 288 588 l 1
 288 570 l 1
 217 570 l 1
 217 588 l 1
300 588 m 1
 372 588 l 1
 372 502 l 1
 355 502 l 1
 355 570 l 1
 300 570 l 1
 300 588 l 1
372 486 m 1
 372 405 l 1
 355 405 l 1
 355 486 l 1
 372 486 l 1
372 387 m 1
 372 311 l 1
 355 310 l 1
 355 387 l 1
 372 387 l 1
372 294 m 1
 372 209 l 1
 355 208 l 1
 355 294 l 1
 372 294 l 1
187 236 m 1
 183 234 183 234 168 228 c 0
 162 228 147 228 141 240 c 1
 141 243 l 1
 149 245 150 246 150 246 c 2
 162 246 167 254 167 262 c 0
 167 267 165 275 152 275 c 1
 152 280 l 1
 160 282 l 0
 162 282 177 282 177 262 c 0
 177 247 164 242 156 239 c 1
 163 237 163 237 164 237 c 0
 173 235 184 242 187 250 c 1
 187 273 l 1
 187 273 182 278 182 279 c 2
 182 280 l 1
 183 281 183 280 194 286 c 0
 197 282 l 1
 206 282 l 1
 208 283 208 283 218 285 c 1
 218 276 l 1
 224 278 230 280 236 282 c 1
 241 282 l 2
 262 282 267 249 234 235 c 0
 230 234 217 229 217 229 c 1
 217 206 l 1
 210 203 211 203 208 202 c 1
 208 274 l 1
 196 274 l 1
 196 231 l 1
 193 229 190 229 187 228 c 1
 187 236 l 1
98 279 m 1
 110 286 l 1
 113 282 l 1
 124 282 l 1
 126 283 126 283 136 285 c 1
 135 282 135 278 135 273 c 2
 135 206 l 1
 128 203 128 203 125 202 c 1
 125 274 l 1
 112 274 l 1
 112 231 l 1
 109 229 106 229 103 228 c 1
 103 273 l 1
 98 279 l 1
261 281 m 0
 264 283 272 286 272 286 c 2
 274 284 274 285 276 282 c 1
 307 282 l 1
 309 283 309 283 319 285 c 1
 319 283 318 280 318 276 c 2
 318 256 l 1
 320 256 l 2
 325 256 330 257 334 257 c 2
 339 257 l 1
 339 256 338 253 336 247 c 0
 335.819335938 247 329.514648438 249 318 249 c 1
 318 206 l 1
 311 203 311 203 308 202 c 1
 308 274 l 1
 297 274 l 1
 297 231 l 1
 290 228 291 228 288 227 c 1
 288 274 l 1
 276 274 l 1
 276 206 l 1
 269 203 269 203 266 202 c 1
 266 273 l 1
 261 281 l 0
220 238 m 0
 245 242 247 262 247 262 c 2
 248 264 250 274 235 274 c 0
 229 274 219 269 217 267 c 1
 217 238 l 1
 218 238 219 238 220 238 c 0
168 221 m 0
 169 221 170 221 170 220 c 2
 170 218 l 2
 170 216 170 216 164 204 c 1
 161 200 l 1
 159 206 153 219 153 219 c 1
 153 220 l 2
 153 221 155 221 156 221 c 2
 156 221 157 220 162 217 c 0
 168 221 l 0
223 193 m 1
 219 198 l 1
 219 200 l 1
 220 200 l 1
 225 202 229 203 233 204 c 1
 233 178 l 1
 328 178 l 1
 328 178 330 179 332 179 c 0
 334 179 334 178 334 178 c 2
 334 177 333 176 331 170 c 1
 330.665039062 170.111328125 300 180.120117188 300 153 c 1
 300 153 302 129 331 134 c 1
 331 129 l 1
 313 126 l 0
 290 126 283 157 296 170 c 1
 281 170 l 1
 281 141 l 1
 277 127 260 126 260 126 c 1
 246 126 244 138 244 142 c 2
 244 170 l 1
 233 170 l 1
 233 103 l 1
 230 101 227 100 223 99 c 1
 223 170 l 1
 212 170 l 1
 212 128 l 1
 209 126 207 126 203 125 c 1
 203 170 l 1
 192 170 l 1
 192 137 l 1
 195 128 l 1
 192 126 188 126 184 125 c 1
 183 129 l 1
 180 127 169 125 164 125 c 0
 149 125 148 142 148 144 c 2
 148 170 l 1
 137 170 l 1
 137 141 l 1
 133 127 116 126 116 126 c 2
 107 124 100 132 100 142 c 2
 100 170 l 1
 81 170 l 1
 79 171 l 2
 79 174 79 175 92 186 c 1
 94 184 96 181 98 178 c 1
 182 178 l 1
 182 193 l 1
 182 193 177 197 177 198 c 0
 178 200 178 201 190 203 c 0
 191 203 191 204 191 204 c 1
 192 204 l 1
 192 178 l 1
 223 178 l 1
 223 193 l 1
372 191 m 1
 372 112 l 1
 355 112 l 1
 355 191 l 1
 372 191 l 1
119 134 m 0
 124 134 128 136 128 143 c 2
 128 170 l 1
 110 170 l 1
 110 161 110 154 110 145 c 0
 110 134 118 134 119 134 c 0
158 170 m 1
 158 146 l 2
 158 144 161 136 164 134 c 2
 176 134 l 1
 178 135 180 136 182 138 c 1
 182 170 l 1
 158 170 l 1
263 134 m 0
 266 134 272 134 272 143 c 2
 272 170 l 1
 254 170 l 1
 254 147 l 2
 254 143 254 134 263 134 c 0
201 118 m 2
 201 118 202 117 208 114 c 1
 216 117 l 2
 216 114 l 1
 207 98 l 0
 206 100 205 102 199 116 c 1
 199 117 l 2
 199 118 200 118 201 118 c 2
372 95 m 1
 372 14 l 1
 355 14 l 1
 355 95 l 1
 372 95 l 1
372 -4 m 1
 372 -81 l 1
 355 -81 l 1
 355 -4 l 1
 372 -4 l 1
372 -98 m 1
 372 -188 l 1
 300 -188 l 1
 300 -171 l 1
 355 -171 l 1
 355 -98 l 1
 372 -98 l 1
133 -171 m 1
 204 -171 l 1
 204 -188 l 1
 133 -188 l 1
 133 -171 l 1
217 -171 m 1
 288 -171 l 1
 288 -188 l 1
 217 -188 l 1
 217 -171 l 1
EndSplineSet
EndChar

StartChar: xy_commacn
Encoding: 328 57474 168
Width: 422
VWidth: 800
Flags: HW
LayerCount: 2
Fore
SplineSet
50 481 m 1
 67 482 l 1
 67 401 l 1
 50 400 l 1
 50 481 l 1
50 383 m 1
 67 383 l 1
 67 306 l 1
 50 306 l 1
 50 383 l 1
50 290 m 1
 67 290 l 1
 67 204 l 1
 50 204 l 1
 50 290 l 1
50 187 m 1
 67 187 l 1
 67 108 l 1
 50 108 l 1
 50 187 l 1
50 90 m 1
 67 91 l 1
 67 10 l 1
 50 10 l 1
 50 90 l 1
50 -8 m 1
 67 -8 l 1
 67 -85 l 1
 50 -85 l 1
 50 -8 l 1
50 -102 m 1
 67 -102 l 1
 67 -171 l 1
 120 -171 l 1
 120 -188 l 1
 50 -188 l 1
 50 -102 l 1
50 588 m 1
 120 588 l 1
 120 570 l 1
 67 570 l 1
 67 498 l 1
 50 498 l 1
 50 528 50 558 50 588 c 1
133 588 m 1
 204 588 l 1
 204 570 l 1
 133 570 l 1
 133 588 l 1
217 588 m 1
 288 588 l 1
 288 570 l 1
 217 570 l 1
 217 588 l 1
300 588 m 1
 372 588 l 1
 372 502 l 1
 355 502 l 1
 355 570 l 1
 300 570 l 1
 300 588 l 1
372 486 m 1
 372 405 l 1
 355 405 l 1
 355 486 l 1
 372 486 l 1
372 387 m 1
 372 311 l 1
 355 310 l 1
 355 387 l 1
 372 387 l 1
372 294 m 1
 372 209 l 1
 355 208 l 1
 355 294 l 1
 372 294 l 1
187 236 m 1
 183 234 183 234 168 228 c 0
 162 228 147 228 141 240 c 1
 141 243 l 1
 149 245 150 246 150 246 c 2
 162 246 167 254 167 262 c 0
 167 267 165 275 152 275 c 1
 152 280 l 1
 160 282 l 0
 162 282 177 282 177 262 c 0
 177 247 164 242 156 239 c 1
 163 237 163 237 164 237 c 0
 173 235 184 242 187 250 c 1
 187 273 l 1
 187 273 182 278 182 279 c 2
 182 280 l 1
 183 281 183 280 194 286 c 0
 197 282 l 1
 206 282 l 1
 208 283 208 283 218 285 c 1
 218 276 l 1
 224 278 230 280 236 282 c 1
 241 282 l 2
 262 282 267 249 234 235 c 0
 230 234 217 229 217 229 c 1
 217 206 l 1
 210 203 211 203 208 202 c 1
 208 274 l 1
 196 274 l 1
 196 231 l 1
 193 229 190 229 187 228 c 1
 187 236 l 1
98 279 m 1
 110 286 l 1
 113 282 l 1
 124 282 l 1
 126 283 126 283 136 285 c 1
 135 282 135 278 135 273 c 2
 135 206 l 1
 128 203 128 203 125 202 c 1
 125 274 l 1
 112 274 l 1
 112 231 l 1
 109 229 106 229 103 228 c 1
 103 273 l 1
 98 279 l 1
261 281 m 0
 264 283 272 286 272 286 c 2
 274 284 274 285 276 282 c 1
 307 282 l 1
 309 283 309 283 319 285 c 1
 319 283 318 280 318 276 c 2
 318 256 l 1
 320 256 l 2
 325 256 330 257 334 257 c 2
 339 257 l 1
 339 256 338 253 336 247 c 0
 335.819335938 247 329.514648438 249 318 249 c 1
 318 206 l 1
 311 203 311 203 308 202 c 1
 308 274 l 1
 297 274 l 1
 297 231 l 1
 290 228 291 228 288 227 c 1
 288 274 l 1
 276 274 l 1
 276 206 l 1
 269 203 269 203 266 202 c 1
 266 273 l 1
 261 281 l 0
220 238 m 0
 245 242 247 262 247 262 c 2
 248 264 250 274 235 274 c 0
 229 274 219 269 217 267 c 1
 217 238 l 1
 218 238 219 238 220 238 c 0
168 221 m 0
 169 221 170 221 170 220 c 2
 170 218 l 2
 170 216 170 216 164 204 c 1
 161 200 l 1
 159 206 153 219 153 219 c 1
 153 220 l 2
 153 221 155 221 156 221 c 2
 156 221 157 220 162 217 c 0
 168 221 l 0
223 193 m 1
 219 198 l 1
 219 200 l 1
 220 200 l 1
 225 202 229 203 233 204 c 1
 233 178 l 1
 328 178 l 1
 328 178 330 179 332 179 c 0
 334 179 334 178 334 178 c 2
 334 177 333 176 331 170 c 1
 330.665039062 170.111328125 300 180.120117188 300 153 c 1
 300 153 302 129 331 134 c 1
 331 129 l 1
 313 126 l 0
 290 126 283 157 296 170 c 1
 281 170 l 1
 281 141 l 1
 277 127 260 126 260 126 c 1
 246 126 244 138 244 142 c 2
 244 170 l 1
 233 170 l 1
 233 103 l 1
 230 101 227 100 223 99 c 1
 223 170 l 1
 212 170 l 1
 212 128 l 1
 209 126 207 126 203 125 c 1
 203 170 l 1
 192 170 l 1
 192 137 l 1
 195 128 l 1
 192 126 188 126 184 125 c 1
 183 129 l 1
 180 127 169 125 164 125 c 0
 149 125 148 142 148 144 c 2
 148 170 l 1
 137 170 l 1
 137 141 l 1
 133 127 116 126 116 126 c 2
 107 124 100 132 100 142 c 2
 100 170 l 1
 81 170 l 1
 79 171 l 2
 79 174 79 175 92 186 c 1
 94 184 96 181 98 178 c 1
 182 178 l 1
 182 193 l 1
 182 193 177 197 177 198 c 0
 178 200 178 201 190 203 c 0
 191 203 191 204 191 204 c 1
 192 204 l 1
 192 178 l 1
 223 178 l 1
 223 193 l 1
372 191 m 1
 372 112 l 1
 355 112 l 1
 355 191 l 1
 372 191 l 1
119 134 m 0
 124 134 128 136 128 143 c 2
 128 170 l 1
 110 170 l 1
 110 161 110 154 110 145 c 0
 110 134 118 134 119 134 c 0
158 170 m 1
 158 146 l 2
 158 144 161 136 164 134 c 2
 176 134 l 1
 178 135 180 136 182 138 c 1
 182 170 l 1
 158 170 l 1
263 134 m 0
 266 134 272 134 272 143 c 2
 272 170 l 1
 254 170 l 1
 254 147 l 2
 254 143 254 134 263 134 c 0
201 118 m 2
 201 118 202 117 208 114 c 1
 216 117 l 2
 216 114 l 1
 207 98 l 0
 206 100 205 102 199 116 c 1
 199 117 l 2
 199 118 200 118 201 118 c 2
372 95 m 1
 372 14 l 1
 355 14 l 1
 355 95 l 1
 372 95 l 1
372 -4 m 1
 372 -81 l 1
 355 -81 l 1
 355 -4 l 1
 372 -4 l 1
372 -98 m 1
 372 -188 l 1
 300 -188 l 1
 300 -171 l 1
 355 -171 l 1
 355 -98 l 1
 372 -98 l 1
133 -171 m 1
 204 -171 l 1
 204 -188 l 1
 133 -188 l 1
 133 -171 l 1
217 -171 m 1
 288 -171 l 1
 288 -188 l 1
 217 -188 l 1
 217 -171 l 1
EndSplineSet
EndChar

StartChar: xy_exclamdown
Encoding: 329 57475 169
Width: 422
VWidth: 800
Flags: HW
LayerCount: 2
Fore
SplineSet
50 481 m 1
 67 482 l 1
 67 401 l 1
 50 400 l 1
 50 481 l 1
50 383 m 1
 67 383 l 1
 67 306 l 1
 50 306 l 1
 50 383 l 1
50 290 m 1
 67 290 l 1
 67 204 l 1
 50 204 l 1
 50 290 l 1
50 187 m 1
 67 187 l 1
 67 108 l 1
 50 108 l 1
 50 187 l 1
50 90 m 1
 67 91 l 1
 67 10 l 1
 50 10 l 1
 50 90 l 1
50 -8 m 1
 67 -8 l 1
 67 -85 l 1
 50 -85 l 1
 50 -8 l 1
50 -102 m 1
 67 -102 l 1
 67 -171 l 1
 120 -171 l 1
 120 -188 l 1
 50 -188 l 1
 50 -102 l 1
50 588 m 1
 120 588 l 1
 120 570 l 1
 67 570 l 1
 67 498 l 1
 50 498 l 1
 50 528 50 558 50 588 c 1
133 588 m 1
 204 588 l 1
 204 570 l 1
 133 570 l 1
 133 588 l 1
217 588 m 1
 288 588 l 1
 288 570 l 1
 217 570 l 1
 217 588 l 1
300 588 m 1
 372 588 l 1
 372 502 l 1
 355 502 l 1
 355 570 l 1
 300 570 l 1
 300 588 l 1
372 486 m 1
 372 405 l 1
 355 405 l 1
 355 486 l 1
 372 486 l 1
372 387 m 1
 372 311 l 1
 355 310 l 1
 355 387 l 1
 372 387 l 1
372 294 m 1
 372 209 l 1
 355 208 l 1
 355 294 l 1
 372 294 l 1
187 236 m 1
 183 234 183 234 168 228 c 0
 162 228 147 228 141 240 c 1
 141 243 l 1
 149 245 150 246 150 246 c 2
 162 246 167 254 167 262 c 0
 167 267 165 275 152 275 c 1
 152 280 l 1
 160 282 l 0
 162 282 177 282 177 262 c 0
 177 247 164 242 156 239 c 1
 163 237 163 237 164 237 c 0
 173 235 184 242 187 250 c 1
 187 273 l 1
 187 273 182 278 182 279 c 2
 182 280 l 1
 183 281 183 280 194 286 c 0
 197 282 l 1
 206 282 l 1
 208 283 208 283 218 285 c 1
 218 276 l 1
 224 278 230 280 236 282 c 1
 241 282 l 2
 262 282 267 249 234 235 c 0
 230 234 217 229 217 229 c 1
 217 206 l 1
 210 203 211 203 208 202 c 1
 208 274 l 1
 196 274 l 1
 196 231 l 1
 193 229 190 229 187 228 c 1
 187 236 l 1
98 279 m 1
 110 286 l 1
 113 282 l 1
 124 282 l 1
 126 283 126 283 136 285 c 1
 135 282 135 278 135 273 c 2
 135 206 l 1
 128 203 128 203 125 202 c 1
 125 274 l 1
 112 274 l 1
 112 231 l 1
 109 229 106 229 103 228 c 1
 103 273 l 1
 98 279 l 1
261 281 m 0
 264 283 272 286 272 286 c 2
 274 284 274 285 276 282 c 1
 307 282 l 1
 309 283 309 283 319 285 c 1
 319 283 318 280 318 276 c 2
 318 256 l 1
 320 256 l 2
 325 256 330 257 334 257 c 2
 339 257 l 1
 339 256 338 253 336 247 c 0
 335.819335938 247 329.514648438 249 318 249 c 1
 318 206 l 1
 311 203 311 203 308 202 c 1
 308 274 l 1
 297 274 l 1
 297 231 l 1
 290 228 291 228 288 227 c 1
 288 274 l 1
 276 274 l 1
 276 206 l 1
 269 203 269 203 266 202 c 1
 266 273 l 1
 261 281 l 0
220 238 m 0
 245 242 247 262 247 262 c 2
 248 264 250 274 235 274 c 0
 229 274 219 269 217 267 c 1
 217 238 l 1
 218 238 219 238 220 238 c 0
168 221 m 0
 169 221 170 221 170 220 c 2
 170 218 l 2
 170 216 170 216 164 204 c 1
 161 200 l 1
 159 206 153 219 153 219 c 1
 153 220 l 2
 153 221 155 221 156 221 c 2
 156 221 157 220 162 217 c 0
 168 221 l 0
223 193 m 1
 219 198 l 1
 219 200 l 1
 220 200 l 1
 225 202 229 203 233 204 c 1
 233 178 l 1
 328 178 l 1
 328 178 330 179 332 179 c 0
 334 179 334 178 334 178 c 2
 334 177 333 176 331 170 c 1
 330.665039062 170.111328125 300 180.120117188 300 153 c 1
 300 153 302 129 331 134 c 1
 331 129 l 1
 313 126 l 0
 290 126 283 157 296 170 c 1
 281 170 l 1
 281 141 l 1
 277 127 260 126 260 126 c 1
 246 126 244 138 244 142 c 2
 244 170 l 1
 233 170 l 1
 233 103 l 1
 230 101 227 100 223 99 c 1
 223 170 l 1
 212 170 l 1
 212 128 l 1
 209 126 207 126 203 125 c 1
 203 170 l 1
 192 170 l 1
 192 137 l 1
 195 128 l 1
 192 126 188 126 184 125 c 1
 183 129 l 1
 180 127 169 125 164 125 c 0
 149 125 148 142 148 144 c 2
 148 170 l 1
 137 170 l 1
 137 141 l 1
 133 127 116 126 116 126 c 2
 107 124 100 132 100 142 c 2
 100 170 l 1
 81 170 l 1
 79 171 l 2
 79 174 79 175 92 186 c 1
 94 184 96 181 98 178 c 1
 182 178 l 1
 182 193 l 1
 182 193 177 197 177 198 c 0
 178 200 178 201 190 203 c 0
 191 203 191 204 191 204 c 1
 192 204 l 1
 192 178 l 1
 223 178 l 1
 223 193 l 1
372 191 m 1
 372 112 l 1
 355 112 l 1
 355 191 l 1
 372 191 l 1
119 134 m 0
 124 134 128 136 128 143 c 2
 128 170 l 1
 110 170 l 1
 110 161 110 154 110 145 c 0
 110 134 118 134 119 134 c 0
158 170 m 1
 158 146 l 2
 158 144 161 136 164 134 c 2
 176 134 l 1
 178 135 180 136 182 138 c 1
 182 170 l 1
 158 170 l 1
263 134 m 0
 266 134 272 134 272 143 c 2
 272 170 l 1
 254 170 l 1
 254 147 l 2
 254 143 254 134 263 134 c 0
201 118 m 2
 201 118 202 117 208 114 c 1
 216 117 l 2
 216 114 l 1
 207 98 l 0
 206 100 205 102 199 116 c 1
 199 117 l 2
 199 118 200 118 201 118 c 2
372 95 m 1
 372 14 l 1
 355 14 l 1
 355 95 l 1
 372 95 l 1
372 -4 m 1
 372 -81 l 1
 355 -81 l 1
 355 -4 l 1
 372 -4 l 1
372 -98 m 1
 372 -188 l 1
 300 -188 l 1
 300 -171 l 1
 355 -171 l 1
 355 -98 l 1
 372 -98 l 1
133 -171 m 1
 204 -171 l 1
 204 -188 l 1
 133 -188 l 1
 133 -171 l 1
217 -171 m 1
 288 -171 l 1
 288 -188 l 1
 217 -188 l 1
 217 -171 l 1
EndSplineSet
EndChar

